<?xml version="1.0"?>

<svg xmlns="http://www.w3.org/2000/svg" xmlns:xlink="http://www.w3.org/1999/xlink" version="1.1">
<metadata>
Created by FontForge 20230101 at Thu Feb 10 07:34:48 2000
 By Unknown
The digitally encoded machine readable software for producing the Typefaces licensed to you is copyrighted (c) 2000, Linotype Library GmbH or ist affiliated Linotype-Hell companies. All rights reserved. This software is now the property of Heidelberger Druckmaschinen AG and its licensors, and may not be reproduced, used, displayed, modified, disclosed or transferred without the express written approval of Heidelberger Druckmaschinen AG.
</metadata>
<defs>
<font id="LinotypeProjekt-Regular" horiz-adv-x="500">
  <font-face font-family="LTProjekt" font-weight="400" font-stretch="normal" units-per-em="1000" panose-1="2 0 4 0 0 0 0 0 0 0" ascent="800" descent="-200" x-height="475" cap-height="684" bbox="-145.25 -266 1207 910" underline-thickness="80" underline-position="-160" unicode-range="U+0020-2122"></font-face>
<missing-glyph d="M63 0v750h375v-750h-375zM125 63h250v625h-250v-625z"></missing-glyph>
    <glyph glyph-name=".notdef" unicode="‛" d="M63 0v750h375v-750h-375zM125 63h250v625h-250v-625z"></glyph>
    <glyph glyph-name=".notdef" unicode="‟" d="M63 0v750h375v-750h-375zM125 63h250v625h-250v-625z"></glyph>
    <glyph glyph-name=".notdef" unicode="‟" d="M63 0v750h375v-750h-375zM125 63h250v625h-250v-625z"></glyph>
    <glyph glyph-name="nonmarkingreturn" horiz-adv-x="220"></glyph>
    <glyph glyph-name="space" unicode=" " horiz-adv-x="220"></glyph>
    <glyph glyph-name="exclam" unicode="!" horiz-adv-x="318" d="M228 110v-21q-1 -16 -1 -27q0 -12 1 -33v-26t-5 -4h-22q-20 1 -31 1t-27 -1h-18q-8 0 -8 4q0 3 1 22v31.5v31.5q-1 19 -1 24q0 4 9 4h16q17 -1 28 -1q10 0 28 1h25q5 0 5 -6zM214 189q0 -6 -9 -6h-69q-8 0 -8 10q0 141 -20 486q0 6 6 6q-1 0 18 -1t33 -1q16 0 39 1t22 1&#xA;q8 0 7 -8q-5 -56 -12 -223q-8 -185 -7 -265z"></glyph>
    <glyph glyph-name="quotedbl" unicode="&#34;" horiz-adv-x="424" d="M98 473q-6 0 -6 5l-28 200q-1 6 4 6h100q7 0 6 -7l-27 -199q-1 -5 -6 -5h-43zM286 473q-6 0 -6 5l-28 200q-1 6 4 6h100q7 0 6 -7l-27 -199q-1 -5 -6 -5h-43z"></glyph>
    <glyph glyph-name="numbersign" unicode="#" horiz-adv-x="581" d="M230 298q-1 -6 3 -6h99q5 0 5 5l14 102q2 6 -3 6h-99q-5 0 -5 -5zM158 296l15 105q0 4 -3 4h-120q-5 0 -5 4v60q0 4 7 4h127q5 0 5 4l27 202q0 5 5 5h65q5 0 3 -6l-27 -199q-1 -6 3 -6h96q5 0 5 5l27 201q0 5 5 5h65q6 0 4 -6l-29 -202q0 -3 3 -3h120q5 0 5 -5v-57&#xA;q0 -6 -6 -6h-129q-4 0 -4 -3l-14 -105q0 -5 3 -5h120q5 0 5 -5v-57q0 -6 -6 -6h-127q-5 0 -6 -4l-30 -214q-1 -6 -5 -6h-62q-7 0 -6 5l30 213q2 6 -3 6h-96q-5 0 -5 -5l-29 -213q-1 -6 -5 -6h-63q-7 0 -6 5l31 215q0 4 -4 4h-119q-5 0 -5 4v59q0 5 5 5h128q5 0 5 4z"></glyph>
    <glyph glyph-name="dollar" unicode="$" horiz-adv-x="525" d="M229 -14q-108 6 -187 53q-4 3 -1 9q8 15 36 78q4 8 9 3q61 -47 143 -60v251l-11 5q-168 76 -168 202q0 81 79 134q42 29 99 36l-2 62q0 4 3 4h64q3 0 3 -5l-3 -59q87 -7 150 -43q6 -3 0 -13l-33 -66q-4 -5 -8 -2q-53 39 -109 46v-231l20 -9q98 -44 135 -90t37 -103&#xA;q0 -97 -72 -151q-52 -39 -120 -49l2 -64q0 -5 -4 -5h-59q-5 0 -5 5zM293 292v-222q44 8 69.5 37t25.5 66q0 41 -28 73q-22 25 -67 46zM229 621q-29 -6 -46 -18q-37 -27 -37 -72q0 -65 83 -110v200z"></glyph>
    <glyph glyph-name="percent" unicode="%" horiz-adv-x="874" d="M220 326q-73 0 -119 46.5t-46 118.5t48.5 120t121.5 48t119.5 -46t46.5 -117q0 -72 -49 -121t-122 -49zM220 593q-35 0 -61.5 -27.5t-26.5 -68.5q0 -44 28 -73.5t65 -29.5q36 0 62.5 28t26.5 70q0 44 -28 72.5t-66 28.5zM658 -10q-73 0 -119 46.5t-46 118.5t48.5 120&#xA;t121.5 48t119.5 -46t46.5 -117q0 -72 -49 -121t-122 -49zM658 257q-35 0 -61.5 -27.5t-26.5 -68.5q0 -44 28 -73.5t65 -29.5q36 0 62.5 28t26.5 70q0 44 -28 72.5t-66 28.5zM285 -11q-3 -5 -6 -2l-50 30q-6 3 -4 6l368 637q1 3 4 1l54 -32q2 -1 1 -4z"></glyph>
    <glyph glyph-name="ampersand" unicode="&amp;" horiz-adv-x="719" d="M407 128q-32 53 -103 156q-21 28 -63 68q-2 4 -5 1q-93 -46 -93 -150q0 -53 39 -94q42 -44 99 -44q68 0 130 53q2 2 -4 10zM271 448q99 52 99 114q0 30 -21 48t-53 18q-38 0 -59.5 -20.5t-21.5 -53.5q0 -61 49 -105q3 -3 7 -1zM606 359q4 0 4 -3q-1 -126 -82 -232&#xA;q-1 -1 -1 -4q0 -2 1 -4q41 -45 78 -45q16 0 38 5q5 2 5 -3q2 -25 11 -73q1 -3 -3 -5q-21 -7 -59 -7q-72 0 -130 63q-3 5 -7 1q-85 -68 -190 -68q-95 0 -159 58q-67 61 -67 158q0 135 138 206q5 2 0 7q-58 60 -58 135q0 81 76 127q43 26 106 26q68 0 110.5 -36.5t42.5 -94.5&#xA;q0 -107 -137 -173q-5 -2 -2 -5q48 -46 73 -81q29 -43 77 -115q3 -4 5 0q16 24 29 66q16 51 15 93q0 4 3 4q-1 0 13 -1.5t27 -1.5q12 0 27.5 1.5z"></glyph>
    <glyph glyph-name="quotesingle" unicode="&#39;" horiz-adv-x="233" d="M96 473q-6 0 -6 5l-28 200q-1 6 4 6h100q7 0 6 -7l-27 -199q-1 -5 -6 -5h-43z"></glyph>
    <glyph glyph-name="parenleft" unicode="(" horiz-adv-x="313" d="M75 264q0 140 54 274q38 94 89 160q3 3 5 3h67q6 0 2 -4q-47 -69 -81 -167q-44 -130 -44 -263q0 -143 46 -294q38 -122 77 -176q2 -3 2 -4q-2 -1 -5 -1h-74q-3 0 -6 5q-43 59 -81 171q-51 149 -51 296z"></glyph>
    <glyph glyph-name="parenright" unicode=")" horiz-adv-x="316" d="M241 274q0 -149 -54 -306q-40 -115 -82 -173q-3 -3 -5 -3h-71q-5 0 -1 4q40 61 75 177q46 151 46 291q0 132 -45 263q-34 97 -82 168q-3 5 1 5h73q3 0 7 -5q138 -179 138 -421z"></glyph>
    <glyph glyph-name="asterisk" unicode="*" horiz-adv-x="575" d="M283 530l74 139q4 5 8 3q19 -14 53 -30q6 -3 3 -9l-85 -134q-1 -3 2 -5l150 6q3 -1 6 -5q-2 -31 0 -64q-1 -3 -6 -6l-151 7q-2 0 -2 -4l85 -136q3 -5 -1 -8q-21 -9 -52 -29q-6 -4 -9 2l-75 140q-3 6 -6 0l-74 -140q-3 -5 -8 -3q-19 14 -53 30q-6 3 -2 9l85 134q-1 3 -4 5&#xA;l-149 -6q-6 0 -7 5q3 23 1 63q0 4 1.5 5.5t5.5 1.5l149 -7q2 0 3 2q0 2 -1 3l-84 135q-3 5 1 8q27 12 54 29q6 4 9 -2l73 -139q3 -6 6 0z"></glyph>
    <glyph glyph-name="plus" unicode="+" d="M287 220q0 -37 1 -109t1 -67q0 -8 -6 -8q-1 0 -11 1h-17.5h-19.5q-11 -1 -13 -1q-9 0 -9 6q0 -5 1 66.5t1 112.5q0 6 -6 6q-39 0 -102.5 -1.5t-58.5 -1.5q-8 0 -8 6q0 1 1 11v18v19q-1 12 -1 13q0 9 6 9q-4 0 62 -1t103 -1q4 0 4 4q0 39 -1 109.5t-1 65.5q0 9 7 9h13&#xA;q11 -1 19 -1q7 0 19 1h13q5 0 5 -7q0 5 -1 -66.5t-1 -109.5q0 -5 4 -5q39 0 101.5 1t57.5 1q9 0 9 -7v-13q-1 -11 -1 -19q0 -7 1 -19v-13q0 -5 -7 -5q5 0 -57 1t-103 1q-5 0 -5 -6z"></glyph>
    <glyph glyph-name="comma" unicode="," horiz-adv-x="267" d="M134 -148q-6 -8 -11 -4q-17 13 -41 25q-7 3 -3 9q40 64 40 112q0 6 -7 6h-30q-7 0 -7 12q0 1 1 17v28.5v32.5q-1 20 -1 21q0 7 12 7h16q16 -1 27 -1t31 1h24q6 0 6 -10q0 2 1 -38v-59q0 -83 -58 -159z"></glyph>
    <glyph glyph-name="hyphenminus" unicode="-" horiz-adv-x="353" d="M55 306q0 9 6 9q-2 0 34.5 -1t67.5 -1q37 0 83.5 1t42.5 1q9 0 9 -7v-15q-1 -14 -1 -22q0 -7 1 -19v-18t-7 -5q4 0 -42 1t-83 1h-69q-37 -1 -34 -1q-8 0 -8 5q0 1 1 16v23v19q-1 12 -1 13z"></glyph>
    <glyph glyph-name="period" unicode="." horiz-adv-x="265" d="M190 114v-23q-1 -18 -1 -29q0 -12 1 -33v-26t-5 -4h-23q-21 1 -32 1t-28 -1h-19q-8 0 -8 4q0 3 1 22v31.5v33.5q-1 21 -1 26q0 4 9 4h17q18 -1 29 -1q10 0 29 1h26q5 0 5 -6z"></glyph>
    <glyph glyph-name="slash" unicode="/" horiz-adv-x="369" d="M375 695q-46 -136 -131 -408q-31 -98 -148 -489q-1 -6 -5 -6l-15.5 1t-23.5 1q-9 0 -24.5 -1l-15.5 -1q-5 0 -3 5q44 132 156 480q36 113 125 419q1 5 6 5q1 0 16 -1.5t21 -1.5q8 0 24.5 1.5l16.5 1.5q3 0 1 -6z"></glyph>
    <glyph glyph-name="zero" unicode="0" horiz-adv-x="588" d="M298 508q107 0 174 -71t67 -185t-71 -191t-178 -77t-174 73t-67 187t71 189t178 75zM290 427q-62 0 -103 -49t-41 -125q0 -80 43.5 -133t108.5 -53q62 0 103 50.5t41 127.5q0 79 -43 130.5t-109 51.5z"></glyph>
    <glyph glyph-name="one" unicode="1" horiz-adv-x="378" d="M169 394q0 9 -6 6q-34 -15 -93 -43q-3 -2 -5 3q-5 22 -29 72q-1 4 0 5q125 49 159 63q5 2 8 2t30 -3t32 -3t5 -4q-5 -150 -5 -170v-167q0 -9 6 -147q0 -9 -5 -9t-23.5 1t-25.5 1t-24.5 -1t-23.5 -1q-5 0 -5 4q3 50 6 136z"></glyph>
    <glyph glyph-name="two" unicode="2" horiz-adv-x="506" d="M54 438q77 70 183 70q85 0 134 -44q44 -38 44 -95q0 -67 -45 -123q-54 -66 -198 -156q-16 -10 -3 -10q190 0 279 6q6 0 6 -7l-1 -16.5t-1 -27.5q0 -7 1 -18t1 -12q0 -7 -8 -7q-19 0 -149 1.5t-172 1.5q-28 0 -56.5 -1l-28.5 -1q-7 0 -7 7q0 38 -4 54q-1 6 3 9&#xA;q177 120 239 188q46 51 46 98q0 33 -25.5 54t-65.5 21q-70 0 -124 -52q-3 -3 -5 0q-11 17 -44 53q-3 3 1 7z"></glyph>
    <glyph glyph-name="three" unicode="3" horiz-adv-x="469" d="M65 -108q1 4 7 2q62 -25 103 -25q54 0 96.5 40t42.5 96q0 122 -157 122q-19 0 -41 -2q-6 0 -6 5q0 24 -9 67q-1 5 4 6q183 43 183 151q0 26 -22 49q-25 27 -76 27q-61 0 -118 -47q-2 -2 -3 1q-12 23 -41 58q-1 3 0 4q71 62 174 62q93 0 142 -53q39 -42 39 -94&#xA;q0 -105 -114 -165q-8 -4 2 -7q63 -11 102 -58t39 -112q0 -94 -65 -159q-68 -68 -176 -68q-76 0 -126 19q-5 3 -4 6q15 36 24 75z"></glyph>
    <glyph glyph-name="four" unicode="4" horiz-adv-x="560" d="M418 96q0 -7 7 -7l97 3q7 0 7 -6v-22q-1 -14 -1 -18q0 -5 1 -16v-15q0 -7 -7 -7l-98 3q-3 -1 -6 -5q1 -102 5 -192q0 -7 -5 -7t-21 1t-23 1t-23.5 -1t-22.5 -1q-5 0 -5 6q4 112 4 194q0 4 -6 4l-129 2q-20 0 -87 -1q-71 -1 -69 -1q-6 0 -7 7l-4 49q0 3 3 9&#xA;q154 246 266 408q5 7 15 7q3 0 23.5 -2t28.5 -2q13 0 33 2l20 2q8 0 8 -11q0 15 -2 -166q-3 -173 -2 -218zM329 154v87v99q-1 55 -1 53q0 14 -7 4q-64 -91 -192 -295q-5 -8 -3 -10q1 -2 6 -2l35 -1q32 -1 56 -1l99 1q6 0 6 6.5t1 58.5z"></glyph>
    <glyph glyph-name="five" unicode="5" horiz-adv-x="460" d="M75 177q12 172 9 306q0 8 7 8q-1 0 36 -1t65 -1q84 0 128 1q31 0 39 1t5 1q6 0 6 -5v-13q-1 -10 -1 -22t1 -28q0 -16 0 -15q0 -3 -5 -3q-6 0 -55.5 2t-62.5 2q-44 0 -74 -1q-7 0 -7 -10l-3 -147q0 -9 9 -9h15q94 0 159 -54q69 -59 69 -156q0 -113 -71 -176.5t-187 -64.5&#xA;q-62 0 -115 18q-3 3 -2 7q13 36 21 72q1 5 7 2q47 -22 92 -22q71 0 116 48q41 43 41 105q0 67 -46 104t-128 38q-31 0 -53 -3q-9 -1 -12.5 2.5t-2.5 13.5z"></glyph>
    <glyph glyph-name="six" unicode="6" horiz-adv-x="580" d="M164 275q5 -88 38 -143q40 -66 110 -66q58 0 89 49q27 42 27 105q0 64 -32 101t-79 37q-93 0 -150 -74q-3 -4 -3 -9zM469 682q-12 -35 -19 -75q-1 -3 -6 -1q-33 15 -84 15q-85 0 -139 -81q-45 -67 -53 -157q0 -10 4 -7q72 60 162 60q67 0 121 -43q70 -56 70 -159&#xA;q0 -108 -57 -177q-62 -73 -168 -73q-112 0 -176 94q-59 88 -59 231q0 171 85.5 281t226.5 110q50 0 89 -11q5 -1 3 -7z"></glyph>
    <glyph glyph-name="seven" unicode="7" horiz-adv-x="485" d="M197 -201q4 0 -90 21q-6 1 -3 9q27 67 111 275q40 98 114 296q3 8 -10 8q-90 0 -164 -1q-49 -1 -93 -3q-37 -1 -39 -1q-5 0 -5 6l1 16t1 29q0 12 -1 20t-1 10q0 9 8 9q10 0 126.5 -1.5t136.5 -1.5q9 0 65.5 1t67.5 1q5 0 5 -6l5 -54l-5 -13q-45 -113 -124 -323&#xA;q-10 -28 -101 -292q-2 -5 -5 -5z"></glyph>
    <glyph glyph-name="eight" unicode="8" horiz-adv-x="553" d="M287 700q82 0 138.5 -44t56.5 -119q0 -101 -113 -167l-8 -5l7 -4q135 -68 135 -181q0 -78 -59 -133q-67 -63 -181 -63q-91 0 -153 52t-62 135q0 120 128 174l8 4q0 1 -7 5q-53 32 -78 68q-30 42 -30 104q0 61 51 112q62 62 167 62zM163 529q0 -78 123 -129q4 -2 8 0&#xA;q98 47 98 124q0 53 -39 80q-32 23 -81 23q-46 0 -76 -26q-33 -27 -33 -72zM249 312q-106 -47 -106 -134q0 -48 40.5 -81.5t92.5 -33.5t90.5 30.5t38.5 80.5q0 83 -144 139q-5 2 -12 -1z"></glyph>
    <glyph glyph-name="nine" unicode="9" horiz-adv-x="568" d="M408 211q-5 92 -39 149q-39 67 -110 67q-54 0 -83.5 -39.5t-29.5 -98.5q0 -73 38 -112q33 -35 82 -35q72 0 136 56q6 6 6 13zM120 -112q0 2 6 1q46 -17 92 -17q85 0 136 78q40 63 50 159q0 10 -8 2q-68 -49 -149 -49q-76 0 -129 48q-67 60 -67 174q0 94 57 156&#xA;q60 66 162 66q101 0 165 -74q71 -84 71 -241q0 -183 -80 -291t-224 -108q-61 0 -99 12q-3 3 -3 5q12 30 20 79z"></glyph>
    <glyph glyph-name="colon" unicode=":" horiz-adv-x="265" d="M190 114v-23q-1 -18 -1 -29q0 -12 1 -33v-26t-5 -4h-23q-21 1 -32 1t-28 -1h-19q-8 0 -8 4q0 3 1 22v31.5v33.5q-1 21 -1 26q0 4 9 4h17q18 -1 29 -1q10 0 29 1h26q5 0 5 -6zM190 470v-23q-1 -18 -1 -29q0 -12 1 -33v-26t-5 -4q-3 0 -23 1h-32h-28q-18 -1 -19 -1&#xA;q-8 0 -8 4q0 3 1 22v31.5v33.5q-1 21 -1 26q0 4 9 4h17q18 -1 29 -1q10 0 29 1h26q5 0 5 -6z"></glyph>
    <glyph glyph-name="semicolon" unicode=";" horiz-adv-x="266" d="M190 470v-23q-1 -18 -1 -29q0 -12 1 -33v-26t-5 -4q-3 0 -23 1h-32h-28q-18 -1 -19 -1q-8 0 -8 4q0 3 1 22v31.5v33.5q-1 21 -1 26q0 4 9 4h17q18 -1 29 -1q10 0 29 1h26q5 0 5 -6zM134 -148q-6 -8 -11 -4q-17 13 -41 25q-7 3 -3 9q40 64 40 112q0 6 -7 6h-30q-7 0 -7 12&#xA;q0 1 1 17v28.5v32.5q-1 20 -1 21q0 7 12 7h16q16 -1 27 -1t31 1h24q6 0 6 -10v-97q0 -84 -57 -159z"></glyph>
    <glyph glyph-name="less" unicode="&lt;" d="M151 261q42 -15 105 -37q170 -58 184 -65q9 -2 9 -10v-15q-1 -14 -1 -22q0 -7 1 -19v-15q0 -2 -7 0q-63 24 -186 69q-96 36 -198 74q-8 3 -8 8q0 1 1 11.5t1 18.5q0 7 -1 16.5t-1 12.5q0 9 6 11q74 29 200 76q164 60 184 70q9 2 9 -4v-13q-1 -12 -1 -20q0 -7 1 -18v-14&#xA;q0 -6 -7 -8q-88 -29 -186 -64q-34 -13 -104 -37q-9 -3 -1 -6z"></glyph>
    <glyph glyph-name="equal" unicode="=" d="M50 371q0 9 6 9q-2 0 84 0q85 -1 116 -1q37 0 113 1q75 0 71 0q9 0 9 -7v-13q-1 -11 -1 -19q0 -7 1 -19v-13q0 -5 -7 -5q4 0 -73 1h-113h-117q-84 -1 -81 -1q-8 0 -8 6q0 1 1 11v18v19q-1 12 -1 13zM50 202q0 9 6 9q-2 0 84 0q85 -1 116 -1q37 0 113 1q75 0 71 0&#xA;q9 0 9 -7v-13q-1 -11 -1 -19q0 -7 1 -19v-13q0 -5 -7 -5q4 0 -73 1h-113h-117q-84 -1 -81 -1q-8 0 -8 6q0 1 1 11v18v19q-1 12 -1 13z"></glyph>
    <glyph glyph-name="greater" unicode="&gt;" d="M348 262q-43 15 -106 37q-170 58 -184 65q-9 2 -9 10q0 1 1 14v19.5v19.5q-1 12 -1 15q0 4 7 2q63 -24 186 -70q96 -37 198 -75q8 -3 8 -8q0 -1 -1 -11.5t-1 -18.5q0 -7 1 -16.5t1 -12.5q0 -9 -6 -11q-74 -29 -200 -76q-164 -60 -184 -70q-9 -2 -9 4q0 1 1 13v19.5v19.5&#xA;q-1 11 -1 16q0 6 7 8q88 29 186 64q35 13 105 37q9 3 1 6z"></glyph>
    <glyph glyph-name="question" unicode="?" horiz-adv-x="378" d="M240 110v-21q-1 -16 -1 -27q0 -12 1 -33v-26t-5 -4h-22q-20 1 -31 1t-27 -1h-18q-8 0 -8 4q0 3 1 22v31.5v31.5q-1 19 -1 24q0 4 9 4h16q17 -1 28 -1q10 0 28 1h25q5 0 5 -6zM224 181l-12.5 1t-26.5 1q-17 0 -31.5 -1t-12.5 -1q-4 0 -5 7q-4 26 -4 52q1 98 73 197&#xA;q28 38 36 53q14 28 14 57q0 70 -74 70q-64 0 -109 -48q-4 -5 -7 0q-18 31 -46 59q-3 3 1 7q73 66 172 66q73 0 115 -39q47 -44 47 -102q0 -47 -17 -84q-12 -24 -47 -71q-65 -87 -65 -154q0 -12 3 -63q0 -7 -4 -7z"></glyph>
    <glyph glyph-name="at" unicode="@" horiz-adv-x="990" d="M568 281q2 4 14 101q1 7 -5 10q-29 14 -72 14q-78 0 -124 -81q-39 -68 -39 -156q0 -92 45 -92q52 0 113 83q48 64 68 121zM935 237q0 -172 -126 -240q-43 -22 -100 -22q-73 0 -112 51q-35 44 -35 110v23q-6 -12 -22 -42q-72 -120 -172 -120q-40 0 -69 27q-44 39 -44 127&#xA;q0 126 59 217q71 109 202 109q57 0 103 -22q8 -4 9 -4q-1 0 25 10q20 11 22 11q1 -1 1 -5q0 -1 -10 -70q-12 -78 -16 -112q-14 -110 -14 -141q0 -108 84 -108q61 0 103 57t42 144q0 155 -107.5 267t-262.5 112t-262.5 -110.5t-107.5 -268.5q0 -155 108.5 -267t261.5 -112&#xA;q65 0 123 24q15 6 72 38l33 -60q-42 -20 -85 -39q-64 -24 -143 -24q-181 0 -310.5 129.5t-129.5 310.5q0 182 129.5 311t310.5 129q182 0 311 -129t129 -311z"></glyph>
    <glyph glyph-name="A" unicode="A" horiz-adv-x="635" d="M405 274q6 0 4 6l-86 259q-1 3 -6 25q-4 19 -5 19t-2 -12q-2 -17 -7 -30l-89 -260q-2 -7 6 -7h35q32 -1 52 -1q22 0 59 1h39zM497 6q-13 44 -56 184q-2 6 -8 6q-1 0 -49 1h-75h-72q-45 -1 -47 -1q-5 0 -7 -6q-23 -70 -60 -188q-1 -3 -4 -3l-18.5 1t-29.5 1q-10 0 -28 -1&#xA;t-21 -1q-4 0 -1 7q44 118 141 383q80 225 98 289q2 6 6 6q1 0 19.5 -1t29.5 -1t29.5 1t20.5 1q5 0 6 -4q111 -357 243 -676q2 -5 -2 -5q1 0 -19 1t-33 1q-11 0 -34 -1t-24 -1q-3 0 -5 7z"></glyph>
    <glyph glyph-name="B" unicode="B" horiz-adv-x="593" d="M307 -2q-27 0 -81 2t-76 2q-13 0 -31.5 -1.5t-21.5 -1.5q-12 0 -12 14q0 2 1 52q2 58 3 119q1 91 1 195q0 130 -2.5 217.5t-2.5 77.5q0 9 7 9q33 3 200 3q95 0 146 -29q74 -42 74 -139q0 -44 -23 -81q-26 -40 -71 -59q-4 -2 -4 -4t4 -3q48 -9 83 -53q37 -47 37 -108&#xA;q0 -86 -48 -143q-58 -69 -183 -69zM287 402q60 0 95 28t35 76q0 53 -31.5 77.5t-107.5 24.5h-44q-31 -1 -39.5 -1t-8.5 -10q-3 -147 -3 -184q0 -11 10 -11h94zM305 323h-114q-8 0 -8 -10q0 -54 1.5 -140.5t1.5 -84.5q0 -9 8 -9q23 -1 104 -1q88 0 120 52q19 31 19 81&#xA;q0 53 -36 82.5t-96 29.5z"></glyph>
    <glyph glyph-name="C" unicode="C" horiz-adv-x="601" d="M529 112q13 -35 35 -73q2 -3 -1 -6q-85 -48 -194 -48q-135 0 -221 91q-93 98 -93 268q0 172 102 270q91 86 222 86q104 0 183 -49q5 -3 3 -7q-21 -32 -41 -77q-3 -6 -6 -3q-73 52 -149 52q-85 0 -143 -60q-68 -71 -68 -199q0 -133 60 -209t159 -76q63 0 143 42q7 4 9 -2z&#xA;"></glyph>
    <glyph glyph-name="D" unicode="D" horiz-adv-x="670" d="M193 94q0 -7 5 -7q29 -3 101 -3q106 0 159 61q56 65 56 196q0 134 -63 200q-59 62 -185 62q-50 0 -66 -2q-7 0 -7 -6q0 6 -2 -91t-2 -164q0 -61 2 -155t2 -91zM275 688q168 0 252 -82q88 -86 88 -255q0 -185 -89 -272q-82 -81 -233 -81q-8 0 -57 1.5t-79 1.5&#xA;q-13 0 -34 -1t-26 -1q-11 0 -11 13q0 2 1 52q2 58 3 120q1 91 1 195q0 130 -3 218.5t-3 79.5q0 7 10 7q92 4 180 4z"></glyph>
    <glyph glyph-name="E" unicode="E" horiz-adv-x="509" d="M185 89q0 -5 5 -5q17 -1 91 -1q46 0 114 2t65 2q4 0 4 -5q0 1 0 -13q-1 -14 -1 -26q0 -10 1 -25v-16q0 -4 -4 -4q12 0 -85 1.5t-166 1.5q-21 0 -69.5 -1l-48.5 -1q-6 0 -6 6q0 1 1 48q2 57 3 116q1 87 1 183t-1 177q-1 55 -3 105q-1 41 -1 42q0 8 7 8q-1 0 38.5 -1&#xA;t67.5 -1q84 0 147 1q45 0 77 1q27 1 24 1q6 0 6 -5q0 -2 -1 -13.5t-1 -23.5t1 -27t1 -14q0 -3 -5 -3q-6 0 -79.5 2t-86.5 2q-60 0 -89 -1q-7 0 -7 -10q-1 -38 -1 -68l-1 -25q0 -32 1 -95q0 -5 6 -5q57 -2 99 -2q49 0 90.5 2t36.5 2q5 0 5 -6v-16q-1 -16 -1 -24t1 -24v-15&#xA;q0 -5 -3 -5q6 0 -49.5 2t-91.5 2q-30 0 -89 -2q-4 0 -4 -7q-1 -54 -1 -112q0 -4 1 -31q0 -34 1 -74z"></glyph>
    <glyph glyph-name="F" unicode="F" horiz-adv-x="467" d="M191 3q0 -4 -4 -4q1 0 -20 1t-33 1q-7 0 -23.5 -1t-19.5 -1q-6 0 -6 6q0 -3 1 45q2 55 3 117q1 89 1 185t-1 177q-1 56 -3 105q-1 42 -1 43q0 8 7 8q-1 0 38.5 -1.5t67.5 -1.5q84 0 147 1q45 0 77 1q27 1 24 1q6 0 6 -5v-13q-1 -11 -1 -23t1 -28q0 -15 0 -14q0 -3 -5 -3&#xA;q-6 0 -77 1.5t-84 1.5q-62 0 -92 -1q-7 0 -7 -10q-1 -38 -1 -67l-1 -25q0 -32 1 -95q0 -5 6 -5q58 -1 102 -1q49 0 85.5 1.5t31.5 1.5q5 0 5 -6v-16q-1 -16 -1 -24t1 -23v-15q0 -5 -3 -5q6 0 -44.5 2t-86.5 2q-32 0 -91 -1q-4 0 -4.5 -7.5t-0.5 -113.5q0 -66 2.5 -133.5&#xA;t2.5 -57.5z"></glyph>
    <glyph glyph-name="G" unicode="G" horiz-adv-x="699" d="M528 206q0 4 -1 25q-1 26 -1 50q0 9 -8 9q-39 1 -59 1q-18 0 -37.5 -1.5t-17.5 -1.5q-4 0 -4 4q0 -1 1 13v24v24q-1 15 -1 14q0 6 7 6q-4 0 33 -1.5t68 -1.5q32 0 73 1t36 1q7 0 7 -8q0 -5 -1.5 -48t-1.5 -73q0 -43 1.5 -109.5t1.5 -63.5q0 -3 -3 -6q-103 -79 -255 -79&#xA;q-133 0 -220 93q-91 98 -91 260q0 174 99 273q90 89 229 89q120 0 215 -64q5 -3 2 -7q-24 -30 -46 -75q-2 -4 -5 -1q-78 65 -177 65q-97 0 -155.5 -75t-58.5 -191q0 -141 69 -217q62 -67 161 -67q83 0 134 36q6 3 6 102z"></glyph>
    <glyph glyph-name="H" unicode="H" horiz-adv-x="696" d="M605 684q6 0 6 -6q0 3 -2 -38q-1 -48 -2 -106q-2 -84 -2 -185q0 -102 2 -189q1 -60 2 -111q2 -45 2 -43q0 -7 -6 -7l-17.5 1t-28.5 1t-29.5 -1l-18.5 -1q-6 0 -6 5q0 -10 2.5 88.5t2.5 214.5q0 6 -6 6q-32 3 -156 3q-94 0 -156 -3q-6 0 -6 -6q0 -81 1 -158q1 -54 3 -104&#xA;q1 -43 1 -41q0 -5 -5 -5l-19 1t-29 1t-28.5 -1l-18.5 -1q-6 0 -6 6q0 1 1 48q2 57 3 116q1 87 1 183t-1 177q-1 56 -3 105q-1 42 -1 43q0 7 5 7q-1 0 16.5 -1t27.5 -1t31 1t20 1q6 0 6 -7q0 9 -2.5 -82.5t-2.5 -185.5q0 -6 7 -6q88 -3 146 -3q55 0 166 3q5 0 5 5&#xA;q0 72 -1 140q-1 47 -3 92q-1 38 -1 37q0 7 6 7l15 -1t26 -1q12 0 33 1t20 1z"></glyph>
    <glyph glyph-name="I" unicode="I" horiz-adv-x="280" d="M137 1q-10 0 -29 -1l-19 -1q-4 0 -4 5q0 1 1 49q2 56 3 116q1 87 1 183t-1 177q-1 56 -3 106q-1 42 -1 43q0 6 4 6l18 -1t28 -1q13 0 34.5 1t20.5 1q5 0 5 -5q0 3 -2 -38q-1 -48 -2 -107q-2 -84 -2 -185q0 -102 1 -189q1 -61 3 -113q1 -45 1 -43q0 -5 -5 -5l-20.5 1&#xA;t-31.5 1z"></glyph>
    <glyph glyph-name="J" unicode="J" horiz-adv-x="351" d="M-6 82q0 5 5 3q30 -10 50 -10q77 0 103 49q19 33 21 117q1 42 1 211q0 71 -3 150t-3 74q0 8 7 8q2 0 19.5 -1t26.5 -1q12 0 29.5 1t19.5 1q6 0 6 -5q0 5 -3 -96q-2 -97 -2 -127l3 -193q0 -147 -46 -211q-49 -68 -169 -68q-78 0 -78 13q6 32 13 85z"></glyph>
    <glyph glyph-name="K" unicode="K" horiz-adv-x="604" d="M446 2q-23 39 -133 182l-122 159q-3 1 -5 -1q1 -114 3 -236q2 -115 2 -103q0 -4 -5 -4l-19 1t-29 1t-27.5 -1t-19.5 -1q-6 0 -6 6q0 1 1 48q2 57 3 116q1 87 1 183t-1 177q-1 55 -3 105q-1 41 -1 42q0 8 7 8q2 0 16 -1t23 -1t27 1t26 1q7 0 7 -7q0 10 -2.5 -101&#xA;t-2.5 -207q0 -4 3 -1q42 48 141 172q70 88 106 139q4 5 10 5q1 0 16.5 -1t27.5 -1q14 0 42.5 1l28.5 1q6 0 5 -2l-3 -3q-39 -38 -140 -162l-122 -149q-5 -7 -1 -14q29 -34 126 -159q87 -113 156 -191q4 -5 -2 -5l-28 1t-43 1t-35 -1t-21 -1q-4 0 -7 3z"></glyph>
    <glyph glyph-name="L" unicode="L" horiz-adv-x="515" d="M471 90q4 0 4 -5q0 1 0 -14q-1 -14 -1 -26q0 -10 1 -26v-17q0 -4 -4 -4q4 0 -79.5 1.5t-112.5 1.5q-61 0 -128 -1t-59 -1q-6 0 -6 6q0 1 1 48q2 57 3 116q1 87 1 183t-2 177q-1 55 -2 105q-2 41 -2 42q0 8 7 8h18q16 -1 25 -1q10 0 30 1h23q6 0 6 -6q0 3 -2 -38&#xA;q-1 -48 -2 -106q-2 -84 -2 -185q0 -81 2 -173t2 -82q0 -7 5 -7q16 -1 95 -1q46 0 114 2t65 2z"></glyph>
    <glyph glyph-name="M" unicode="M" horiz-adv-x="845" d="M790 5q0 -6 -5 -6q-1 0 -20.5 1t-28.5 1q-10 0 -27 -1t-18 -1q-7 0 -7 7q-4 94 -15 305q-6 97 -18 270q-2 23 -1 23q2 0 -6 -25q-73 -228 -168 -576q-1 -4 -6 -4l-20.5 1t-28.5 1q-11 0 -27.5 -1l-16.5 -1q-5 0 -6 5q-114 382 -179 568q-10 28 -7 28q1 0 -1 -27l-16 -266&#xA;q-4 -101 -13 -302q0 -6 -6 -6q-1 0 -19 1t-28 1t-26 -1l-16 -1q-5 0 -5 6q39 438 45 673q0 6 6 6q2 0 26.5 -1t40.5 -1q18 0 47.5 1l29.5 1q5 0 6 -4q85 -301 154 -499q9 -25 13 -52l4 -20q1 0 3 19q3 24 9 42q53 171 145 508q2 6 7 6q-1 0 25.5 -1t44.5 -1q19 0 47 1t27 1&#xA;q6 0 6 -6q8 -269 49 -673z"></glyph>
    <glyph glyph-name="N" unicode="N" horiz-adv-x="714" d="M158 682q16 0 42.5 1.5t28.5 1.5q5 0 10 -10q62 -133 262 -497q16 -30 25 -54q5 -16 6 -16v79q0 126 -3 312t-3 178q0 7 6 7q2 0 18.5 -1t26.5 -1q11 0 27 1t19 1q6 0 6 -6q0 3 -2 -38q-1 -48 -2 -106q-2 -84 -2 -185q0 -102 1 -189q1 -60 2 -111q1 -45 1 -43q0 -7 -6 -7&#xA;l-23 1t-46 1q-14 0 -37.5 -1.5t-29.5 -1.5q-5 1 -9 9q-57 116 -279 530q-7 13 -12 31q-4 12 -5 12q1 0 1 -58q0 -191 3 -357.5t3 -161.5q0 -4 -5 -4l-21.5 1t-28.5 1q-10 0 -24.5 -1t-16.5 -1q-6 0 -6 6q0 1 1 48q2 57 3 116q1 87 1 183t-1 177q-1 55 -2 105q-1 41 -1 42&#xA;q0 8 7 8q1 0 24.5 -1t40.5 -1z"></glyph>
    <glyph glyph-name="O" unicode="O" horiz-adv-x="743" d="M379 701q139 0 224 -96t85 -253q0 -164 -89 -265.5t-234 -101.5q-139 0 -224.5 100t-85.5 258q0 159 91 258.5t233 99.5zM369 616q-94 0 -152 -70q-59 -73 -59 -194q0 -127 60.5 -203.5t155.5 -76.5t153 75t58 198q0 122 -60.5 196.5t-155.5 74.5z"></glyph>
    <glyph glyph-name="P" unicode="P" horiz-adv-x="555" d="M142 1q-13 0 -28 -1t-20 -1q-9 0 -9 8q0 -13 3 107.5t3 264.5q0 130 -3 217.5t-3 77.5q0 9 7 9l82.5 1t115.5 1q128 0 186 -60q44 -45 44 -119q0 -91 -52 -147q-61 -65 -179 -65q-15 0 -53 1h-42q-8 0 -8 -16q0 -86 2 -182.5t2 -85.5q0 -13 -5 -13q1 0 -13.5 1.5&#xA;t-29.5 1.5zM293 375q130 0 130 127q0 106 -150 106h-41q-29 -1 -37.5 -1t-8.5 -10q-2 -98 -2 -210q0 -10 9 -11t100 -1z"></glyph>
    <glyph glyph-name="Q" unicode="Q" horiz-adv-x="742" d="M327 74q16 8 47 8q18 0 53 -7q68 22 110 86q48 72 48 180q0 122 -60.5 199.5t-154.5 77.5t-153 -72.5t-59 -194.5q0 -109 45.5 -181.5t123.5 -95.5zM765 -101q1 -7 -7 -7q-23 -5 -54 -5q-70 0 -158 42q-119 57 -131 61q-22 -5 -46 -5q-139 0 -226.5 99t-87.5 256&#xA;q0 159 91 260t233 101q139 0 224 -98t85 -255q0 -108 -43.5 -192t-115.5 -126q74 -36 83 -39q53 -21 99 -21q20 0 42 3q5 0 8 -32z"></glyph>
    <glyph glyph-name="R" unicode="R" horiz-adv-x="569" d="M292 385q66 0 100 36q30 31 30 83q0 50 -32 77t-114 27h-43q-30 -1 -38.5 -1t-8.5 -10q-2 -81 0 -199q0 -10 10 -11q16 -2 96 -2zM238 307h-46q-8 0 -8 -16q0 -86 2 -188.5t2 -91.5q0 -13 -5 -13q1 0 -14.5 1.5t-30.5 1.5q-13 0 -27.5 -1t-16.5 -1q-9 0 -9 8&#xA;q0 -13 2.5 107.5t2.5 264.5q0 130 -2.5 217.5t-2.5 77.5q0 9 7 9q22 2 190 2q111 0 159 -29q78 -47 78 -147q0 -77 -43 -126q-33 -37 -83 -52l-13 -4q0 1 10 -6q38 -25 83 -131q29 -72 80 -184q4 -7 -5 -7q-1 0 -21 1t-35 1q-16 0 -31.5 -1t-14.5 -1q-8 0 -11 8&#xA;q-12 42 -66 177q-34 76 -56 97q-25 26 -75 26z"></glyph>
    <glyph glyph-name="S" unicode="S" horiz-adv-x="524" d="M321 381q86 -39 127 -89q36 -45 36 -105q0 -96 -70.5 -149t-168.5 -53q-104 0 -203 57q-5 3 -1 9q1 2 35 79q4 8 9 3q83 -63 175 -63q57 0 91 33q31 30 31 71t-27 72q-24 28 -93 58l-48 21q-84 37 -122 80q-43 48 -43 116q0 88 79 141q58 39 140 39q92 0 174 -45&#xA;q6 -3 0 -13q-10 -16 -34 -71q-2 -6 -8 -2q-66 49 -140 49q-47 0 -75 -21q-35 -26 -35 -69q0 -72 115 -123z"></glyph>
    <glyph glyph-name="T" unicode="T" horiz-adv-x="576" d="M219 603q-28 1 -93 1q-13 0 -61.5 -2t-54.5 -2q-5 0 -5 3q0 -1 1 14v27v23q-1 11 -1 13q0 5 6 5q-3 0 30 -1q38 -1 86 -2q69 -1 153 -1q86 0 155 1q49 1 86 2q33 1 29 1q6 0 6 -5v-13q-1 -10 -1 -22t1 -28q0 -15 0 -14q0 -3 -5 -3q-6 0 -58 2t-65 2q-46 0 -88 -1&#xA;q-10 0 -10 -13q0 2 0 -88q-1 -90 -1 -153q0 -102 2 -189q1 -60 2 -111q2 -45 2 -43q0 -7 -6 -7q-2 0 -22 1t-30 1t-27.5 -1t-19.5 -1q-6 0 -6 6q0 1 1 48q2 57 3 116q1 87 1 183l-1 244q0 7 -9 7z"></glyph>
    <glyph glyph-name="U" unicode="U" horiz-adv-x="658" d="M583 262q0 -145 -75 -215q-66 -62 -184 -62q-249 0 -249 258q0 151 1 213q0 30 -3 128.5t-3 93.5q0 6 6 6q2 0 21 -1t31 -1q9 0 26.5 1t19.5 1q7 0 7 -8q0 5 -3 -74t-3 -150v-192q2 -190 151 -190q73 0 110 33q49 43 50 150q1 71 1 199q0 71 -2 150t-2 74q0 8 7 8&#xA;q2 0 17.5 -1t24.5 -1q12 0 30 1t20 1q6 0 6 -6q0 5 -3 -93.5t-3 -128.5q1 -63 1 -194z"></glyph>
    <glyph glyph-name="V" unicode="V" horiz-adv-x="618" d="M303 154q6 -17 8 -34q2 -13 3 -13t3 13q3 18 8 33q36 107 90 280q28 96 74 248q1 3 4 3l16.5 -1.5t27.5 -1.5q10 0 33 1.5t26 1.5t1 -7q-28 -79 -109 -314q-89 -265 -117 -358q-2 -6 -6 -6q-1 0 -21 1t-31 1t-30 -1t-21 -1q-5 0 -6 4l-126 376q-9 25 -109 300q-2 5 2 5&#xA;q-1 0 23 -1t37 -1q11 0 31.5 1t21.5 1q3 0 5 -7q22 -74 75 -248z"></glyph>
    <glyph glyph-name="W" unicode="W" horiz-adv-x="944" d="M480 682q12 0 34.5 1t23.5 1q4 0 5 -6q19 -85 64 -279l58 -236q6 -24 9 -47q2 -17 3 -17t3 18q4 25 11 50q14 63 57 237q24 110 61 277q1 3 3 3q1 0 18.5 -1t26.5 -1t30.5 1t24.5 1t1 -7q-14 -48 -84 -309l-96 -363q-2 -6 -5 -6q-2 0 -24 1t-31 1q-10 0 -33 -1t-25 -1&#xA;q-3 0 -4 4q-20 88 -65 282q-24 106 -55 240q-5 19 -9 44q-2 20 -3 20t-4 -21q-5 -30 -13 -60q-16 -64 -53 -213q-24 -94 -69 -290q-1 -6 -5 -6q-2 0 -23 1t-30 1q-10 0 -33.5 -1t-25.5 -1q-4 0 -5 4q-76 307 -187 676q-2 5 2 5l24 -1t35 -1q9 0 29.5 1t21.5 1q2 0 4 -7&#xA;q34 -153 63 -269l56 -231q8 -30 12 -60l3 -21q2 12 15 72q16 64 55 221q8 32 68 292q1 3 3 3q1 0 25 -1t33 -1z"></glyph>
    <glyph glyph-name="X" unicode="X" horiz-adv-x="590" d="M27 684l27 -1t40 -1q12 0 31 1l19 1q3 0 7 -7q21 -37 66 -115l69 -113q3 -5 7 1q18 31 69 120q21 41 57 106q5 8 9 8l16.5 -1t29.5 -1t37 1l24 1q8 0 4 -6q-38 -59 -116 -182l-78 -130q-4 -7 0 -13q46 -58 114 -172q76 -128 110 -176q2 -6 -4 -6q-1 0 -26 1t-37 1&#xA;q-10 0 -30 -1t-22 -1q-4 0 -7 5q-24 45 -79 140q-34 54 -78 127q-3 6 -7 -1q-22 -40 -79 -140q-22 -43 -66 -123q-4 -8 -10 -8q-2 0 -19 1t-27 1q-15 0 -38.5 -1t-22.5 -1q-8 0 -4 7q41 62 127 202q36 61 85 145q5 8 2 12q-27 44 -96 154q-40 63 -106 159q-3 6 2 6z"></glyph>
    <glyph glyph-name="Y" unicode="Y" horiz-adv-x="524" d="M217 260q0 7 -1 9q-13 31 -97 198q-55 110 -112 211q-3 6 2 6l23.5 -1t36.5 -1q12 0 31 1l19 1q4 0 7 -7q26 -61 67 -151l72 -158q4 -8 7 1q16 35 62.5 139t71.5 168q3 8 9 8l15.5 -1t28.5 -1t34 1l21 1q7 0 4 -6q-69 -131 -115 -225q-57 -117 -85 -179q-2 -4 -4 -14&#xA;q-1 -26 -1 -95q0 -43 2 -103t2 -56q0 -7 -6 -7q-2 0 -20 1t-28 1t-25.5 -1t-17.5 -1q-6 0 -6 6q0 -5 2 61t2 110v53q-1 29 -1 31z"></glyph>
    <glyph glyph-name="Z" unicode="Z" horiz-adv-x="557" d="M370 587q8 13 -8 13l-306 -2q-5 0 -5 7q0 -4 1 12.5t1 29.5q0 12 -1 19t-1 9q0 9 8 9q-2 0 129 -2t212 -2q9 0 47.5 2t49.5 2q5 0 5 -6l4 -54q0 -5 -5 -13q-52 -74 -160 -240q-88 -135 -169 -269q-9 -15 4 -15q58 0 190 2t150 2q6 0 6 -6q0 -1 -1 -19t-1 -24q0 -10 1 -22&#xA;t1 -13q0 -10 -10 -10q-22 0 -155 2t-199 2q-23 0 -65.5 -1.5t-45.5 -1.5q-8 0 -9 10l-3 51q0 6 4 13q56 84 182 276q9 14 149 239z"></glyph>
    <glyph glyph-name="bracketleft" unicode="[" horiz-adv-x="287" d="M153 632v-767q0 -6 5 -6h78q6 0 6 -5v-57q0 -5 -6 -5h-156q-5 0 -5 6v897q0 6 4 6h159q4 0 4 -5v-53q0 -5 -4 -5h-81q-4 0 -4 -6z"></glyph>
    <glyph glyph-name="backslash" unicode="\" horiz-adv-x="408" d="M21 695q-1 6 1 6h17q18 -1 26 -1q6 0 21 1h16q5 0 6 -5q57 -207 124 -419q59 -178 156 -480q2 -5 -3 -5h-15q-16 1 -25 1q-8 0 -24 -1h-15q-4 0 -5 6q-42 141 -148 489q-93 296 -132 408z"></glyph>
    <glyph glyph-name="bracketright" unicode="]" horiz-adv-x="287" d="M134 632q0 6 -4 6h-81q-4 0 -4 5v53q0 5 4 5h159q4 0 4 -6v-897q0 -6 -5 -6h-156q-6 0 -6 5v57q0 5 6 5h78q5 0 5 6v767z"></glyph>
    <glyph glyph-name="asciicircum" unicode="^" horiz-adv-x="474" d="M94 209q-2 -5 -7 -5h-72q-4 0 -2 7l177 465q2 4 6 4h78q4 0 5 -4l172 -460q4 -12 -5 -12h-73q-4 0 -8 11l-129 360q-1 8 -4 15q-1 -5 -5 -15z"></glyph>
    <glyph glyph-name="underscore" unicode="_" d="M503 0q6 0 6 -5v-67q0 -6 -5 -6h-508q-5 0 -5 4v70q0 4 6 4h506z"></glyph>
    <glyph glyph-name="grave" unicode="`" horiz-adv-x="495" d="M232 552q-34 54 -105 157q-5 8 5 8h21q16 -1 25 -1q10 0 24 1h17q8 0 11 -7q47 -101 76 -156q5 -9 -4 -9q-3 0 -12 1h-15.5h-16.5q-10 -1 -14 -1q-8 0 -12 7z"></glyph>
    <glyph glyph-name="a" unicode="a" d="M327 240q0 9 -4 8q-5 -2 -120 -32q-74 -19 -74 -76q0 -35 24 -57q21 -19 48 -19q60 0 107 46q19 19 19 32v98zM415 306v-172q0 -64 32 -64q-4 0 14 4q6 1 6 -6q3 -23 13 -61q5 -20 -54 -20q-61 0 -83 57q-5 12 -7 12q-1 0 -18 -17q-55 -54 -131 -54q-70 0 -112 45&#xA;q-40 41 -40 102q0 58 38 95t110 53q42 9 115 26q26 7 26 19q0 42 -26 66t-70 24q-64 0 -115 -53q-7 -7 -11 -2q-13 18 -43 48q-4 4 1 10q29 33 77.5 52.5t97.5 19.5q76 0 122 -37q58 -47 58 -147z"></glyph>
    <glyph glyph-name="b" unicode="b" horiz-adv-x="556" d="M187 85q34 -26 89 -26q65 0 102.5 47t37.5 134q0 100 -47 146q-26 25 -68 25q-60 0 -118 -60q-7 -7 -8.5 -9.5t-1.5 -10.5q-1 -17 0 -67q2 -67 2 -118.5t12 -60.5zM78 60q0 1 1 123q2 144 2 184q0 190 -6 376q0 8 7 8q2 0 19.5 -1t24.5 -1q8 0 26.5 1t20.5 1q7 0 7 -8&#xA;q-6 -192 -6 -302q0 -7 3 -7t6 3q59 54 135 54q75 0 125 -50q68 -68 68 -183q0 -125 -63 -198q-65 -76 -181 -76q-44 0 -98 14q-64 17 -86 43q-5 5 -5 19z"></glyph>
    <glyph glyph-name="c" unicode="c" horiz-adv-x="440" d="M421 39q4 -6 -2 -10q-65 -44 -157 -44q-96 0 -155 65q-62 69 -62 189q0 121 75 189q67 62 169 62q77 0 132 -35q8 -5 3 -12q-16 -23 -37 -69q-3 -7 -12 2q-45 36 -98 36q-65 0 -100 -44t-35 -115q0 -85 38.5 -136t94.5 -51q51 0 100 36q6 6 10 -1q17 -37 36 -62z"></glyph>
    <glyph glyph-name="d" unicode="d" horiz-adv-x="564" d="M384 480q0 123 -7 263q0 8 7 8q2 0 19.5 -1t24.5 -1q8 0 27 1t21 1q7 0 7 -8l-2 -52q-2 -60 -3 -123q-2 -91 -2 -186v-217q0 -72 18 -156q2 -8 -7 -8q-54 -2 -81 -5q-4 0 -7 9q-9 23 -10 43q0 5 -3 5q-4 0 -7 -5q-60 -63 -142 -63q-77 0 -132 63q-60 69 -60 186&#xA;q0 118 69 190q65 66 159 66q60 0 101 -21q10 -5 10 11zM381 146q2 54 2 205q0 15 -6 22q-11 13 -38 24q-35 15 -71 15q-62 0 -97 -51q-32 -46 -32 -117q0 -82 32.5 -130t86.5 -48q58 0 104 51q19 16 19 29z"></glyph>
    <glyph glyph-name="e" unicode="e" horiz-adv-x="505" d="M461 225h-219h-61q-28 -1 -32 -1q-9 0 -9 -6q0 -62 38 -108.5t93 -46.5q65 0 133 64q9 8 12 0q10 -23 41 -54q8 -8 0 -15q-78 -73 -194 -73q-100 0 -159 66.5t-59 188.5q0 127 85 200q59 50 138 50q96 0 149 -66.5t53 -185.5q0 -14 -9 -13zM368 293q7 0 7 6q0 27 -21 63&#xA;q-32 56 -92 56q-57 0 -92 -55q-26 -40 -26 -65q0 -6 6 -6z"></glyph>
    <glyph glyph-name="f" unicode="f" horiz-adv-x="294" d="M15 403q0 1 1 14v22.5v21.5l-1 11q0 5 5 5l68 -2q6 0 6 6v64q0 110 52 167q45 49 119 49q62 0 108 -28q8 -5 5 -10q-6 -9 -32 -66q-3 -6 -9 -2q-44 28 -79 28q-38 0 -56 -33q-14 -26 -14 -121v-49q0 -5 6 -5l92 2q4 0 4 -5v-12q-1 -12 -1 -21t1 -22v-13q0 -5 -5 -5l-93 2&#xA;q-4 0 -4 -4v-84q0 -103 1 -182q1 -57 3 -97q1 -36 1 -30q0 -5 -4 -5q-1 0 -21 1t-28 1t-26.5 -1l-18.5 -1q-5 0 -5 5q0 -4 1 35q2 45 3 101q1 80 1 173v82q0 6 -6 6l-69 -2q-5 0 -5 4z"></glyph>
    <glyph glyph-name="g" unicode="g" horiz-adv-x="509" d="M243 418q-43 0 -71 -28.5t-28 -71.5q0 -48 30 -77t74 -29q46 0 73 29t27 72q0 51 -30.5 78t-74.5 27zM199 -25q-10 1 -13 -1q-74 -34 -74 -83q0 -83 149 -83q65 0 104 23t39 58q0 36 -30 54.5t-102 25.5q-31 2 -73 6zM426 400q-8 -5 -2 -12q13 -39 13 -70&#xA;q0 -80 -58.5 -130.5t-139.5 -50.5q-10 0 -18 1t-10 1q-26 0 -45 -15t-19 -30q0 -33 86 -41q47 -4 131 -16q135 -29 135 -137q0 -75 -60 -118q-66 -48 -191 -48q-122 0 -182 50q-46 38 -46 93q0 63 93 112q4 1 5 3q1 3 -3 4q-57 22 -57 74q0 54 72 91q9 5 1 9q-76 48 -76 143&#xA;q0 74 56.5 125.5t143.5 51.5q70 0 114 -35q9 -7 14 -2q40 36 86 36q17 0 17 -9q0 9 3 -66q0 -8 -7 -8q-38 5 -56 -6z"></glyph>
    <glyph glyph-name="h" unicode="h" horiz-adv-x="555" d="M82 367q0 82 -2 178q-1 68 -3 140q-2 62 -2 60q0 6 7 6q1 0 19 -1t26 -1t26.5 1t19.5 1q7 0 7 -6q0 2 -2 -45q-1 -56 -2 -113q-2 -82 -2 -164q0 -6 2 -6t8 6q67 67 156 67q55 0 90 -31q45 -39 45 -117v-117q0 -71 1 -128q1 -40 3 -70q1 -26 1 -23q0 -5 -5 -5l-18 1t-26 1&#xA;t-28.5 -1l-20.5 -1q-5 0 -5 5q0 -2 1.5 24.5t2.5 65.5q1 56 1 128v103q0 86 -70 86q-60 0 -124 -72q-13 -15 -13 -32v-104q0 -54 1 -105q1 -36 3 -69q1 -28 1 -26q0 -4 -4 -4l-18.5 1t-26.5 1q-9 0 -29.5 -1l-20.5 -1q-4 0 -4 4q0 -3 1 31q2 40 3 86q1 66 1 142v105z"></glyph>
    <glyph glyph-name="i" unicode="i" horiz-adv-x="253" d="M178 471q0 8 -2.5 -64t-2.5 -134v-75q0 -57 2.5 -130.5t2.5 -63.5q0 -5 -5 -5q-1 0 -19.5 1t-26.5 1t-27 -1t-20 -1q-5 0 -5 6q0 -10 2.5 62.5t2.5 132.5v72q0 66 -2.5 137t-2.5 61q0 6 6 6q2 0 20 -1t25 -1q8 0 26.5 1t19.5 1q6 0 6 -5zM178 684v-17q-1 -16 -1 -26&#xA;t1 -30v-21q0 -6 -6 -6q-2 0 -20 1h-27h-26q-16 -1 -17 -1q-7 0 -7 7q0 4 1 20v27v27q-1 17 -1 18q0 6 6 6h18q17 -1 26 -1t27 1h19q7 0 7 -5z"></glyph>
    <glyph glyph-name="j" unicode="j" horiz-adv-x="249" d="M-71 -240q-8 3 -6 8q12 35 18 70q1 8 9 5q28 -13 58 -13q71 0 71 128v95q0 150 -2 256q-1 76 -2 124q-2 42 -2 35q0 8 7 8q2 0 18.5 -1t23.5 -1q8 0 25.5 1t19.5 1q7 0 7 -8q0 12 -3 -67t-3 -161v-85l1 -189q1 -217 -158 -217q-57 0 -82 11zM174 685v-17q-1 -16 -1 -26&#xA;t1 -30v-21q0 -6 -6 -6q-2 0 -20 1h-27h-25q-16 -1 -18 -1q-7 0 -7 7q0 2 1 19v27.5v27.5q-1 17 -1 18q0 6 6 6h18q17 -1 26 -1t27 1h19q7 0 7 -5z"></glyph>
    <glyph glyph-name="k" unicode="k" horiz-adv-x="501" d="M477 468q-41 -42 -117 -122q-49 -52 -70 -75q-7 -8 -1 -15l45 -54l160 -194q7 -8 -5 -8q-3 0 -29 1h-36q-10 0 -28 -1.5t-20 -1.5q-3 0 -10 8q-22 33 -151 201l-34 43q-7 9 -7 -3v-12q0 -75 1 -133q1 -42 3 -73q1 -27 1 -25q0 -5 -5 -5t-22 1t-24 1q-8 0 -26 -1t-22 -1&#xA;q-5 0 -5 6q0 -16 2.5 108.5t2.5 214.5v63q0 113 -1 204q-1 64 -3 112q-1 43 -1 38q0 6 6 6q2 0 20.5 -1t25.5 -1q8 0 26.5 1t21.5 1q5 0 5 -5q0 4 -2 -50q-1 -62 -2 -136q-2 -105 -2 -223v-61q0 -11 6 -4l37 41q59 69 133 155q6 7 12 7h22q18 -1 25 -1q12 0 35 1h27&#xA;q12 0 6 -7z"></glyph>
    <glyph glyph-name="l" unicode="l" horiz-adv-x="257" d="M182 745q0 4 -2 -50q-2 -63 -3 -132q-2 -98 -2 -200v-50q0 -95 1 -173q1 -56 3 -101q1 -38 1 -35q0 -5 -5 -5l-18 1t-28 1q-11 0 -30.5 -1t-18.5 -1q-4 0 -4 5q0 -4 1 35q2 46 3 103q1 81 1 176v49q0 82 -2 178q-1 67 -2 140q-2 63 -2 61q0 5 5 5q1 0 20.5 -1t27.5 -1&#xA;t28 1t21 1q5 0 5 -6z"></glyph>
    <glyph glyph-name="m" unicode="m" horiz-adv-x="839" d="M458 416q4 -10 5 -10t12 11q75 73 155 73q54 0 88 -30q42 -38 42 -117v-86q0 -86 1 -150q1 -44 2 -76q1 -28 1 -26q0 -6 -4 -6l-17.5 1t-25.5 1t-28.5 -1l-20.5 -1q-4 0 -4 6q0 -2 1 27q1 33 2 77q1 64 1 148v71q0 82 -66 82q-27 0 -63 -22q-31 -20 -53 -45&#xA;q-16 -18 -16 -29v-90q0 -71 1 -127q1 -39 2 -69q1 -25 1 -22q0 -7 -5 -7l-17.5 1t-25.5 1t-27.5 -1l-19.5 -1q-5 0 -5 6q0 -4 1 22q1 30 2 74q1 63 1 146v81q0 82 -64 82q-58 0 -121 -72q-13 -15 -13 -26v-130q0 -73 2 -131t2 -46q0 -6 -4 -6l-18 1t-26 1q-9 0 -28.5 -1&#xA;l-19.5 -1q-4 0 -4 6q0 -2 1 22q1 29 2 67q1 55 1 127v58q0 77 -9 136t-9 49q0 7 7 7q32 0 83 6q6 0 7.5 -8t7.5 -51q0 -6 3 -6q2 0 9 7q71 71 152 71q88 0 119 -74z"></glyph>
    <glyph glyph-name="n" unicode="n" horiz-adv-x="559" d="M185 418q74 72 160 72q57 0 92 -32q43 -40 43 -119v-114q0 -71 1 -128q1 -40 2 -70q1 -26 1 -23q0 -5 -5 -5l-17.5 1t-25.5 1t-28 -1l-20 -1q-5 0 -5 5q0 -2 1 24.5t2 65.5q1 56 1 128v101q0 88 -67 88q-58 0 -127 -72q-13 -14 -13 -30v-106q0 -54 1 -105q1 -36 2 -69&#xA;q1 -28 1 -26q0 -4 -4 -4l-18 1t-26 1q-9 0 -29 -1l-20 -1q-4 0 -4 4q0 -11 2 59.5t2 137.5v42q0 99 -8.5 167t-8.5 58q0 4 7 4q36 2 83 7q5 0 7 -9q4 -18 8 -51q0 -5 3 -5q2 0 7 5z"></glyph>
    <glyph glyph-name="o" unicode="o" horiz-adv-x="558" d="M288 490q93 0 156 -60q69 -68 69 -187q0 -109 -62 -181q-66 -77 -178 -77q-97 0 -161 66q-67 69 -67 183q0 116 70 187q67 69 173 69zM278 414q-64 0 -100 -49.5t-36 -122.5q0 -83 40 -132t99 -49q55 0 95 45.5t40 121.5t-33 128q-38 58 -105 58z"></glyph>
    <glyph glyph-name="p" unicode="p" horiz-adv-x="564" d="M182 5q0 -73 1 -136q1 -44 2 -83q1 -32 1 -31q0 -6 -5 -6q-1 0 -17.5 1.5t-27.5 1.5t-30 -1.5t-18 -1.5q-5 0 -5 6q0 -9 1 36q2 51 3 132q1 114 1 273v97q0 100 -18 170q-1 8 7 8q32 1 83 7q6 0 8 -8t8 -51q0 -5 3 -5q4 0 7 5q68 72 147 72q74 0 122 -52q63 -68 64 -168&#xA;q2 -134 -54 -206q-61 -79 -165 -79q-62 0 -108 30q-10 7 -10 -11zM182 138q0 -17 6 -24q43 -53 115 -53q62 0 93 53q28 48 28 139q0 67 -30.5 113.5t-80.5 46.5q-54 0 -112 -65q-19 -17 -19 -34v-176z"></glyph>
    <glyph glyph-name="q" unicode="q" horiz-adv-x="557" d="M385 363q0 9 -12 21q-37 30 -106 30q-58 0 -92 -48t-34 -119q0 -77 27 -126q31 -55 87 -55q72 0 112 49q18 22 18 44v204zM477 107q0 -82 1 -172q1 -63 3 -127q1 -56 1 -53q0 -6 -6 -6q-1 0 -19.5 1.5t-26.5 1.5t-26 -1.5t-19 -1.5q-6 0 -6 5q0 -10 2 82q2 99 3 194&#xA;q0 7 -3 7q-2 0 -5 -3q-49 -49 -135 -49q-73 0 -126 52q-70 68 -70 199q0 123 71 192q63 62 160 62q63 0 113 -24q8 -4 18 -4q7 0 24 6q41 14 48 14q3 0 3 -4q-2 -32 -4 -167z"></glyph>
    <glyph glyph-name="r" unicode="r" horiz-adv-x="350" d="M369 467q-26 -60 -31 -75q-3 -9 -10 -3q-14 13 -32 13q-45 0 -99 -82q-17 -26 -17 -49v-89q0 -73 2.5 -132t2.5 -47q0 -4 -5 -4q-2 0 -18 1t-26 1q-9 0 -28 -1t-21 -1q-4 0 -4 4q0 -12 2 43.5t2 124.5v131q0 54 -8.5 112t-8.5 51q0 5 7 5q45 2 83 9q6 1 7 -9&#xA;q7 -29 11 -68q0 -5 2 -5q4 0 7 5q32 46 51 62q30 26 72 26q27 0 56 -14q6 -3 3 -9z"></glyph>
    <glyph glyph-name="s" unicode="s" horiz-adv-x="423" d="M258 272q68 -27 93 -54q31 -34 31 -79q0 -74 -56 -116q-50 -38 -127 -38q-94 0 -159 38q-2 1 0 6q22 48 31 74q1 2 6 -1q58 -41 126 -41q39 0 62.5 18t23.5 44q0 30 -22 49q-17 15 -65 33l-42 16q-113 43 -113 131q0 54 38 92q47 47 135 47q85 0 138 -32q4 -2 1 -7&#xA;q-2 -4 -30 -71q-2 -5 -7 -1q-51 36 -111 36q-39 0 -55.5 -17.5t-16.5 -36.5q0 -27 20 -44q17 -14 58 -30z"></glyph>
    <glyph glyph-name="t" unicode="t" horiz-adv-x="320" d="M303 4q2 -5 -9 -9q-29 -11 -80 -11q-58 0 -92 35q-41 42 -40 137l2 237q-1 3 -6 6l-66 -1q-5 0 -5 5q0 1 1 12v20v22q-1 14 -1 15q0 4 6 4l65 -2q6 0 6 6v10q0 22 -3 78t-3 54q0 4 7 6q18 4 49 11q51 12 43 12q5 0 5 -7q0 2 -2.5 -64t-2.5 -89v-10q0 -7 7 -7l108 2&#xA;q7 0 7 -5l-1 -12.5t-1 -22.5t1 -22l1 -12q0 -5 -5 -5l-112 2q-6 0 -6 -5l-1 -232q0 -59 15.5 -76t38.5 -17q15 0 52 10q4 1 6 -6q5 -31 16 -69z"></glyph>
    <glyph glyph-name="u" unicode="u" horiz-adv-x="559" d="M374 60q-71 -75 -158 -75q-57 0 -94 35q-43 41 -43 116v168q0 55 -2 112t-2 52q0 7 5 7t20.5 -1t22.5 -1t24.5 1t23.5 1q5 0 5 -6q0 2 -2 -57.5t-2 -103.5v-147q0 -93 69 -93q63 0 120 65q18 20 18 42v136q0 69 -2 116.5t-2 40.5q0 7 4 7q5 0 21 -1t23 -1q8 0 26 1t24 1&#xA;q4 0 4 -6q0 11 -2.5 -45t-2.5 -137v-98q0 -78 8.5 -135.5t8.5 -45.5q0 -6 -7 -6q-38 0 -81 -5q-6 0 -8 9t-9 54q0 5 -3 5q-4 0 -7 -5z"></glyph>
    <glyph glyph-name="v" unicode="v" horiz-adv-x="484" d="M91 269q-27 65 -79 193q-5 13 5 13q1 0 21 -1t30 -1q13 0 32 1l19 1q5 0 8 -11q10 -36 49 -149q15 -44 40 -120q9 -26 19 -62q7 -25 8 -25q6 0 32 82q38 115 39 118q25 67 57 162q1 5 7 5q2 0 17 -1t25 -1t29 1t22 1q4 0 2 -7q-27 -64 -85 -208q-74 -190 -97 -257&#xA;q-1 -4 -6 -4h-20q-18 1 -28 1q-11 0 -27 -1h-15q-4 0 -5 4q-32 90 -99 266z"></glyph>
    <glyph glyph-name="w" unicode="w" horiz-adv-x="737" d="M470 9q-14 60 -44 150q-45 136 -49 148q-18 58 -16 58t-16 -61q-8 -26 -41 -135q-17 -64 -43 -156q-4 -14 -8 -14h-17q-14 1 -23 1q-10 0 -29 -1h-22q-5 0 -7 7l-70 236l-70 227q-2 6 4 6h24q21 -1 29 -1t23 1h17q7 0 9 -7q11 -43 38 -150q16 -65 41 -159q4 -15 8 -40&#xA;q3 -18 4 -18q2 0 5 16q4 23 8 37q6 21 42 138q24 78 51 176q2 7 7 7h15q14 -1 23 -1t28 1h22q6 0 8 -8q7 -33 45 -157l48 -157q6 -18 9 -39q3 -15 4 -15t4 14q3 21 8 38q12 44 43 153q38 136 43 166q1 5 5 5h19q15 -1 24 -1t27 1h20q4 0 0 -11q-18 -50 -75 -236l-67 -219&#xA;q-3 -10 -7 -10h-21q-16 1 -23 1q-9 0 -29 -1h-21q-5 0 -7 10z"></glyph>
    <glyph glyph-name="x" unicode="x" horiz-adv-x="476" d="M235 323q3 -5 6 0q37 58 91 149q2 3 5 3l17.5 -1t29.5 -1q15 0 35 1t19 1q4 0 2 -3q-23 -31 -153 -223q-2 -4 1 -7q73 -104 172 -239q3 -4 -1 -4q1 0 -24 1t-38 1t-29.5 -1t-18.5 -1q-4 0 -6 3q-31 52 -108 169q-3 5 -6 0q-39 -63 -107 -170q-2 -2 -4 -2q-1 0 -17.5 1&#xA;t-29.5 1q-12 0 -32 -1t-21 -1q-5 0 -1 6q19 27 164 237q2 3 0 6q-107 154 -158 220q-5 7 1 7q3 0 25.5 -1t36.5 -1q12 0 28.5 1t17.5 1q5 0 6 -3q24 -38 97 -149z"></glyph>
    <glyph glyph-name="y" unicode="y" horiz-adv-x="458" d="M24 -236q4 11 18 73q1 5 6 2q29 -11 37 -11q48 0 78 87l33 95q1 5 0 6q-24 58 -85 205q-43 97 -110 249q-3 6 5 6q4 0 26.5 -1.5t33.5 -1.5q10 0 26.5 1.5t18.5 1.5q5 0 7 -5q30 -94 54 -158q32 -84 68 -173q3 -8 6 0q81 225 110 331q1 5 8 5q1 0 19 -1.5t27 -1.5&#xA;q10 0 27.5 1.5t16.5 1.5q6 0 4 -5q-48 -121 -134 -351q-29 -78 -81 -225q-28 -79 -62 -111q-37 -35 -89 -35q-35 0 -65 10q-4 2 -3 5z"></glyph>
    <glyph glyph-name="z" unicode="z" horiz-adv-x="458" d="M401 413q-89 -115 -228 -321q-8 -12 3 -12q194 0 237 4q6 0 6 -7v-14q-1 -14 -1 -25q0 -7 1 -18v-13q0 -7 -8 -7q-17 0 -131.5 1t-166.5 1q-18 0 -39 -1t-23 -1q-7 0 -7 7l-5 43q0 5 3 9q39 50 123 164q53 73 116 171q1 5 -9 5q-98 0 -162 -2t-52 -2q-4 0 -4 5l1 13v21.5&#xA;v20.5q-1 13 -1 14q0 6 6 6q8 0 127 -1t134 -1q7 0 36 1t38 1q4 0 4 -4l6 -49q0 -4 -4 -9z"></glyph>
    <glyph glyph-name="braceleft" unicode="{" horiz-adv-x="325" d="M275 -210q-173 0 -167 170l5 140q4 115 -85 124q-8 1 -8 5v58q0 4 8 5q39 3 63 34.5t22 79.5l-5 126q-7 170 165 170q6 0 6 -6v-52q0 -6 -6 -6q-86 0 -83 -94l5 -140q4 -100 -76 -142q35 -17 56 -55q22 -41 20 -95l-5 -139q-2 -60 24 -90q23 -26 61 -26q5 0 5 -4v-59&#xA;q0 -4 -5 -4z"></glyph>
    <glyph glyph-name="bar" unicode="|" horiz-adv-x="248" d="M163 -245q0 -6 -5 -6h-67q-6 0 -6 5v993q0 5 4 5h70q4 0 4 -6v-991z"></glyph>
    <glyph glyph-name="braceright" unicode="}" horiz-adv-x="325" d="M130 120q-3 101 76 142q-35 17 -56.5 56.5t-19.5 93.5l5 110q3 59 -24 90q-23 26 -61 26q-5 0 -5 4v56q0 4 5 4q175 0 167 -170l-5 -108q-5 -115 85 -124q8 -1 8 -5v-58q0 -4 -8 -5q-39 -3 -63 -34.5t-22 -79.5l5 -158q5 -170 -165 -170q-6 0 -6 6v54q0 6 6 6q86 0 83 94&#xA;z"></glyph>
    <glyph glyph-name="asciitilde" unicode="~" d="M237 223q-45 22 -85 22q-42 0 -86 -33q-4 -4 -7 2q-15 29 -29 49q-5 5 1 8q65 48 132 48q56 0 107 -27q42 -22 80 -22q40 0 84 33q4 4 7 -2q15 -29 29 -49q4 -4 -1 -8q-65 -48 -128 -48q-49 0 -104 27z"></glyph>
    <glyph glyph-name="Euro" horiz-adv-x="621" d="M104 395h-49q-32 -1 -36 -1q-5 0 -4 4q4 23 9 62q0 3 3 3h36q30 -1 50 -1h4q28 115 113 179q79 59 182 59q92 0 170 -44q5 -3 3 -7q-14 -25 -39 -75q-3 -6 -6 -3q-66 47 -145 47q-61 0 -109 -38q-53 -42 -74 -118q91 2 281 2q5 0 4 -5q-7 -35 -11 -61q0 -4 -4 -4&#xA;q10 0 -100 1h-182q-2 -10 -2 -40q0 -21 3 -41q64 0 173 1t98 1q5 0 4 -5q-6 -33 -10 -61q0 -4 -4 -4q1 0 -32 0q-40 1 -84 1h-136q44 -177 196 -177q63 0 133 37q7 4 9 -2q17 -44 32 -71q2 -3 -1 -6q-74 -43 -179 -43q-110 0 -186 66q-80 69 -103 196h-55q-33 -1 -37 -1&#xA;q-5 0 -4 4q4 23 9 62q0 3 3 3h32q27 -1 45 -1q-2 20 -2 41q0 18 2 40z"></glyph>
    <glyph glyph-name="Euro" unicode="€" horiz-adv-x="621" d="M104 395h-49q-32 -1 -36 -1q-5 0 -4 4q4 23 9 62q0 3 3 3h36q30 -1 50 -1h4q28 115 113 179q79 59 182 59q92 0 170 -44q5 -3 3 -7q-14 -25 -39 -75q-3 -6 -6 -3q-66 47 -145 47q-61 0 -109 -38q-53 -42 -74 -118q91 2 281 2q5 0 4 -5q-7 -35 -11 -61q0 -4 -4 -4&#xA;q10 0 -100 1h-182q-2 -10 -2 -40q0 -21 3 -41q64 0 173 1t98 1q5 0 4 -5q-6 -33 -10 -61q0 -4 -4 -4q1 0 -32 0q-40 1 -84 1h-136q44 -177 196 -177q63 0 133 37q7 4 9 -2q17 -44 32 -71q2 -3 -1 -6q-74 -43 -179 -43q-110 0 -186 66q-80 69 -103 196h-55q-33 -1 -37 -1&#xA;q-5 0 -4 4q4 23 9 62q0 3 3 3h32q27 -1 45 -1q-2 20 -2 41q0 18 2 40z"></glyph>
    <glyph glyph-name="Euro" unicode="€" horiz-adv-x="621" d="M104 395h-49q-32 -1 -36 -1q-5 0 -4 4q4 23 9 62q0 3 3 3h36q30 -1 50 -1h4q28 115 113 179q79 59 182 59q92 0 170 -44q5 -3 3 -7q-14 -25 -39 -75q-3 -6 -6 -3q-66 47 -145 47q-61 0 -109 -38q-53 -42 -74 -118q91 2 281 2q5 0 4 -5q-7 -35 -11 -61q0 -4 -4 -4&#xA;q10 0 -100 1h-182q-2 -10 -2 -40q0 -21 3 -41q64 0 173 1t98 1q5 0 4 -5q-6 -33 -10 -61q0 -4 -4 -4q1 0 -32 0q-40 1 -84 1h-136q44 -177 196 -177q63 0 133 37q7 4 9 -2q17 -44 32 -71q2 -3 -1 -6q-74 -43 -179 -43q-110 0 -186 66q-80 69 -103 196h-55q-33 -1 -37 -1&#xA;q-5 0 -4 4q4 23 9 62q0 3 3 3h32q27 -1 45 -1q-2 20 -2 41q0 18 2 40z"></glyph>
    <glyph glyph-name="quotesinglbase" unicode="‚" horiz-adv-x="422" d="M124 -138q-6 -8 -11 -4q-22 17 -36 24q-7 3 -3 9q34 54 34 103q0 6 -7 6h-34q-7 0 -7 12q0 1 1 17v28.5v30.5q-1 18 -1 19q0 7 12 7h15q15 -1 26 -1t31 1h24q6 0 6 -10q0 1 1 -35v-50q0 -82 -51 -157z"></glyph>
    <glyph glyph-name="florin" unicode="ƒ" horiz-adv-x="319" d="M77 -31q9 59 51 427q0 4 -4 4h-57q-41 -1 -45 -1q-5 0 -4 4q6 31 9 69q0 3 3 3h44q38 -1 58 -1q5 0 5 3l5 34q17 117 82 186q61 65 154 65q54 0 95 -18q3 -2 2 -6q-8 -21 -15 -41q-12 -32 -17 -29q-28 18 -74 18q-52 0 -84 -39q-45 -54 -56 -146l-3 -24q0 -3 4 -3&#xA;q25 0 69 1q44 0 41 0q5 0 4 -5q-4 -20 -9 -67q0 -4 -4 -4q1 0 -40 1h-70q-4 0 -5 -5q-4 -29 -48 -412q-17 -152 -96 -210q-52 -39 -122 -39q-46 0 -93 21q-3 2 -2 6q8 22 15 44q12 33 17 30q33 -21 72 -21q53 0 82 41q24 34 36 114z"></glyph>
    <glyph glyph-name="quotedblbase" unicode="„" horiz-adv-x="413" d="M119 -138q-6 -8 -11 -4q-22 17 -36 24q-7 3 -3 9q34 54 34 103q0 6 -7 6h-34q-7 0 -7 12q0 1 1 17v28.5v30.5q-1 18 -1 19q0 7 12 7h15q15 -1 26 -1t31 1h24q6 0 6 -10q0 1 1 -35v-50q0 -82 -51 -157zM307 -138q-6 -8 -11 -4q-22 17 -36 24q-7 3 -3 9q34 54 34 103&#xA;q0 6 -7 6h-34q-7 0 -7 12q0 1 1 17v28.5v30.5q-1 18 -1 19q0 7 12 7h15q15 -1 26 -1t31 1h24q6 0 6 -10q0 1 1 -35v-50q0 -82 -51 -157z"></glyph>
    <glyph glyph-name="ellipsis" unicode="…" horiz-adv-x="727" d="M190 114v-23q-1 -18 -1 -29q0 -12 1 -33v-26t-5 -4h-23q-21 1 -32 1t-28 -1h-19q-8 0 -8 4q0 3 1 22v31.5v33.5q-1 21 -1 26q0 4 9 4h17q18 -1 29 -1q10 0 29 1h26q5 0 5 -6zM424 114v-23q-1 -18 -1 -29q0 -12 1 -33v-26t-5 -4h-23q-21 1 -32 1t-28 -1h-19q-8 0 -8 4&#xA;q0 3 1 22v31.5v33.5q-1 21 -1 26q0 4 9 4h17q18 -1 29 -1q10 0 29 1h26q5 0 5 -6zM652 114v-23q-1 -18 -1 -29q0 -12 1 -33v-26t-5 -4h-23q-21 1 -32 1t-28 -1h-19q-8 0 -8 4q0 3 1 22v31.5v33.5q-1 21 -1 26q0 4 9 4h17q18 -1 29 -1q10 0 29 1h26q5 0 5 -6z"></glyph>
    <glyph glyph-name="dagger" unicode="†" horiz-adv-x="556" d="M322 -189q0 -5 -5 -5h-15q-15 1 -24 1t-24 -1h-16q-4 0 -4 6q7 284 7 584q0 10 -10 10l-150 -4q-6 0 -6 5q0 1 1 14v20v20q-1 12 -1 13q0 4 5 4l154 -3q4 1 7 7l-4 197q0 5 3 5h13q14 -1 22 -1q10 0 26 1h16q4 0 4 -6l-5 -195q0 -4 1 -6t6 -2l151 3q7 0 7 -3v-12&#xA;q-1 -12 -1 -19t1 -22v-16q0 -4 -7 -4l-149 4q-9 0 -9 -9q0 -400 6 -586z"></glyph>
    <glyph glyph-name="daggerdbl" unicode="‡" horiz-adv-x="558" d="M318 140q0 -10 10 -10l149 4q6 0 6 -5v-14q-1 -13 -1 -20t1 -19v-13q0 -4 -5 -4l-152 3q-4 -1 -7 -7l4 -245q0 -5 -3 -5q1 0 -13 0q-14 1 -23 1q-10 0 -26 -1h-16q-4 0 -4 6l5 243q0 4 -1 6t-6 2l-153 -4q-7 0 -7 3q0 1 1 13v19.5v20.5q-1 14 -1 15q0 4 7 4l151 -3&#xA;q9 0 9 9v254q0 10 -10 10l-152 -2q-6 0 -6 5q0 1 1 14v20v19q-1 12 -1 13q0 4 5 4l156 -4q4 0 5.5 1.5t1.5 5.5l-5 200q0 5 3 5h14q14 -1 22 -1q10 0 26 1h16q4 0 4 -6l-4 -198q0 -4 1 -6t6 -2l149 4q7 0 7 -3v-13q-1 -12 -1 -19t1 -21v-15q0 -4 -7 -4l-148 2q-9 0 -9 -9&#xA;v-254z"></glyph>
    <glyph glyph-name="circumflex" unicode="ˆ" horiz-adv-x="495" d="M247 642q-2 0 -18 -18l-64 -72q-6 -7 -12 -7q-4 0 -13 1h-15.5h-14.5q-9 -1 -12 -1q-11 0 -4 9q50 64 113 156q5 7 11 7h9q9 -1 26 -1q13 0 22 1h10q6 0 11 -7q34 -49 114 -156q7 -9 -4 -9q-3 0 -12 1h-15.5h-17.5q-11 -1 -15 -1q-6 0 -12 7q-20 21 -63 67q-21 23 -24 23&#xA;z"></glyph>
    <glyph glyph-name="perthousand" unicode="‰" horiz-adv-x="1252" d="M210 326q-73 0 -119 46.5t-46 118.5t48.5 120t121.5 48t119.5 -46t46.5 -117q0 -72 -49 -121t-122 -49zM210 593q-35 0 -61.5 -27.5t-26.5 -68.5q0 -44 28 -73.5t65 -29.5q36 0 62.5 28t26.5 70q0 44 -28 72.5t-66 28.5zM648 -10q-73 0 -119 46.5t-46 118.5t48.5 120&#xA;t121.5 48t119.5 -46t46.5 -117q0 -72 -49 -121t-122 -49zM648 257q-35 0 -61.5 -27.5t-26.5 -68.5q0 -44 28 -73.5t65 -29.5q36 0 62.5 28t26.5 70q0 44 -28 72.5t-66 28.5zM1036 -10q-73 0 -119 46.5t-46 118.5t48.5 120t121.5 48t119.5 -46t46.5 -117q0 -72 -49 -121&#xA;t-122 -49zM1036 257q-35 0 -61.5 -27.5t-26.5 -68.5q0 -44 28 -73.5t65 -29.5q36 0 62.5 28t26.5 70q0 44 -28 72.5t-66 28.5zM277 -11q-3 -5 -6 -2l-50 30q-6 3 -4 6l368 637q1 3 4 1l54 -32q2 -1 1 -4z"></glyph>
    <glyph glyph-name="Scaron" unicode="Š" horiz-adv-x="524" d="M321 381q86 -39 127 -89q36 -45 36 -105q0 -96 -70.5 -149t-168.5 -53q-104 0 -203 57q-5 3 -1 9q1 2 35 79q4 8 9 3q83 -63 175 -63q57 0 91 33q31 30 31 71t-27 72q-24 28 -93 58l-48 21q-84 37 -122 80q-43 48 -43 116q0 88 79 141q58 39 140 39q92 0 174 -45&#xA;q6 -3 0 -13q-10 -16 -34 -71q-2 -6 -8 -2q-66 49 -140 49q-47 0 -75 -21q-35 -26 -35 -69q0 -72 115 -123zM275 803q2 0 18 17l64 69q8 6 12 6h13q10 -1 16 -1q5 0 14 1h12q11 0 4 -8q-54 -66 -113 -148q-5 -7 -11 -7l-9 1h-26h-22q-9 -1 -10 -1q-6 0 -11 7q-30 41 -114 148&#xA;q-6 8 4 8h12q10 -1 15 -1q6 0 18 1h15t12 -6l30 -30t33 -34q21 -22 24 -22z"></glyph>
    <glyph glyph-name="guilsinglleft" unicode="‹" horiz-adv-x="329" d="M147 259l105 -147q2 -4 0 -6l-38 -28q-4 -3 -7 1l-148 179q-4 4 -4 6t4 6l148 181q3 4 7 1l38 -28q3 -3 1 -5l-106 -150q-4 -5 0 -10z"></glyph>
    <glyph glyph-name="OE" unicode="Œ" horiz-adv-x="889" d="M437 -7q-36 -6 -68 -6q-135 0 -221 90q-93 98 -93 267q0 171 102 269q90 85 222 85q31 0 65 -6q17 -4 34 -6.5t103 -2.5q84 0 147 1q44 0 75 1q26 1 23 1q6 0 6 -5v-13q-1 -11 -1 -23t1 -28q0 -15 0 -14q0 -3 -5 -3q-6 0 -80 2t-87 2q-56 0 -90 -1q-7 0 -7 -10l-1 -94&#xA;q0 -34 1 -97q0 -5 6 -5q61 -1 99 -1q18 0 72.5 2.5t55.5 2.5q5 0 5 -6v-16q-1 -16 -1 -24t1 -23v-15q0 -5 -3 -5q6 0 -50 2t-92 2q-26 0 -89 -1q-4 0 -4 -7q-1 -54 -1 -114q0 -32 1 -106q0 -5 5 -5q22 -1 92 -1q46 0 114.5 2.5t65.5 2.5q4 0 4 -5q0 1 0 -13q-1 -14 -1 -26&#xA;q0 -10 1 -25v-16q0 -4 -4 -4q12 0 -83.5 2t-164.5 2q-106 0 -122 -2.5t-33 -6.5zM469 91q0 22 2 109t2 152q0 63 -2 143t-2 99q0 10 -8 13q-42 14 -88 14q-83 0 -144 -63q-71 -73 -71 -201q0 -133 60 -210t159 -77q52 0 82 11q10 4 10 10z"></glyph>
    <glyph glyph-name="Zcaron" horiz-adv-x="557" d="M370 587q8 13 -8 13l-306 -2q-5 0 -5 7q0 -4 1 12.5t1 29.5q0 12 -1 19t-1 9q0 9 8 9q-2 0 129 -2t212 -2q9 0 47.5 2t49.5 2q5 0 5 -6l4 -54q0 -5 -5 -13q-52 -74 -160 -240q-88 -135 -169 -269q-9 -15 4 -15q58 0 190 2t150 2q6 0 6 -6q0 -1 -1 -19t-1 -24q0 -10 1 -22&#xA;t1 -13q0 -10 -10 -10q-22 0 -155 2t-199 2q-23 0 -65.5 -1.5t-45.5 -1.5q-8 0 -9 10l-3 51q0 6 4 13q56 84 182 276q9 14 149 239zM283 803q2 0 18 17l64 69q8 6 12 6h13q10 -1 16 -1q5 0 14 1h12q11 0 4 -8q-54 -66 -113 -148q-5 -7 -11 -7l-9 1h-26h-22q-9 -1 -10 -1&#xA;q-6 0 -11 7q-30 41 -114 148q-6 8 4 8h12q10 -1 15 -1q6 0 18 1h15t12 -6l30 -30t33 -34q21 -22 24 -22z"></glyph>
    <glyph glyph-name="Zcaron" unicode="Ž" horiz-adv-x="557" d="M370 587q8 13 -8 13l-306 -2q-5 0 -5 7q0 -4 1 12.5t1 29.5q0 12 -1 19t-1 9q0 9 8 9q-2 0 129 -2t212 -2q9 0 47.5 2t49.5 2q5 0 5 -6l4 -54q0 -5 -5 -13q-52 -74 -160 -240q-88 -135 -169 -269q-9 -15 4 -15q58 0 190 2t150 2q6 0 6 -6q0 -1 -1 -19t-1 -24q0 -10 1 -22&#xA;t1 -13q0 -10 -10 -10q-22 0 -155 2t-199 2q-23 0 -65.5 -1.5t-45.5 -1.5q-8 0 -9 10l-3 51q0 6 4 13q56 84 182 276q9 14 149 239zM283 803q2 0 18 17l64 69q8 6 12 6h13q10 -1 16 -1q5 0 14 1h12q11 0 4 -8q-54 -66 -113 -148q-5 -7 -11 -7l-9 1h-26h-22q-9 -1 -10 -1&#xA;q-6 0 -11 7q-30 41 -114 148q-6 8 4 8h12q10 -1 15 -1q6 0 18 1h15t12 -6l30 -30t33 -34q21 -22 24 -22z"></glyph>
    <glyph glyph-name="Zcaron" unicode="Ž" horiz-adv-x="557" d="M370 587q8 13 -8 13l-306 -2q-5 0 -5 7q0 -4 1 12.5t1 29.5q0 12 -1 19t-1 9q0 9 8 9q-2 0 129 -2t212 -2q9 0 47.5 2t49.5 2q5 0 5 -6l4 -54q0 -5 -5 -13q-52 -74 -160 -240q-88 -135 -169 -269q-9 -15 4 -15q58 0 190 2t150 2q6 0 6 -6q0 -1 -1 -19t-1 -24q0 -10 1 -22&#xA;t1 -13q0 -10 -10 -10q-22 0 -155 2t-199 2q-23 0 -65.5 -1.5t-45.5 -1.5q-8 0 -9 10l-3 51q0 6 4 13q56 84 182 276q9 14 149 239zM283 803q2 0 18 17l64 69q8 6 12 6h13q10 -1 16 -1q5 0 14 1h12q11 0 4 -8q-54 -66 -113 -148q-5 -7 -11 -7l-9 1h-26h-22q-9 -1 -10 -1&#xA;q-6 0 -11 7q-30 41 -114 148q-6 8 4 8h12q10 -1 15 -1q6 0 18 1h15t12 -6l30 -30t33 -34q21 -22 24 -22z"></glyph>
    <glyph glyph-name="quoteleft" unicode="‘" horiz-adv-x="233" d="M111 708q6 8 11 4q22 -17 36 -24q7 -3 3 -9q-34 -54 -34 -103q0 -6 7 -6h33q7 0 7 -12v-17q-1 -16 -1 -28q0 -13 1 -31v-19q0 -7 -12 -7l-14 1h-26h-31q-21 -1 -24 -1q-6 0 -6 10q0 -1 0 35q-1 36 -1 50q0 82 51 157z"></glyph>
    <glyph glyph-name="quoteright" unicode="’" horiz-adv-x="224" d="M118 433q-6 -8 -11 -4q-22 17 -36 24q-7 3 -3 9q34 54 34 103q0 6 -7 6h-33q-7 0 -7 12q0 1 1 17v28.5v30.5q-1 18 -1 19q0 7 12 7h14q15 -1 26 -1t31 1h24q6 0 6 -10q0 1 1 -35v-50q0 -82 -51 -157z"></glyph>
    <glyph glyph-name="quotedblleft" unicode="“" horiz-adv-x="412" d="M294 707q6 8 11 4q22 -17 36 -24q7 -3 3 -9q-34 -54 -34 -103q0 -6 7 -6h33q7 0 7 -12v-17q-1 -16 -1 -28q0 -13 1 -31v-19q0 -7 -9 -7l-16 1h-27h-31q-21 -1 -24 -1q-6 0 -6 10q0 -1 0 35q-1 36 -1 50q0 82 51 157zM106 707q6 8 11 4q22 -17 36 -24q7 -3 3 -9&#xA;q-34 -54 -34 -103q0 -6 7 -6h33q7 0 7 -12v-17q-1 -16 -1 -28q0 -13 1 -31v-19q0 -7 -12 -7l-14 1h-26h-31q-21 -1 -24 -1q-6 0 -6 10q0 -1 0 35q-1 36 -1 50q0 82 51 157z"></glyph>
    <glyph glyph-name="quotedblright" unicode="”" horiz-adv-x="420" d="M126 433q-6 -8 -11 -4q-22 17 -36 24q-7 3 -3 9q34 54 34 103q0 6 -7 6h-33q-7 0 -7 12q0 1 1 17v28.5v30.5q-1 18 -1 19q0 7 12 7h14q15 -1 26 -1t31 1h24q6 0 6 -10q0 1 1 -35v-50q0 -82 -51 -157zM314 433q-6 -8 -11 -4q-22 17 -36 24q-7 3 -3 9q34 54 34 103&#xA;q0 6 -7 6h-33q-7 0 -7 12q0 1 1 17v28.5v30.5q-1 18 -1 19q0 7 12 7h14q15 -1 26 -1t31 1h24q6 0 6 -10q0 1 1 -35v-50q0 -82 -51 -157z"></glyph>
    <glyph glyph-name="bullet" unicode="•" horiz-adv-x="414" d="M207 417q55 0 93.5 -38.5t38.5 -93.5t-38.5 -93.5t-93.5 -38.5t-93.5 38.5t-38.5 93.5t38.5 93.5t93.5 38.5z"></glyph>
    <glyph glyph-name="endash" unicode="–" horiz-adv-x="499" d="M50 297q0 9 6 9q-2 0 83.5 -1t116.5 -1q37 0 112.5 1t71.5 1q9 0 9 -7v-14q-1 -13 -1 -21q0 -7 1 -19v-16q0 -5 -7 -5q4 0 -72.5 1t-113.5 1q-32 0 -116.5 -1t-81.5 -1q-8 0 -8 6q0 1 1 13v19v21q-1 13 -1 14z"></glyph>
    <glyph glyph-name="emdash" unicode="—" horiz-adv-x="663" d="M50 298q0 9 6 9q-4 0 116.5 -1t162.5 -1q44 0 159 1t110 1q9 0 9 -7v-15q-1 -13 -1 -21q0 -7 1 -19v-17t-7 -5q5 0 -111 1t-160 1q-39 0 -160.5 -1t-116.5 -1q-8 0 -8 4q0 1 1 14v21v21q-1 14 -1 15z"></glyph>
    <glyph glyph-name="tilde" unicode="˜" horiz-adv-x="495" d="M237 595q-35 21 -61 21q-34 0 -61 -25q-3 -3 -5 3q-24 36 -28 41q-2 2 -2 4t2 3q46 41 102 41q41 0 78 -22q32 -19 55 -19q26 0 55 24q3 6 5 0.5t14 -25t13 -22.5q3 -2 -1 -6q-46 -38 -92 -38q-32 0 -74 20z"></glyph>
    <glyph glyph-name="trademark" unicode="™" horiz-adv-x="777" d="M121 627q-9 1 -35 1h-33q-27 -1 -31 -1q-2 0 -2 2v54q0 3 3 3q-10 0 35.5 -1t103.5 -1q60 0 105 1t34 1q3 0 3 -3v-54q0 -2 -2 -2q-3 0 -31 1h-35q-28 0 -33.5 -0.5t-5.5 -6.5v-103q0 -72 1 -123.5t1 -40.5q0 -4 -4 -4q-1 0 -15 1h-19h-19q-14 -1 -15 -1q-2 1 -2 4&#xA;q0 -9 1 44v121v105q0 3 -5 3zM721 353q0 -4 -3 -4q-1 0 -14 1h-17.5h-19.5q-15 -1 -16 -1q-3 0 -3 4q-6 130 -14 243l-1 11q1 -4 -2 -12q-56 -168 -76 -244q0 -2 -3 -2q-26 1 -30 1h-16l-11 -1q-1 0 -3 3q-45 147 -79 242q-1 7 -4 14v-13q-5 -68 -14 -242q0 -4 -3 -4&#xA;q-1 0 -15 1h-18h-17l-11 -1q-2 0 -2 4q4 47 13 160q5 67 10 168q0 4 3 4h18q18 -1 26 -1q9 0 27 1h19q2 0 2 -2q30 -90 76 -229l4 -12q0 3 2 12q56 175 69 227q1 4 3 4q-1 0 16 0q17 -1 26 -1q10 0 30 1q21 0 20 0q4 0 4 -4q0 -8 10 -159q7 -106 14 -169z"></glyph>
    <glyph glyph-name="scaron" unicode="š" horiz-adv-x="423" d="M258 272q68 -27 93 -54q31 -34 31 -79q0 -74 -56 -116q-50 -38 -127 -38q-94 0 -159 38q-2 1 0 6q22 48 31 74q1 2 6 -1q58 -41 126 -41q39 0 62.5 18t23.5 44q0 30 -22 49q-17 15 -65 33l-42 16q-113 43 -113 131q0 54 38 92q47 47 135 47q85 0 138 -32q4 -2 1 -7&#xA;q-2 -4 -30 -71q-2 -5 -7 -1q-51 36 -111 36q-39 0 -55.5 -17.5t-16.5 -36.5q0 -27 20 -44q17 -14 58 -30zM215 620q2 0 18 18l64 72q6 7 12 7h13q10 -1 16 -1q5 0 14 1h12q11 0 4 -9q-50 -64 -113 -156q-5 -7 -11 -7l-9 1h-26h-22q-9 -1 -10 -1q-6 0 -11 7q-34 49 -114 156&#xA;q-7 9 4 9h12q10 -1 15 -1q6 0 18 1h15q6 0 12 -7q20 -21 63 -67q21 -23 24 -23z"></glyph>
    <glyph glyph-name="guilsinglright" unicode="›" horiz-adv-x="329" d="M182 259q4 5 0 10l-106 150q-2 2 1 5l38 28q4 3 7 -1l148 -181q4 -4 4 -6t-4 -6l-148 -179q-3 -4 -7 -1l-38 28q-3 3 0 6z"></glyph>
    <glyph glyph-name="oe" unicode="œ" horiz-adv-x="847" d="M269 415q-62 0 -96 -51q-31 -47 -31 -121q0 -83 39 -133q36 -48 93 -48q52 0 89.5 45.5t37.5 121.5q0 75 -33 128q-36 58 -99 58zM715 297q0 28 -19 64q-31 56 -89 56q-55 0 -89 -55q-24 -39 -24 -65q0 -6 6 -6h208q7 0 7 6zM459 53q-19 22 -20 22t-19 -23&#xA;q-67 -67 -155 -67q-93 0 -155 66q-65 69 -65 183q0 116 66 186t167 70q92 0 152 -68q6 -10 17 -21q3 -1 9 8q9 13 10 14q67 67 147 67q94 0 146.5 -66.5t52.5 -185.5q0 -13 -21 -13h-291q-9 0 -9 -6q0 -62 36.5 -109t88.5 -47q69 0 130 58q9 8 12 0q7 -16 39 -48q8 -8 0 -15&#xA;q-78 -73 -189 -73q-91 0 -149 68z"></glyph>
    <glyph glyph-name="zcaron" horiz-adv-x="458" d="M401 413q-89 -115 -228 -321q-8 -12 3 -12q194 0 237 4q6 0 6 -7v-14q-1 -14 -1 -25q0 -7 1 -18v-13q0 -7 -8 -7q-17 0 -131.5 1t-166.5 1q-18 0 -39 -1t-23 -1q-7 0 -7 7l-5 43q0 5 3 9q39 50 123 164q53 73 116 171q1 5 -9 5q-98 0 -162 -2t-52 -2q-4 0 -4 5l1 13v21.5&#xA;v20.5q-1 13 -1 14q0 6 6 6q8 0 127 -1t134 -1q7 0 36 1t38 1q4 0 4 -4l6 -49q0 -4 -4 -9zM232 620q2 0 18 18l64 72q6 7 12 7h13q10 -1 16 -1q5 0 14 1h12q11 0 4 -9q-50 -64 -113 -156q-5 -7 -11 -7l-9 1h-26h-22q-9 -1 -10 -1q-6 0 -11 7q-34 49 -114 156q-7 9 4 9h12&#xA;q10 -1 15 -1q6 0 18 1h15q6 0 12 -7q20 -21 63 -67q21 -23 24 -23z"></glyph>
    <glyph glyph-name="zcaron" unicode="ž" horiz-adv-x="458" d="M401 413q-89 -115 -228 -321q-8 -12 3 -12q194 0 237 4q6 0 6 -7v-14q-1 -14 -1 -25q0 -7 1 -18v-13q0 -7 -8 -7q-17 0 -131.5 1t-166.5 1q-18 0 -39 -1t-23 -1q-7 0 -7 7l-5 43q0 5 3 9q39 50 123 164q53 73 116 171q1 5 -9 5q-98 0 -162 -2t-52 -2q-4 0 -4 5l1 13v21.5&#xA;v20.5q-1 13 -1 14q0 6 6 6q8 0 127 -1t134 -1q7 0 36 1t38 1q4 0 4 -4l6 -49q0 -4 -4 -9zM232 620q2 0 18 18l64 72q6 7 12 7h13q10 -1 16 -1q5 0 14 1h12q11 0 4 -9q-50 -64 -113 -156q-5 -7 -11 -7l-9 1h-26h-22q-9 -1 -10 -1q-6 0 -11 7q-34 49 -114 156q-7 9 4 9h12&#xA;q10 -1 15 -1q6 0 18 1h15q6 0 12 -7q20 -21 63 -67q21 -23 24 -23z"></glyph>
    <glyph glyph-name="zcaron" unicode="ž" horiz-adv-x="458" d="M401 413q-89 -115 -228 -321q-8 -12 3 -12q194 0 237 4q6 0 6 -7v-14q-1 -14 -1 -25q0 -7 1 -18v-13q0 -7 -8 -7q-17 0 -131.5 1t-166.5 1q-18 0 -39 -1t-23 -1q-7 0 -7 7l-5 43q0 5 3 9q39 50 123 164q53 73 116 171q1 5 -9 5q-98 0 -162 -2t-52 -2q-4 0 -4 5l1 13v21.5&#xA;v20.5q-1 13 -1 14q0 6 6 6q8 0 127 -1t134 -1q7 0 36 1t38 1q4 0 4 -4l6 -49q0 -4 -4 -9zM232 620q2 0 18 18l64 72q6 7 12 7h13q10 -1 16 -1q5 0 14 1h12q11 0 4 -9q-50 -64 -113 -156q-5 -7 -11 -7l-9 1h-26h-22q-9 -1 -10 -1q-6 0 -11 7q-34 49 -114 156q-7 9 4 9h12&#xA;q10 -1 15 -1q6 0 18 1h15q6 0 12 -7q20 -21 63 -67q21 -23 24 -23z"></glyph>
    <glyph glyph-name="Ydieresis" unicode="Ÿ" horiz-adv-x="524" d="M217 260q0 7 -1 9q-13 31 -97 198q-55 110 -112 211q-3 6 2 6l23.5 -1t36.5 -1q12 0 31 1l19 1q4 0 7 -7q26 -61 67 -151l72 -158q4 -8 7 1q16 35 62.5 139t71.5 168q3 8 9 8l15.5 -1t28.5 -1t34 1l21 1q7 0 4 -6q-69 -131 -115 -225q-57 -117 -85 -179q-2 -4 -4 -14&#xA;q-1 -26 -1 -95q0 -43 2 -103t2 -56q0 -7 -6 -7q-2 0 -20 1t-28 1t-25.5 -1t-17.5 -1q-6 0 -6 6q0 -5 2 61t2 110v53q-1 29 -1 31zM217 850q6 0 6 -6v-16q-1 -16 -1 -26t1 -28v-19q0 -5 -5 -5q-1 0 -18 1h-28h-25l-15 -1q-5 0 -5 5l1 17v29v27l-1 17q0 5 4 5q-1 0 15 0&#xA;q16 -1 29 -1q12 0 28 1q15 0 14 0zM402 850q6 0 6 -6v-16q-1 -16 -1 -26t1 -28v-19q0 -5 -5 -5q-1 0 -18 1h-28h-25l-15 -1q-5 0 -5 5l1 17v29v27l-1 17q0 5 4 5q-1 0 15 0q16 -1 29 -1q12 0 28 1q15 0 14 0z"></glyph>
    <glyph glyph-name="nonbreakingspace" unicode=" " horiz-adv-x="220"></glyph>
    <glyph glyph-name="exclamdown" unicode="¡" horiz-adv-x="326" d="M114 365q0 4 1 21v27.5v32.5q-1 22 -1 26t5 4h22q20 -1 31 -1t27 1h18q8 0 8 -4v-22q-1 -20 -1 -31q0 -12 1 -32v-24q0 -4 -9 -4l-16 1h-27.5h-28.5q-17 -1 -25 -1q-5 0 -5 6zM128 286q0 6 9 6h69q8 0 8 -10q0 -175 18 -486q0 -6 -6 -6q1 0 -17 0q-18 1 -32 1&#xA;q-16 0 -38 -1q-22 0 -21 0q-8 0 -7 8q5 53 11 223q7 183 6 265z"></glyph>
    <glyph glyph-name="cent" unicode="¢" horiz-adv-x="448" d="M236 408q-47 -14 -72.5 -58.5t-25.5 -106.5q0 -69 27 -113.5t71 -58.5v337zM301 -78q0 -3 -3 -3h-62q-4 0 -4 4l2 64q-86 10 -136 72q-53 65 -53 175q0 108 56 177q51 63 133 76l-2 63q0 5 4 5h61q4 0 4 -4l-2 -62q67 -3 116 -38q11 -8 7 -14q-17 -26 -37 -56&#xA;q-5 -8 -13 -1q-28 26 -73 32v-346q39 6 78 34q7 7 24 -20q11 -18 21 -36q3 -6 -2 -10q-55 -41 -121 -48z"></glyph>
    <glyph glyph-name="sterling" unicode="£" horiz-adv-x="537" d="M60 57q-1 4 1 6q47 55 65 174q4 24 13 159q-1 3 -6 6l-66 -1q-7 0 -7 7q0 1 1 15v14.5v15.5q-1 13 -1 16q0 7 6 7l69 -1q6 0 6 6l2 30q9 132 76 196q56 54 142 54q59 0 103 -24q8 -4 5 -10q-13 -27 -30 -63q-3 -6 -9 -2q-28 22 -75 22q-42 0 -73 -35q-41 -45 -47 -136&#xA;l-2 -33q1 -3 6 -5l88 1q7 0 7 -7v-14q-1 -11 -1 -17q0 -5 1 -16v-15q0 -6 -7 -6l-90 1q-6 0 -7 -7q-12 -148 -13 -155q-13 -87 -47 -148q0 -2 6 -3q19 3 40 3q30 0 93 -10.5t96 -10.5q35 0 65 12q6 2 7 -3q13 -54 19 -72q3 -8 -3 -8q-39 -18 -98 -18q-32 0 -99.5 13.5&#xA;t-113.5 13.5t-101 -13q-4 -1 -5 3q-8 30 -16 58z"></glyph>
    <glyph glyph-name="currency" unicode="¤" horiz-adv-x="657" d="M172 133l-66 -68q-5 -4 -8 -1l-48 47q-3 5 0 9l68 65q-51 67 -51 156q0 87 53 157l-69 67q-4 4 -1 8l48 47q4 4 8 0l67 -70q67 49 155 49t154 -51l67 70q6 6 10 2l47 -47q5 -5 -1 -11l-69 -67q51 -69 51 -155q0 -83 -50 -154l68 -65q6 -5 1 -10l-47 -47q-5 -5 -11 1&#xA;l-64 68q-70 -51 -157 -51t-155 51zM328 524q-76 0 -128.5 -53t-52.5 -130t52 -130.5t128 -53.5t128.5 53.5t52.5 130.5t-52.5 130t-127.5 53z"></glyph>
    <glyph glyph-name="yen" unicode="¥" horiz-adv-x="532" d="M215 266v2q-1 0 -1 1q-6 15 -31 67l-149 -1q-5 0 -5 4v59q0 4 6 4l115 -1q-95 191 -145 278q-3 6 2 6l20 -1t33 -1q12 0 34 1l22 1q4 0 7 -7q67 -147 140 -310q4 -8 7 1q50 110 135 307q3 8 9 8h18q17 -1 30 -1t30.5 1l17.5 1q7 0 4 -6q-43 -82 -138 -278l118 1q6 0 6 -5&#xA;v-56q0 -6 -5 -6l-151 1q-20 -37 -28 -62q-3 -9 -3 -8l181 2q6 0 6 -5v-56q0 -6 -5 -6l-184 2v-38q0 -43 1 -103t1 -56q0 -7 -6 -7q-2 0 -19 1t-27 1t-24.5 -1t-16.5 -1q-6 0 -6 6q0 -5 1 64.5t1 113.5v20l-182 -2q-5 0 -5 4v59q0 4 6 4z"></glyph>
    <glyph glyph-name="brokenbar" unicode="¦" horiz-adv-x="248" d="M85 104q0 10 4 10h70q4 0 4 -10v-349q0 -6 -5 -6h-67q-6 0 -6 5v350zM163 408q0 -11 -5 -11h-67q-6 0 -6 11v339q0 5 4 5h70q4 0 4 -6v-338z"></glyph>
    <glyph glyph-name="section" unicode="§" horiz-adv-x="531" d="M104 419q5 4 0 10q-34 42 -34 97q0 66 51 118q59 60 161 60q98 0 171 -46q6 -4 0 -13q-18 -27 -35 -66q-2 -6 -8 -2q-63 45 -137 45q-55 0 -83 -31q-22 -24 -22 -51q0 -42 27 -70q17 -19 68 -48l110 -63q118 -68 118 -176q0 -64 -62 -126q-5 -5 -1 -11q32 -42 32 -104&#xA;q0 -71 -47 -119q-60 -61 -171 -61q-101 0 -178 46q-6 3 0 13q15 27 32 72q2 6 8 2q81 -48 154 -48q43 0 70 21q32 24 32 70q0 68 -93 120l-110 61q-117 65 -117 173q0 67 64 127zM165 366q-30 -32 -30 -67q0 -63 92 -114l101 -56q10 -7 30 -18q5 -2 9 2q28 34 28 58&#xA;q0 40 -16.5 64.5t-68.5 53.5l-109 61q-17 10 -27 17q-6 4 -9 -1z"></glyph>
    <glyph glyph-name="dieresis" unicode="¨" d="M199 665q6 0 6 -6v-16q-1 -16 -1 -26t1 -28v-19q0 -5 -5 -5q-1 0 -18 1h-28h-25l-15 -1q-5 0 -5 5l1 17v29v27l-1 17q0 5 4 5q-1 0 15 0q16 -1 29 -1q12 0 28 1q15 0 14 0zM384 665q6 0 6 -6v-16q-1 -16 -1 -26t1 -28v-19q0 -5 -5 -5q-1 0 -18 1h-28h-25l-15 -1&#xA;q-5 0 -5 5l1 17v29v27l-1 17q0 5 4 5q-1 0 15 0q16 -1 29 -1q12 0 28 1q15 0 14 0z"></glyph>
    <glyph glyph-name="copyright" unicode="©" horiz-adv-x="978" d="M489 668q180 0 307 -127.5t127 -308.5t-127 -308.5t-307 -127.5t-307 127.5t-127 308.5t127 308.5t307 127.5zM489 603q-151 0 -257.5 -108.5t-106.5 -261.5t106.5 -262t257.5 -109t257.5 109t106.5 262t-106.5 261.5t-257.5 108.5zM647 30q2 -3 -2 -5q-72 -39 -157 -39&#xA;q-97 0 -160 66q-67 69 -67 184q0 123 74 193q67 64 170 64q79 0 141 -39q6 -3 3 -7q-11 -22 -34 -66q-3 -4 -6 -2q-59 39 -111 39q-61 0 -101 -40q-47 -46 -47 -131t45 -137q42 -48 106 -48q38 0 108 35q4 3 6 -2q11 -23 32 -65z"></glyph>
    <glyph glyph-name="ordfeminine" unicode="ª" horiz-adv-x="431" d="M266 512q0 6 -3 7q-23 -5 -81 -18q-41 -9 -41 -47q0 -49 46 -49q38 0 65 25q14 18 14 23v59zM336 567v-118q0 -39 12 -39q3 0 6 1h3q3 1 5 -7q4 -28 9 -45q0 -14 -36 -14q-42 0 -59 35q-4 9 -6 9l-11 -12q-37 -34 -91 -34q-53 0 -82 31q-25 28 -25 72q0 40 26 68&#xA;q23 25 66 34l86 18q26 6 26 15q0 26 -21.5 40t-48.5 14q-42 0 -78 -34q-5 -5 -7 -1q-11 15 -31 39q-2 3 0 7q19 19 54.5 32.5t69.5 13.5q55 0 90 -26q43 -32 43 -99z"></glyph>
    <glyph glyph-name="guillemotleft" unicode="«" horiz-adv-x="514" d="M147 259l105 -147q2 -4 0 -6l-38 -28q-4 -3 -7 1l-148 179q-4 4 -4 6t4 6l148 181q3 4 7 1l38 -28q3 -3 1 -5l-106 -150q-4 -5 0 -10zM332 259l105 -147q2 -4 0 -6l-38 -28q-4 -3 -7 1l-148 179q-4 4 -4 6t4 6l148 181q3 4 7 1l38 -28q3 -3 1 -5l-106 -150q-4 -5 0 -10z&#xA;"></glyph>
    <glyph glyph-name="logicalnot" unicode="¬" d="M448 271q0 -30 1 -80q0 -50 0 -47q0 -8 -6 -8q-1 0 -11 1h-17.5h-19.5q-11 -1 -13 -1q-9 0 -9 6q0 -4 1 58v101q0 4 -4 4h-114h-117q-84 -1 -81 -1q-8 0 -8 6q0 1 1 11v18v19q-1 12 -1 13q0 9 6 9q-2 0 84 0q85 -1 116 -1q37 0 113 1q75 0 71 0q9 0 9 -7q0 3 0 -34&#xA;q-1 -38 -1 -68z"></glyph>
    <glyph glyph-name="hyphen" unicode="­" horiz-adv-x="353" d="M55 306q0 9 6 9q-2 0 34.5 -1t67.5 -1q37 0 83.5 1t42.5 1q9 0 9 -7v-15q-1 -14 -1 -22q0 -7 1 -19v-18t-7 -5q4 0 -42 1t-83 1h-69q-37 -1 -34 -1q-8 0 -8 5q0 1 1 16v23v19q-1 12 -1 13z"></glyph>
    <glyph glyph-name="registered" unicode="®" horiz-adv-x="978" d="M489 668q180 0 307 -127.5t127 -308.5t-127 -308.5t-307 -127.5t-307 127.5t-127 308.5t127 308.5t307 127.5zM489 603q-151 0 -257.5 -108.5t-106.5 -261.5t106.5 -262t257.5 -109t257.5 109t106.5 262t-106.5 261.5t-257.5 108.5zM415 275q17 -1 65 -1q87 0 87 72&#xA;q0 63 -90 63h-35q-21 -1 -25.5 -1t-4.5 -4q-2 -57 0 -125q0 -4 3 -4zM415 204q-3 -1 -3 -6q0 -56 1 -122q0 -66 0 -59v-14q0 -4 -4 -4q1 0 -12 0q-14 1 -24 1q-9 0 -24 -1h-15q-3 0 -3 4q0 -2 1 82v179q0 63 -1 115v67q-1 26 -1 25q0 4 2 4.5t60 1.5t73 1q84 0 127 -22&#xA;q59 -30 59 -107q0 -45 -24.5 -78t-63.5 -46q-2 -1 -2 -2t2 -2q26 -26 53 -81q38 -78 68 -136q3 -5 -2 -5h-20q-21 1 -32 1t-24 -1h-13q-3 0 -5 4q-10 27 -59 126q-23 47 -39 61t-48 14h-27z"></glyph>
    <glyph glyph-name="macron" unicode="¯" horiz-adv-x="495" d="M382 663v-51q0 -6 -7 -6h-258q-8 0 -8 4v51q0 7 6 7h258q9 0 9 -5z"></glyph>
    <glyph glyph-name="degree" unicode="°" horiz-adv-x="348" d="M174 701q53 0 91 -38t38 -91t-38 -91t-91 -38t-91 38t-38 91t38 91t91 38zM174 646q-30 0 -50.5 -21t-20.5 -52t20.5 -52t50.5 -21t50.5 21t20.5 52t-20.5 52t-50.5 21z"></glyph>
    <glyph glyph-name="plusminus" unicode="±" d="M288 280q0 -36 1 -50q0 -13 0 -8q0 -8 -6 -8q-1 0 -11 1h-17.5h-19.5q-11 -1 -13 -1q-9 0 -9 6q0 -5 1 8v53q0 6 -6 6q-39 0 -96.5 -1t-52.5 -1q-8 0 -8 6q0 1 1 11v18v18q-1 11 -1 12q0 9 6 9q-4 0 56 0q60 -1 97 -1q4 0 4 4v93q-1 54 -1 49q0 9 7 9h13q11 -1 19 -1&#xA;q7 0 19 1h13q5 0 5 -7q0 5 0 -50q-1 -55 -1 -93q0 -5 4 -5q39 0 97 1q58 0 53 0q9 0 9 -7v-12q-1 -10 -1 -18q0 -7 1 -19v-13q0 -5 -7 -5q5 0 -52 1h-99q-5 0 -5 -6zM50 141q0 9 6 9q-2 0 84 0q85 -1 116 -1q37 0 113 1q75 0 71 0q9 0 9 -7v-13q-1 -11 -1 -19q0 -7 1 -18&#xA;v-12q0 -5 -7 -5q4 0 -73 1h-113h-117q-84 -1 -81 -1q-8 0 -8 6q0 1 1 10v17v19q-1 12 -1 13z"></glyph>
    <glyph glyph-name="twosuperior" unicode="²" horiz-adv-x="402" d="M49 593q65 53 149 53q54 0 93.5 -31t39.5 -84q0 -60 -56 -120q-17 -18 -61 -54q-40 -32 -56 -52q-6 -6 0 -6q29 0 96.5 1t89.5 1q8 0 8 -7q-1 -15 -1 -27q0 -8 1 -31q0 -6 -9 -6q-14 0 -101.5 1t-103.5 1q-34 0 -60 -1t-23 -1q-5 0 -5 5.5t-5 45.5q0 4 1 6q22 30 79 80&#xA;q67 59 80 73q45 48 45 86q0 21 -16.5 36.5t-46.5 15.5q-46 0 -101 -41q-4 -4 -9 3q-9 15 -29 44q-4 5 1 9z"></glyph>
    <glyph glyph-name="threesuperior" unicode="³" horiz-adv-x="353" d="M59 303q2 5 6 3q38 -19 80 -19q38 0 65 19.5t27 47.5q0 62 -89 62q-12 0 -50 -5q-4 0 -11 53q-1 6 6 6q125 12 125 72q0 44 -58 44q-44 0 -88 -27q-4 -2 -6 2q-10 18 -25 43q-2 3 1 6q54 38 123 38q68 0 102 -35q26 -27 26 -64q0 -61 -52 -86q-5 -3 3 -4q69 -22 69 -100&#xA;q0 -58 -47.5 -96t-122.5 -38q-62 0 -98 13q-4 2 -3 6q10 19 17 59z"></glyph>
    <glyph glyph-name="acute" unicode="´" horiz-adv-x="495" d="M252 552q-4 -7 -12 -7q-4 0 -14 1h-16.5h-15.5q-9 -1 -12 -1q-9 0 -4 9q29 55 76 156q3 7 11 7h17q14 -1 24 -1q9 0 25 1h21q11 0 5 -8q-56 -80 -105 -157z"></glyph>
    <glyph glyph-name="mu" unicode="µ" horiz-adv-x="553" d="M162 -10q11 -149 11 -233q0 -7 -5 -7t-19.5 1t-21.5 1t-24 -1t-23 -1q-5 0 -5 6q0 -2 2 164t2 208v176q0 55 -3 112.5t-3 52.5q0 7 5 7t20.5 -1.5t22.5 -1.5t24.5 1.5t23.5 1.5q5 0 5 -6q0 2 -2 -58t-2 -104v-152q0 -86 69 -86q59 0 120 68q18 20 18 42v131q0 69 -2 117&#xA;t-2 41q0 7 4 7q5 0 21 -1.5t23 -1.5q8 0 25.5 1.5t23.5 1.5q4 0 4 -6q0 11 -2 -45.5t-2 -137.5v-98q0 -78 7.5 -136.5t7.5 -46.5q0 -6 -7 -6q-52 -2 -79 -5q-6 0 -7 9q-3 13 -10 61q0 5 -3 5q-4 0 -7 -5q-76 -80 -158 -80q-22 0 -45 9q-4 0 -7 -4z"></glyph>
    <glyph glyph-name="paragraph" unicode="¶" horiz-adv-x="512" d="M260 621q-5 0 -5 -5v-801q0 -4 -4 -4h-64q-4 0 -4 4v482q-67 10 -107 51q-51 52 -51 135q0 64 29 110q57 91 193 91h217q3 0 3 -4v-56q0 -3 -4 -3h-27q-3 0 -3 -3v-803q0 -4 -4 -4h-65q-4 0 -4 4v802q0 4 -4 4h-96z"></glyph>
    <glyph glyph-name="periodcentered" unicode="·" horiz-adv-x="265" d="M132 344q29 0 49 -20t20 -49q0 -28 -20 -48.5t-49 -20.5q-28 0 -48.5 20.5t-20.5 48.5q0 29 20.5 49t48.5 20z"></glyph>
    <glyph glyph-name="periodcentered" unicode="∙" horiz-adv-x="265" d="M132 344q29 0 49 -20t20 -49q0 -28 -20 -48.5t-49 -20.5q-28 0 -48.5 20.5t-20.5 48.5q0 29 20.5 49t48.5 20z"></glyph>
    <glyph glyph-name="periodcentered" unicode="∙" horiz-adv-x="265" d="M132 344q29 0 49 -20t20 -49q0 -28 -20 -48.5t-49 -20.5q-28 0 -48.5 20.5t-20.5 48.5q0 29 20.5 49t48.5 20z"></glyph>
    <glyph glyph-name="cedilla" unicode="¸" horiz-adv-x="440" d="M215 7h57l-7 -50q-1 -5 4 -5q31 -4 51 -24q24 -22 24 -57q0 -43 -30 -72q-33 -31 -88 -31q-26 0 -52 10q-4 2 -2 7q6 14 12 40q2 5 5 2q19 -8 38 -8q57 0 57 48q0 44 -54 44q-15 0 -24 -1q-3 0 -3 3z"></glyph>
    <glyph glyph-name="onesuperior" unicode="¹" horiz-adv-x="297" d="M219 643q3 0 3 -4q0 3 -1 -65.5t-1 -132.5q0 -182 2 -204q0 -6 -4 -6q-3 0 -18 1h-20h-18q-15 -1 -19 -1q-3 0 -3 5q0 -9 1 52.5t1 147.5v88q-1 37 -1 32q0 6 -4 3q-28 -13 -77 -36q-4 -2 -5 2q-11 32 -25 57q-2 3 3 5q55 23 131 55q2 2 5 2q36 -1 38 -1h12z"></glyph>
    <glyph glyph-name="ordmasculine" unicode="º" horiz-adv-x="455" d="M222 342q-69 0 -116 47t-47 125q0 80 48.5 128.5t125.5 48.5q68 0 113 -42q50 -47 50 -128q0 -76 -44 -125q-48 -54 -130 -54zM225 630q-41 0 -64.5 -30.5t-23.5 -78.5q0 -54 27 -85t66 -31q36 0 61 26q27 30 27 80t-25 84.5t-68 34.5z"></glyph>
    <glyph glyph-name="guillemotright" unicode="»" horiz-adv-x="514" d="M367 259q4 5 0 10l-106 150q-2 2 1 5l38 28q4 3 7 -1l148 -181q4 -4 4 -6t-4 -6l-148 -179q-3 -4 -7 -1l-38 28q-3 3 0 6zM182 259q4 5 0 10l-106 150q-2 2 1 5l38 28q4 3 7 -1l148 -181q4 -4 4 -6t-4 -6l-148 -179q-3 -4 -7 -1l-38 28q-3 3 0 6z"></glyph>
    <glyph glyph-name="onequarter" unicode="¼" horiz-adv-x="896" d="M251 -9q-4 -6 -9 -3l-48 29q-6 3 -3 8l388 671q3 6 8 3l50 -29q5 -3 1 -9zM224 643q3 0 3 -4q0 3 -1 -65.5t-1 -132.5q0 -182 2 -204q0 -6 -4 -6q-3 0 -19 1h-20h-18q-14 -1 -18 -1q-3 0 -3 5q0 -9 1 52.5t1 147.5v88q-1 37 -1 32q0 6 -4 3q-28 -13 -77 -36q-4 -2 -5 2&#xA;q-9 27 -25 55q-3 5 3 7q55 23 131 55q2 2 5 2q36 -1 38 -1h12zM759 160q0 -4 6 -4l55 1q6 0 6 -4v-13q-1 -12 -1 -17t1 -16v-12q0 -4 -6 -4l-57 1q-4 0 -4 -3l2 -84q0 -6 -4 -6h-16q-12 1 -16 1q-5 0 -17 -1h-17t-4 5q0 -4 1 24.5t1 59.5q0 4 -5 4h-86h-61q-47 -1 -49 -1&#xA;q-4 0 -4 5l-6 39q0 4 1 6q44 67 186 270q3 5 10 5h17q14 -1 20 -1q9 0 26 1h18q5 0 5 -7q0 14 -1 -78.5t-1 -170.5zM690 206v64v46q-1 19 -1 18q0 8 -4 3q-59 -79 -121 -174q-4 -9 19 -9q-21 0 30 1l72 1q4 0 4 4t1 46z"></glyph>
    <glyph glyph-name="onehalf" unicode="½" horiz-adv-x="922" d="M251 -9q-4 -6 -9 -3l-48 29q-6 3 -3 8l388 671q3 6 8 3l50 -29q5 -3 1 -9zM549 362q65 53 149 53q54 0 93.5 -31t39.5 -84q0 -60 -56 -120q-17 -18 -61 -54q-40 -32 -56 -52q-6 -6 0 -6q29 0 96.5 1t89.5 1q8 0 8 -7q-1 -15 -1 -27q0 -8 1 -31q0 -6 -9 -6q-14 0 -101.5 1&#xA;t-103.5 1q-34 0 -60 -1t-23 -1q-5 0 -5 5.5t-5 45.5q0 4 1 6q22 30 79 80q67 59 80 73q45 48 45 86q0 21 -16.5 36.5t-46.5 15.5q-46 0 -101 -41q-4 -4 -9 3q-9 15 -29 44q-4 5 1 9zM224 643q3 0 3 -4q0 3 -1 -65.5t-1 -132.5q0 -182 2 -204q0 -6 -4 -6q-3 0 -18 1h-19h-19&#xA;q-15 -1 -19 -1q-3 0 -3 5q0 -9 1 52.5t1 147.5v88q-1 37 -1 32q0 6 -4 3q-28 -13 -77 -36q-4 -2 -5 2q-9 27 -25 55q-3 5 3 7q55 23 131 55q2 2 5 2q36 -1 38 -1h12z"></glyph>
    <glyph glyph-name="threequarters" unicode="¾" horiz-adv-x="925" d="M292 -9q-4 -6 -9 -3l-48 29q-6 3 -3 8l388 671q3 6 8 3l50 -29q5 -3 1 -9zM59 303q2 5 6 3q38 -19 80 -19q38 0 65 19.5t27 47.5q0 62 -89 62q-12 0 -50 -5q-4 0 -11 53q-1 6 6 6q125 12 125 72q0 44 -58 44q-44 0 -88 -27q-4 -2 -6 2q-10 18 -25 43q-2 3 1 6&#xA;q54 38 123 38q68 0 102 -35q26 -27 26 -64q0 -61 -52 -86q-5 -3 3 -4q69 -22 69 -100q0 -58 -47.5 -96t-122.5 -38q-62 0 -98 13q-4 2 -3 6q10 19 17 59zM788 160q0 -4 6 -4l55 1q6 0 6 -4v-13q-1 -12 -1 -17t1 -16v-12q0 -4 -6 -4l-57 1q-4 0 -4 -3l2 -84q0 -6 -4 -6h-16&#xA;q-12 1 -16 1q-5 0 -17 -1h-17t-4 5q0 -4 1 24.5t1 59.5q0 4 -5 4h-86h-61q-47 -1 -49 -1q-4 0 -4 5l-6 39q0 4 1 6q44 67 186 270q3 5 10 5h17q14 -1 20 -1q9 0 26 1h18q5 0 5 -7q0 14 -1 -78.5t-1 -170.5zM719 206v64v46q-1 19 -1 18q0 8 -4 3q-59 -79 -121 -174&#xA;q-4 -9 19 -9q-21 0 30 1l72 1q4 0 4 4t1 46z"></glyph>
    <glyph glyph-name="questiondown" unicode="¿" horiz-adv-x="378" d="M145 365q0 4 1 21v27.5v32.5q-1 22 -1 26t5 4h22q20 -1 31 -1t27 1h18q8 0 8 -4v-22q-1 -20 -1 -31q0 -12 1 -32v-24q0 -4 -9 -4l-16 1h-27.5h-28.5q-17 -1 -25 -1q-5 0 -5 6zM161 294l12.5 -1t26.5 -1q17 0 31.5 1t12.5 1q4 0 5 -7q4 -26 4 -52q-1 -98 -73 -197&#xA;q-28 -38 -36 -53q-14 -28 -14 -57q0 -70 74 -70q64 0 109 48q4 5 7 0q18 -31 46 -59q3 -3 -1 -7q-73 -66 -172 -66q-73 0 -115 39q-47 44 -47 102q0 47 17 84q12 24 47 71q65 87 65 154q0 12 -3 63q0 7 4 7z"></glyph>
    <glyph glyph-name="Agrave" unicode="À" horiz-adv-x="635" d="M405 274q6 0 4 6l-86 259q-1 3 -6 25q-4 19 -5 19t-2 -12q-2 -17 -7 -30l-89 -260q-2 -7 6 -7h35q32 -1 52 -1q22 0 59 1h39zM497 6q-13 44 -56 184q-2 6 -8 6q-1 0 -49 1h-75h-72q-45 -1 -47 -1q-5 0 -7 -6q-23 -70 -60 -188q-1 -3 -4 -3l-18.5 1t-29.5 1q-10 0 -28 -1&#xA;t-21 -1q-4 0 -1 7q44 118 141 383q80 225 98 289q2 6 6 6q1 0 19.5 -1t29.5 -1t29.5 1t20.5 1q5 0 6 -4q111 -357 243 -676q2 -5 -2 -5q1 0 -19 1t-33 1q-11 0 -34 -1t-24 -1q-3 0 -5 7zM309 738q-30 44 -105 150q-5 7 5 7h21q16 -1 25 -1q10 0 24 1h17q8 0 11 -7&#xA;q44 -90 76 -148q4 -8 -4 -8q-3 0 -12 1h-15.5h-16.5q-10 -1 -14 -1q-8 0 -12 6z"></glyph>
    <glyph glyph-name="Aacute" unicode="Á" horiz-adv-x="635" d="M405 274q6 0 4 6l-86 259q-1 3 -6 25q-4 19 -5 19t-2 -12q-2 -17 -7 -30l-89 -260q-2 -7 6 -7h35q32 -1 52 -1q22 0 59 1h39zM497 6q-13 44 -56 184q-2 6 -8 6q-1 0 -49 1h-75h-72q-45 -1 -47 -1q-5 0 -7 -6q-23 -70 -60 -188q-1 -3 -4 -3l-18.5 1t-29.5 1q-10 0 -28 -1&#xA;t-21 -1q-4 0 -1 7q44 118 141 383q80 225 98 289q2 6 6 6q1 0 19.5 -1t29.5 -1t29.5 1t20.5 1q5 0 6 -4q111 -357 243 -676q2 -5 -2 -5q1 0 -19 1t-33 1q-11 0 -34 -1t-24 -1q-3 0 -5 7zM318 738q-4 -6 -12 -6q-4 0 -14 1h-16.5h-15.5q-9 -1 -12 -1q-8 0 -4 8q32 58 76 148&#xA;q3 7 11 7h17q14 -1 24 -1q9 0 25 1h21q10 0 5 -7q-32 -43 -105 -150z"></glyph>
    <glyph glyph-name="Acircumflex" unicode="Â" horiz-adv-x="635" d="M405 274q6 0 4 6l-86 259q-1 3 -6 25q-4 19 -5 19t-2 -12q-2 -17 -7 -30l-89 -260q-2 -7 6 -7h35q32 -1 52 -1q22 0 59 1h39zM497 6q-13 44 -56 184q-2 6 -8 6q-1 0 -49 1h-75h-72q-45 -1 -47 -1q-5 0 -7 -6q-23 -70 -60 -188q-1 -3 -4 -3l-18.5 1t-29.5 1q-10 0 -28 -1&#xA;t-21 -1q-4 0 -1 7q44 118 141 383q80 225 98 289q2 6 6 6q1 0 19.5 -1t29.5 -1t29.5 1t20.5 1q5 0 6 -4q111 -357 243 -676q2 -5 -2 -5q1 0 -19 1t-33 1q-11 0 -34 -1t-24 -1q-3 0 -5 7zM312 824q-2 0 -18 -17l-64 -69q-8 -6 -12 -6t-13 1h-15.5h-14.5q-9 -1 -12 -1&#xA;q-11 0 -4 8q54 66 113 148q5 7 11 7h9q9 -1 26 -1q13 0 22 1h10q6 0 11 -7q30 -41 114 -148q6 -8 -4 -8q-3 0 -12 1h-15.5h-17.5q-11 -1 -15 -1t-12.5 7.5t-29.5 28.5t-33 34q-21 22 -24 22z"></glyph>
    <glyph glyph-name="Atilde" unicode="Ã" horiz-adv-x="635" d="M405 274q6 0 4 6l-86 259q-1 3 -6 25q-4 19 -5 19t-2 -12q-2 -17 -7 -30l-89 -260q-2 -7 6 -7h35q32 -1 52 -1q22 0 59 1h39zM497 6q-13 44 -56 184q-2 6 -8 6q-1 0 -49 1h-75h-72q-45 -1 -47 -1q-5 0 -7 -6q-23 -70 -60 -188q-1 -3 -4 -3l-18.5 1t-29.5 1q-10 0 -28 -1&#xA;t-21 -1q-4 0 -1 7q44 118 141 383q80 225 98 289q2 6 6 6q1 0 19.5 -1t29.5 -1t29.5 1t20.5 1q5 0 6 -4q111 -357 243 -676q2 -5 -2 -5q1 0 -19 1t-33 1q-11 0 -34 -1t-24 -1q-3 0 -5 7zM306 764q-35 21 -61 21q-34 0 -61 -25q-3 -3 -5 3q-24 36 -28 41q-2 2 -2 4t2 3&#xA;q46 41 102 41q41 0 78 -22q32 -19 55 -19q26 0 55 24q3 6 5 0.5t14 -25t13 -22.5q3 -2 -1 -6q-46 -38 -92 -38q-32 0 -74 20z"></glyph>
    <glyph glyph-name="Adieresis" unicode="Ä" horiz-adv-x="635" d="M405 274q6 0 4 6l-86 259q-1 3 -6 25q-4 19 -5 19t-2 -12q-2 -17 -7 -30l-89 -260q-2 -7 6 -7h35q32 -1 52 -1q22 0 59 1h39zM497 6q-13 44 -56 184q-2 6 -8 6q-1 0 -49 1h-75h-72q-45 -1 -47 -1q-5 0 -7 -6q-23 -70 -60 -188q-1 -3 -4 -3l-18.5 1t-29.5 1q-10 0 -28 -1&#xA;t-21 -1q-4 0 -1 7q44 118 141 383q80 225 98 289q2 6 6 6q1 0 19.5 -1t29.5 -1t29.5 1t20.5 1q5 0 6 -4q111 -357 243 -676q2 -5 -2 -5q1 0 -19 1t-33 1q-11 0 -34 -1t-24 -1q-3 0 -5 7zM263 850q6 0 6 -6v-16q-1 -16 -1 -26t1 -28v-19q0 -5 -5 -5q-1 0 -18 1h-28h-25&#xA;l-15 -1q-5 0 -5 5l1 17v29v27l-1 17q0 5 4 5q-1 0 15 0q16 -1 29 -1q12 0 28 1q15 0 14 0zM448 850q6 0 6 -6v-16q-1 -16 -1 -26t1 -28v-19q0 -5 -5 -5q-1 0 -18 1h-28h-25l-15 -1q-5 0 -5 5l1 17v29v27l-1 17q0 5 4 5q-1 0 15 0q16 -1 29 -1q12 0 28 1q15 0 14 0z"></glyph>
    <glyph glyph-name="Aring" unicode="Å" horiz-adv-x="635" d="M405 274q6 0 4 6l-86 259q-1 3 -6 25q-4 19 -5 19t-2 -12q-2 -17 -7 -30l-89 -260q-2 -7 6 -7h35q32 -1 52 -1q22 0 59 1h39zM497 6q-13 44 -56 184q-2 6 -8 6q-1 0 -49 1h-75h-72q-45 -1 -47 -1q-5 0 -7 -6q-23 -70 -60 -188q-1 -3 -4 -3l-18.5 1t-29.5 1q-10 0 -28 -1&#xA;t-21 -1q-4 0 -1 7q44 118 141 383q80 225 98 289q2 6 6 6q1 0 19.5 -1t29.5 -1t29.5 1t20.5 1q5 0 6 -4q111 -357 243 -676q2 -5 -2 -5q1 0 -19 1t-33 1q-11 0 -34 -1t-24 -1q-3 0 -5 7zM319 910q43 0 73 -30t30 -73t-31 -74t-74 -31t-74 31t-31 74q0 42 32 72.5t75 30.5z&#xA;M317 862q-22 0 -38 -16t-16 -39t16 -39.5t38 -16.5t38 16.5t16 39.5t-16 39t-38 16z"></glyph>
    <glyph glyph-name="AE" unicode="Æ" horiz-adv-x="810" d="M413 597q0 9 -1 17q1 0 -22 -45l-150 -288q-4 -7 5 -7h38q35 -1 55 -1q52 0 72 1q4 0 4 5v73zM191 190q-73 -128 -96 -188q-1 -3 -4 -3l-17.5 1t-28.5 1q-10 0 -32 -1t-25 -1q-4 0 0 7q105 179 192 343q71 137 172 330q3 6 7 6q-1 0 66.5 -1.5t95.5 -1.5q84 0 142 1&#xA;q40 1 66 2q21 1 18 1q6 0 6 -5v-13q-1 -11 -1 -23t1 -28q0 -16 0 -15q0 -3 -5 -3q-6 0 -71 2.5t-78 2.5q-55 0 -89 -1q-7 0 -7 -10q-1 -38 -1 -68l-1 -26q0 -34 1 -97q0 -5 6 -5q62 -1 99 -1q15 0 61.5 2.5t48.5 2.5q5 0 5 -6v-16q-1 -16 -1 -24t1 -23v-15q0 -5 -3 -5&#xA;q6 0 -41 2t-83 2q-25 0 -89 -1q-4 0 -4 -7q-1 -54 -1 -114q0 -4 1 -32q0 -34 1 -74q0 -5 5 -5q22 -1 91 -1q46 0 105.5 2.5t56.5 2.5q4 0 4 -5q0 1 0 -13q-1 -13 -1 -25q0 -10 1 -26v-16q0 -4 -4 -4q12 0 -74 2t-155 2q-21 0 -69 -1.5l-48 -1.5q-6 0 -6 6q0 -3 2 54&#xA;q1 62 2 131q0 6 -4 6q-30 1 -89 1h-73q-46 -1 -48 -1q-5 0 -8 -6z"></glyph>
    <glyph glyph-name="Ccedilla" unicode="Ç" horiz-adv-x="601" d="M391 -15l-4 -28q0 -5 4 -5q31 -4 51 -24q24 -22 24 -57q0 -43 -30 -72q-33 -31 -88 -31q-26 0 -52 10q-4 2 -2 7q6 14 12 40q2 5 5 2q19 -8 38 -8q57 0 57 48q0 44 -54 44q-15 0 -24 -1q-3 0 -3 3l9 74q-122 12 -198 102q-81 97 -81 255q0 172 102 270q91 86 222 86&#xA;q104 0 183 -49q5 -3 3 -7q-21 -32 -41 -77q-3 -6 -6 -3q-73 52 -149 52q-85 0 -143 -60q-68 -71 -68 -199q0 -133 60 -209t159 -76q63 0 143 42q7 4 9 -2q13 -35 35 -73q2 -3 -1 -6q-76 -44 -172 -48z"></glyph>
    <glyph glyph-name="Egrave" unicode="È" horiz-adv-x="509" d="M185 89q0 -5 5 -5q17 -1 91 -1q46 0 114 2t65 2q4 0 4 -5q0 1 0 -13q-1 -14 -1 -26q0 -10 1 -25v-16q0 -4 -4 -4q12 0 -85 1.5t-166 1.5q-21 0 -69.5 -1l-48.5 -1q-6 0 -6 6q0 1 1 48q2 57 3 116q1 87 1 183t-1 177q-1 55 -3 105q-1 41 -1 42q0 8 7 8q-1 0 38.5 -1&#xA;t67.5 -1q84 0 147 1q45 0 77 1q27 1 24 1q6 0 6 -5q0 -2 -1 -13.5t-1 -23.5t1 -27t1 -14q0 -3 -5 -3q-6 0 -79.5 2t-86.5 2q-60 0 -89 -1q-7 0 -7 -10q-1 -38 -1 -68l-1 -25q0 -32 1 -95q0 -5 6 -5q57 -2 99 -2q49 0 90.5 2t36.5 2q5 0 5 -6v-16q-1 -16 -1 -24t1 -24v-15&#xA;q0 -5 -3 -5q6 0 -49.5 2t-91.5 2q-30 0 -89 -2q-4 0 -4 -7q-1 -54 -1 -112q0 -4 1 -31q0 -34 1 -74zM263 738q-30 44 -105 150q-5 7 5 7h21q16 -1 25 -1q10 0 24 1h17q8 0 11 -7q44 -90 76 -148q4 -8 -4 -8q-3 0 -12 1h-15.5h-16.5q-10 -1 -14 -1q-8 0 -12 6z"></glyph>
    <glyph glyph-name="Eacute" unicode="É" horiz-adv-x="509" d="M185 89q0 -5 5 -5q17 -1 91 -1q46 0 114 2t65 2q4 0 4 -5q0 1 0 -13q-1 -14 -1 -26q0 -10 1 -25v-16q0 -4 -4 -4q12 0 -85 1.5t-166 1.5q-21 0 -69.5 -1l-48.5 -1q-6 0 -6 6q0 1 1 48q2 57 3 116q1 87 1 183t-1 177q-1 55 -3 105q-1 41 -1 42q0 8 7 8q-1 0 38.5 -1&#xA;t67.5 -1q84 0 147 1q45 0 77 1q27 1 24 1q6 0 6 -5q0 -2 -1 -13.5t-1 -23.5t1 -27t1 -14q0 -3 -5 -3q-6 0 -79.5 2t-86.5 2q-60 0 -89 -1q-7 0 -7 -10q-1 -38 -1 -68l-1 -25q0 -32 1 -95q0 -5 6 -5q57 -2 99 -2q49 0 90.5 2t36.5 2q5 0 5 -6v-16q-1 -16 -1 -24t1 -24v-15&#xA;q0 -5 -3 -5q6 0 -49.5 2t-91.5 2q-30 0 -89 -2q-4 0 -4 -7q-1 -54 -1 -112q0 -4 1 -31q0 -34 1 -74zM277 738q-4 -6 -12 -6q-4 0 -14 1h-16.5h-15.5q-9 -1 -12 -1q-8 0 -4 8q32 58 76 148q3 7 11 7h17q14 -1 24 -1q9 0 25 1h21q10 0 5 -7q-32 -43 -105 -150z"></glyph>
    <glyph glyph-name="Ecircumflex" unicode="Ê" horiz-adv-x="509" d="M257 825q-2 0 -18 -17l-64 -69q-8 -6 -12 -6t-13 1h-15.5h-14.5q-9 -1 -12 -1q-11 0 -4 8q54 66 113 148q5 7 11 7h9q9 -1 26 -1q13 0 22 1h10q6 0 11 -7q30 -41 114 -148q6 -8 -4 -8q-3 0 -12 1h-15.5h-17.5q-11 -1 -15 -1t-12.5 7.5t-29.5 28.5t-33 34q-21 22 -24 22z&#xA;M185 89q0 -5 5 -5q17 -1 91 -1q46 0 114 2t65 2q4 0 4 -5q0 1 0 -13q-1 -14 -1 -26q0 -10 1 -25v-16q0 -4 -4 -4q12 0 -85 1.5t-166 1.5q-21 0 -69.5 -1l-48.5 -1q-6 0 -6 6q0 1 1 48q2 57 3 116q1 87 1 183t-1 177q-1 55 -3 105q-1 41 -1 42q0 8 7 8q-1 0 38.5 -1t67.5 -1&#xA;q84 0 147 1q45 0 77 1q27 1 24 1q6 0 6 -5q0 -2 -1 -13.5t-1 -23.5t1 -27t1 -14q0 -3 -5 -3q-6 0 -79.5 2t-86.5 2q-60 0 -89 -1q-7 0 -7 -10q-1 -38 -1 -68l-1 -25q0 -32 1 -95q0 -5 6 -5q57 -2 99 -2q49 0 90.5 2t36.5 2q5 0 5 -6v-16q-1 -16 -1 -24t1 -24v-15q0 -5 -3 -5&#xA;q6 0 -49.5 2t-91.5 2q-30 0 -89 -2q-4 0 -4 -7q-1 -54 -1 -112q0 -4 1 -31q0 -34 1 -74z"></glyph>
    <glyph glyph-name="Edieresis" unicode="Ë" horiz-adv-x="509" d="M185 89q0 -5 5 -5q17 -1 91 -1q46 0 114 2t65 2q4 0 4 -5q0 1 0 -13q-1 -14 -1 -26q0 -10 1 -25v-16q0 -4 -4 -4q12 0 -85 1.5t-166 1.5q-21 0 -69.5 -1l-48.5 -1q-6 0 -6 6q0 1 1 48q2 57 3 116q1 87 1 183t-1 177q-1 55 -3 105q-1 41 -1 42q0 8 7 8q-1 0 38.5 -1&#xA;t67.5 -1q84 0 147 1q45 0 77 1q27 1 24 1q6 0 6 -5q0 -2 -1 -13.5t-1 -23.5t1 -27t1 -14q0 -3 -5 -3q-6 0 -79.5 2t-86.5 2q-60 0 -89 -1q-7 0 -7 -10q-1 -38 -1 -68l-1 -25q0 -32 1 -95q0 -5 6 -5q57 -2 99 -2q49 0 90.5 2t36.5 2q5 0 5 -6v-16q-1 -16 -1 -24t1 -24v-15&#xA;q0 -5 -3 -5q6 0 -49.5 2t-91.5 2q-30 0 -89 -2q-4 0 -4 -7q-1 -54 -1 -112q0 -4 1 -31q0 -34 1 -74zM216 850q6 0 6 -6v-16q-1 -16 -1 -26t1 -28v-19q0 -5 -5 -5q-1 0 -18 1h-28h-25l-15 -1q-5 0 -5 5l1 17v29v27l-1 17q0 5 4 5q-1 0 15 0q16 -1 29 -1q12 0 28 1q15 0 14 0z&#xA;M401 850q6 0 6 -6v-16q-1 -16 -1 -26t1 -28v-19q0 -5 -5 -5q-1 0 -18 1h-28h-25l-15 -1q-5 0 -5 5l1 17v29v27l-1 17q0 5 4 5q-1 0 15 0q16 -1 29 -1q12 0 28 1q15 0 14 0z"></glyph>
    <glyph glyph-name="Igrave" unicode="Ì" horiz-adv-x="280" d="M137 1q-10 0 -29 -1l-19 -1q-4 0 -4 5q0 1 1 49q2 56 3 116q1 87 1 183t-1 177q-1 56 -3 106q-1 42 -1 43q0 6 4 6l18 -1t28 -1q13 0 34.5 1t20.5 1q5 0 5 -5q0 3 -2 -38q-1 -48 -2 -107q-2 -84 -2 -185q0 -102 1 -189q1 -61 3 -113q1 -45 1 -43q0 -5 -5 -5l-20.5 1&#xA;t-31.5 1zM129 738q-30 44 -105 150q-5 7 5 7h21q16 -1 25 -1q10 0 24 1h17q8 0 11 -7q44 -90 76 -148q4 -8 -4 -8q-3 0 -12 1h-15.5h-16.5q-10 -1 -14 -1q-8 0 -12 6z"></glyph>
    <glyph glyph-name="Iacute" unicode="Í" horiz-adv-x="280" d="M137 1q-10 0 -29 -1l-19 -1q-4 0 -4 5q0 1 1 49q2 56 3 116q1 87 1 183t-1 177q-1 56 -3 106q-1 42 -1 43q0 6 4 6l18 -1t28 -1q13 0 34.5 1t20.5 1q5 0 5 -5q0 3 -2 -38q-1 -48 -2 -107q-2 -84 -2 -185q0 -102 1 -189q1 -61 3 -113q1 -45 1 -43q0 -5 -5 -5l-20.5 1&#xA;t-31.5 1zM142 738q-4 -6 -12 -6q-4 0 -14 1h-16.5h-15.5q-9 -1 -12 -1q-8 0 -4 8q32 58 76 148q3 7 11 7h17q14 -1 24 -1q9 0 25 1h21q10 0 5 -7q-32 -43 -105 -150z"></glyph>
    <glyph glyph-name="Icircumflex" unicode="Î" horiz-adv-x="280" d="M140 824l-13 -17q-20 -26 -48 -68q-5 -7 -9 -7q-3 0 -13 1h-14h-13q-9 -1 -12 -1q-7 0 -3 9q44 71 85 148q4 7 8 7h12q12 -1 25 -1q9 0 21 1h13q4 0 8 -7q51 -91 86 -148q5 -9 -3 -9q-3 0 -12 1h-14h-15q-11 -1 -14 -1q-4 0 -9 7l-48 64q-15 21 -18 21zM137 1&#xA;q-10 0 -29 -1l-19 -1q-4 0 -4 5q0 1 1 49q2 56 3 116q1 87 1 183t-1 177q-1 56 -3 106q-1 42 -1 43q0 6 4 6l18 -1t28 -1q13 0 34.5 1t20.5 1q5 0 5 -5q0 3 -2 -38q-1 -48 -2 -107q-2 -84 -2 -185q0 -102 1 -189q1 -61 3 -113q1 -45 1 -43q0 -5 -5 -5l-20.5 1t-31.5 1z"></glyph>
    <glyph glyph-name="Idieresis" unicode="Ï" horiz-adv-x="280" d="M106 850q6 0 6 -6v-16q-1 -16 -1 -26t1 -28v-19q0 -5 -5 -5q-1 0 -16 1h-25h-23l-12 -1q-5 0 -5 5l1 17v29v27l-1 17q0 5 4 5q-1 0 12 0q14 -1 27 -1t27 1q14 0 10 0zM249 850q6 0 6 -6v-16q-1 -16 -1 -26t1 -28v-19q0 -5 -5 -5q-1 0 -16 1h-25q-20 0 -35 -1q-5 0 -5 5&#xA;l1 17v29v27l-1 17q0 5 4 5q-4 0 11 0q15 -1 28 -1q12 0 25 1q13 0 12 0zM137 1q-10 0 -29 -1l-19 -1q-4 0 -4 5q0 1 1 49q2 56 3 116q1 87 1 183t-1 177q-1 56 -3 106q-1 42 -1 43q0 6 4 6l18 -1t28 -1q13 0 34.5 1t20.5 1q5 0 5 -5q0 3 -2 -38q-1 -48 -2 -107&#xA;q-2 -84 -2 -185q0 -102 1 -189q1 -61 3 -113q1 -45 1 -43q0 -5 -5 -5l-20.5 1t-31.5 1z"></glyph>
    <glyph glyph-name="Eth" unicode="Ð" horiz-adv-x="670" d="M91 324h-44l-34 -1q-8 0 -8 6q0 1 1 10v17v19q-1 12 -1 13q0 9 6 9h36q36 -1 44 -1q0 122 -3 205.5t-3 75.5q0 7 10 7q92 4 180 4q168 0 252 -82q88 -86 88 -255q0 -185 -89 -272q-82 -81 -233 -81q-8 0 -57 1.5t-79 1.5q-13 0 -34 -1t-26 -1q-11 0 -11 13q0 -8 2 89&#xA;q2 102 3 223zM206 324h-17q0 -59 2 -146t2 -84q0 -7 5 -7q29 -3 101 -3q106 0 159 61q56 65 56 196q0 134 -63 200q-59 62 -185 62q-50 0 -66 -2q-7 0 -7 -6l-2 -68q-1 -74 -2 -131h17q37 0 94 1q56 0 52 0q9 0 9 -7v-13q-1 -11 -1 -19q0 -7 1 -18v-12q0 -5 -7 -5q4 0 -54 1&#xA;h-94z"></glyph>
    <glyph glyph-name="Ntilde" unicode="Ñ" horiz-adv-x="714" d="M158 682q16 0 42.5 1.5t28.5 1.5q5 0 10 -10q62 -133 262 -497q16 -30 25 -54q5 -16 6 -16v79q0 126 -3 312t-3 178q0 7 6 7q2 0 18.5 -1t26.5 -1q11 0 27 1t19 1q6 0 6 -6q0 3 -2 -38q-1 -48 -2 -106q-2 -84 -2 -185q0 -102 1 -189q1 -60 2 -111q1 -45 1 -43q0 -7 -6 -7&#xA;l-23 1t-46 1q-14 0 -37.5 -1.5t-29.5 -1.5q-5 1 -9 9q-57 116 -279 530q-7 13 -12 31q-4 12 -5 12q1 0 1 -58q0 -191 3 -357.5t3 -161.5q0 -4 -5 -4l-21.5 1t-28.5 1q-10 0 -24.5 -1t-16.5 -1q-6 0 -6 6q0 1 1 48q2 57 3 116q1 87 1 183t-1 177q-1 55 -2 105q-1 41 -1 42&#xA;q0 8 7 8q1 0 24.5 -1t40.5 -1zM342 764q-35 21 -61 21q-34 0 -61 -25q-3 -3 -5 3q-24 36 -28 41q-2 2 -2 4t2 3q46 41 102 41q41 0 78 -22q32 -19 55 -19q26 0 55 24q3 6 5 0.5t14 -25t13 -22.5q3 -2 -1 -6q-46 -38 -92 -38q-32 0 -74 20z"></glyph>
    <glyph glyph-name="Ograve" unicode="Ò" horiz-adv-x="743" d="M379 701q139 0 224 -96t85 -253q0 -164 -89 -265.5t-234 -101.5q-139 0 -224.5 100t-85.5 258q0 159 91 258.5t233 99.5zM369 616q-94 0 -152 -70q-59 -73 -59 -194q0 -127 60.5 -203.5t155.5 -76.5t153 75t58 198q0 122 -60.5 196.5t-155.5 74.5zM369 738&#xA;q-30 44 -105 150q-5 7 5 7h21q16 -1 25 -1q10 0 24 1h17q8 0 11 -7q44 -90 76 -148q4 -8 -4 -8q-3 0 -12 1h-15.5h-16.5q-10 -1 -14 -1q-8 0 -12 6z"></glyph>
    <glyph glyph-name="Oacute" unicode="Ó" horiz-adv-x="743" d="M379 701q139 0 224 -96t85 -253q0 -164 -89 -265.5t-234 -101.5q-139 0 -224.5 100t-85.5 258q0 159 91 258.5t233 99.5zM369 616q-94 0 -152 -70q-59 -73 -59 -194q0 -127 60.5 -203.5t155.5 -76.5t153 75t58 198q0 122 -60.5 196.5t-155.5 74.5zM386 738q-4 -6 -12 -6&#xA;q-4 0 -14 1h-16.5h-15.5q-9 -1 -12 -1q-8 0 -4 8q32 58 76 148q3 7 11 7h17q14 -1 24 -1q9 0 25 1h21q10 0 5 -7q-32 -43 -105 -150z"></glyph>
    <glyph glyph-name="Ocircumflex" unicode="Ô" horiz-adv-x="743" d="M379 701q139 0 224 -96t85 -253q0 -164 -89 -265.5t-234 -101.5q-139 0 -224.5 100t-85.5 258q0 159 91 258.5t233 99.5zM369 616q-94 0 -152 -70q-59 -73 -59 -194q0 -127 60.5 -203.5t155.5 -76.5t153 75t58 198q0 122 -60.5 196.5t-155.5 74.5zM371 824q-2 0 -18 -17&#xA;l-64 -69q-8 -6 -12 -6t-13 1h-15.5h-14.5q-9 -1 -12 -1q-11 0 -4 8q54 66 113 148q5 7 11 7h9q9 -1 26 -1q13 0 22 1h10q6 0 11 -7q30 -41 114 -148q6 -8 -4 -8q-3 0 -12 1h-15.5h-17.5q-11 -1 -15 -1t-12.5 7.5t-29.5 28.5t-33 34q-21 22 -24 22z"></glyph>
    <glyph glyph-name="Otilde" unicode="Õ" horiz-adv-x="743" d="M379 701q139 0 224 -96t85 -253q0 -164 -89 -265.5t-234 -101.5q-139 0 -224.5 100t-85.5 258q0 159 91 258.5t233 99.5zM369 616q-94 0 -152 -70q-59 -73 -59 -194q0 -127 60.5 -203.5t155.5 -76.5t153 75t58 198q0 122 -60.5 196.5t-155.5 74.5zM370 764q-35 21 -61 21&#xA;q-34 0 -61 -25q-3 -3 -5 3q-24 36 -28 41q-2 2 -2 4t2 3q46 41 102 41q41 0 78 -22q32 -19 55 -19q26 0 55 24q3 6 5 0.5t14 -25t13 -22.5q3 -2 -1 -6q-46 -38 -92 -38q-32 0 -74 20z"></glyph>
    <glyph glyph-name="Odieresis" unicode="Ö" horiz-adv-x="743" d="M379 701q139 0 224 -96t85 -253q0 -164 -89 -265.5t-234 -101.5q-139 0 -224.5 100t-85.5 258q0 159 91 258.5t233 99.5zM369 616q-94 0 -152 -70q-59 -73 -59 -194q0 -127 60.5 -203.5t155.5 -76.5t153 75t58 198q0 122 -60.5 196.5t-155.5 74.5zM321 850q6 0 6 -6v-16&#xA;q-1 -16 -1 -26t1 -28v-19q0 -5 -5 -5q-1 0 -18 1h-28h-25l-15 -1q-5 0 -5 5l1 17v29v27l-1 17q0 5 4 5q-1 0 15 0q16 -1 29 -1q12 0 28 1q15 0 14 0zM506 850q6 0 6 -6v-16q-1 -16 -1 -26t1 -28v-19q0 -5 -5 -5q-1 0 -18 1h-28h-25l-15 -1q-5 0 -5 5l1 17v29v27l-1 17&#xA;q0 5 4 5q-1 0 15 0q16 -1 29 -1q12 0 28 1q15 0 14 0z"></glyph>
    <glyph glyph-name="multiply" unicode="×" d="M255 203q-3 3 -8 -1q-71 -78 -148 -161q-5 -5 -9 -1l-23 23q-6 6 -15 14t-10 9q-3 4 2 9l158 158q2 2 -2 8q-75 74 -161 160q-1 1 -1 4q0 2 1 3q5 4 26 24l24 24q3 3 9 -4q53 -57 151 -158q5 -4 8 -1q71 79 149 165q4 4 9.5 -2t22.5 -23q7 -7 16 -15q5 -4 9 -8q5 -3 0 -8&#xA;q-23 -15 -156 -157q-5 -5 -2 -8q99 -105 160 -160q4 -4 0 -8q-7 -7 -22.5 -21.5t-22.5 -21.5t-12 -2q-54 60 -153 159z"></glyph>
    <glyph glyph-name="Oslash" unicode="Ø" horiz-adv-x="753" d="M231 17l-36 -69q-4 -7 -9 -4l-59 35q-5 3 -2 7l45 73q-110 100 -110 284q0 159 91 258.5t233 99.5q75 0 139 -31l36 68q3 4 7 2l62 -34q4 -2 0 -8l-43 -70q108 -97 108 -276q0 -160 -91 -263.5t-232 -103.5q-77 0 -139 32zM222 149l254 441q-47 28 -102 28&#xA;q-94 0 -152.5 -72t-58.5 -194q0 -123 59 -203zM278 98q45 -28 101 -28q93 0 152 76t59 199q0 117 -57 193z"></glyph>
    <glyph glyph-name="Ugrave" unicode="Ù" horiz-adv-x="658" d="M583 262q0 -145 -75 -215q-66 -62 -184 -62q-249 0 -249 258q0 151 1 213q0 30 -3 128.5t-3 93.5q0 6 6 6q2 0 21 -1t31 -1q9 0 26.5 1t19.5 1q7 0 7 -8q0 5 -3 -74t-3 -150v-192q2 -190 151 -190q73 0 110 33q49 43 50 150q1 71 1 199q0 71 -2 150t-2 74q0 8 7 8&#xA;q2 0 17.5 -1t24.5 -1q12 0 30 1t20 1q6 0 6 -6q0 5 -3 -93.5t-3 -128.5q1 -63 1 -194zM329 738q-30 44 -105 150q-5 7 5 7h21q16 -1 25 -1q10 0 24 1h17q8 0 11 -7q44 -90 76 -148q4 -8 -4 -8q-3 0 -12 1h-15.5h-16.5q-10 -1 -14 -1q-8 0 -12 6z"></glyph>
    <glyph glyph-name="Uacute" unicode="Ú" horiz-adv-x="658" d="M583 262q0 -145 -75 -215q-66 -62 -184 -62q-249 0 -249 258q0 151 1 213q0 30 -3 128.5t-3 93.5q0 6 6 6q2 0 21 -1t31 -1q9 0 26.5 1t19.5 1q7 0 7 -8q0 5 -3 -74t-3 -150v-192q2 -190 151 -190q73 0 110 33q49 43 50 150q1 71 1 199q0 71 -2 150t-2 74q0 8 7 8&#xA;q2 0 17.5 -1t24.5 -1q12 0 30 1t20 1q6 0 6 -6q0 5 -3 -93.5t-3 -128.5q1 -63 1 -194zM340 738q-4 -6 -12 -6q-4 0 -14 1h-16.5h-15.5q-9 -1 -12 -1q-8 0 -4 8q32 58 76 148q3 7 11 7h17q14 -1 24 -1q9 0 25 1h21q10 0 5 -7q-32 -43 -105 -150z"></glyph>
    <glyph glyph-name="Ucircumflex" unicode="Û" horiz-adv-x="658" d="M583 262q0 -145 -75 -215q-66 -62 -184 -62q-249 0 -249 258q0 151 1 213q0 30 -3 128.5t-3 93.5q0 6 6 6q2 0 21 -1t31 -1q9 0 26.5 1t19.5 1q7 0 7 -8q0 5 -3 -74t-3 -150v-192q2 -190 151 -190q73 0 110 33q49 43 50 150q1 71 1 199q0 71 -2 150t-2 74q0 8 7 8&#xA;q2 0 17.5 -1t24.5 -1q12 0 30 1t20 1q6 0 6 -6q0 5 -3 -93.5t-3 -128.5q1 -63 1 -194zM331 825q-2 0 -18 -17l-64 -69q-8 -6 -12 -6t-13 1h-15.5h-14.5q-9 -1 -12 -1q-11 0 -4 8q54 66 113 148q5 7 11 7h9q9 -1 26 -1q13 0 22 1h10q6 0 11 -7q30 -41 114 -148q6 -8 -4 -8&#xA;q-3 0 -12 1h-15.5h-17.5q-11 -1 -15 -1t-12.5 7.5t-29.5 28.5t-33 34q-21 22 -24 22z"></glyph>
    <glyph glyph-name="Udieresis" unicode="Ü" horiz-adv-x="658" d="M583 262q0 -145 -75 -215q-66 -62 -184 -62q-249 0 -249 258q0 151 1 213q0 30 -3 128.5t-3 93.5q0 6 6 6q2 0 21 -1t31 -1q9 0 26.5 1t19.5 1q7 0 7 -8q0 5 -3 -74t-3 -150v-192q2 -190 151 -190q73 0 110 33q49 43 50 150q1 71 1 199q0 71 -2 150t-2 74q0 8 7 8&#xA;q2 0 17.5 -1t24.5 -1q12 0 30 1t20 1q6 0 6 -6q0 5 -3 -93.5t-3 -128.5q1 -63 1 -194zM279 850q6 0 6 -6v-16q-1 -16 -1 -26t1 -28v-19q0 -5 -5 -5q-1 0 -18 1h-28h-25l-15 -1q-5 0 -5 5l1 17v29v27l-1 17q0 5 4 5q-1 0 15 0q16 -1 29 -1q12 0 28 1q15 0 14 0zM464 850&#xA;q6 0 6 -6v-16q-1 -16 -1 -26t1 -28v-19q0 -5 -5 -5q-1 0 -18 1h-28h-25l-15 -1q-5 0 -5 5l1 17v29v27l-1 17q0 5 4 5q-1 0 15 0q16 -1 29 -1q12 0 28 1q15 0 14 0z"></glyph>
    <glyph glyph-name="Yacute" unicode="Ý" horiz-adv-x="524" d="M217 260q0 7 -1 9q-13 31 -97 198q-55 110 -112 211q-3 6 2 6l23.5 -1t36.5 -1q12 0 31 1l19 1q4 0 7 -7q26 -61 67 -151l72 -158q4 -8 7 1q16 35 62.5 139t71.5 168q3 8 9 8l15.5 -1t28.5 -1t34 1l21 1q7 0 4 -6q-69 -131 -115 -225q-57 -117 -85 -179q-2 -4 -4 -14&#xA;q-1 -26 -1 -95q0 -43 2 -103t2 -56q0 -7 -6 -7q-2 0 -20 1t-28 1t-25.5 -1t-17.5 -1q-6 0 -6 6q0 -5 2 61t2 110v53q-1 29 -1 31zM272 739q-5 -7 -12 -7q-4 0 -14 1h-16.5h-15.5q-9 -1 -12 -1q-9 0 -4 8q19 35 76 149q3 6 11 6h17q14 -1 24 -1q9 0 25 1h21q10 0 5 -7l-6 -8&#xA;q-52 -71 -99 -141z"></glyph>
    <glyph glyph-name="Thorn" unicode="Þ" horiz-adv-x="555" d="M293 250q130 0 130 127q0 54 -37.5 80t-104.5 26h-49q-31 -1 -39 -1t-8 -10v-43q-1 -36 -1 -59q0 -66 1 -108q0 -10 9 -11t99 -1zM191 677q0 -1 -2 -48.5t-2 -64.5q0 -5 6 -5q41 1 97 1q128 0 186 -60q44 -45 44 -119q0 -91 -52 -147q-61 -65 -179 -65q-15 0 -53 1h-42&#xA;q-8 0 -8 -16q0 -37 2 -90.5t2 -52.5q0 -13 -5 -13q1 0 -13.5 1.5t-29.5 1.5q-13 0 -28 -1t-20 -1q-9 0 -9 8q0 -13 3 107.5t3 264.5q0 95 -1 170q-1 52 -3 92q-1 35 -1 32q0 11 6 11q-1 0 16 0q17 -1 32 -1q13 0 25 1h17q9 0 9 -7z"></glyph>
    <glyph glyph-name="germandbls" unicode="ß" horiz-adv-x="585" d="M414 608q0 37 -33 60q-28 20 -72 20q-62 0 -92.5 -36.5t-30.5 -103.5v-150q0 -137 2 -238q1 -72 2 -121q2 -42 2 -35q0 -5 -4 -5l-18.5 1t-29.5 1q-14 0 -31 -1l-17 -1q-3 0 -3 4q0 -6 2 37q1 48 2 113q2 92 2 205v37q0 6 -6 6l-67 -3q-7 0 -7 7q0 3 1 18.5t1 16.5t-1 15&#xA;t-1 17q0 6 6 6l67 -3q6 0 6 6v40q0 126 64 185q60 56 163 56q87 0 138 -46q47 -42 47 -107q0 -74 -75 -137q-48 -40 -48 -70q0 -44 57 -89q61 -48 80 -69q40 -45 40 -97q0 -77 -50 -119.5t-133 -42.5q-57 0 -105 17q-7 3 -6 6q11 32 20 78q1 6 8 3q48 -23 92 -23q33 0 57 19&#xA;t24 49q0 52 -73 106l-30 22q-75 55 -75 128q0 39 21 70q15 21 52 53q52 45 52 95z"></glyph>
    <glyph glyph-name="agrave" unicode="à" d="M327 240q0 9 -4 8q-5 -2 -120 -32q-74 -19 -74 -76q0 -35 24 -57q21 -19 48 -19q60 0 107 46q19 19 19 32v98zM415 306v-172q0 -64 32 -64q-4 0 14 4q6 1 6 -6q3 -23 13 -61q5 -20 -54 -20q-61 0 -83 57q-5 12 -7 12q-1 0 -18 -17q-55 -54 -131 -54q-70 0 -112 45&#xA;q-40 41 -40 102q0 58 38 95t110 53q42 9 115 26q26 7 26 19q0 42 -26 66t-70 24q-64 0 -115 -53q-7 -7 -11 -2q-13 18 -43 48q-4 4 1 10q29 33 77.5 52.5t97.5 19.5q76 0 122 -37q58 -47 58 -147zM232 552q-34 54 -105 157q-5 8 5 8h21q16 -1 25 -1q10 0 24 1h17q8 0 11 -7&#xA;q47 -101 76 -156q5 -9 -4 -9q-3 0 -12 1h-15.5h-16.5q-10 -1 -14 -1q-8 0 -12 7z"></glyph>
    <glyph glyph-name="aacute" unicode="á" d="M327 240q0 9 -4 8q-5 -2 -120 -32q-74 -19 -74 -76q0 -35 24 -57q21 -19 48 -19q60 0 107 46q19 19 19 32v98zM415 306v-172q0 -64 32 -64q-4 0 14 4q6 1 6 -6q3 -23 13 -61q5 -20 -54 -20q-61 0 -83 57q-5 12 -7 12q-1 0 -18 -17q-55 -54 -131 -54q-70 0 -112 45&#xA;q-40 41 -40 102q0 58 38 95t110 53q42 9 115 26q26 7 26 19q0 42 -26 66t-70 24q-64 0 -115 -53q-7 -7 -11 -2q-13 18 -43 48q-4 4 1 10q29 33 77.5 52.5t97.5 19.5q76 0 122 -37q58 -47 58 -147zM245 552q-4 -7 -12 -7q-4 0 -14 1h-16.5h-15.5q-9 -1 -12 -1q-9 0 -4 9&#xA;q29 55 76 156q3 7 11 7h17q14 -1 24 -1q9 0 25 1h21q11 0 5 -8q-56 -80 -105 -157z"></glyph>
    <glyph glyph-name="acircumflex" unicode="â" d="M327 240q0 9 -4 8q-5 -2 -120 -32q-74 -19 -74 -76q0 -35 24 -57q21 -19 48 -19q60 0 107 46q19 19 19 32v98zM415 306v-172q0 -64 32 -64q-4 0 14 4q6 1 6 -6q3 -23 13 -61q5 -20 -54 -20q-61 0 -83 57q-5 12 -7 12q-1 0 -18 -17q-55 -54 -131 -54q-70 0 -112 45&#xA;q-40 41 -40 102q0 58 38 95t110 53q42 9 115 26q26 7 26 19q0 42 -26 66t-70 24q-64 0 -115 -53q-7 -7 -11 -2q-13 18 -43 48q-4 4 1 10q29 33 77.5 52.5t97.5 19.5q76 0 122 -37q58 -47 58 -147zM241 642q-2 0 -18 -18l-64 -72q-6 -7 -12 -7q-4 0 -13 1h-15.5h-14.5&#xA;q-9 -1 -12 -1q-11 0 -4 9q50 64 113 156q5 7 11 7h9q9 -1 26 -1q13 0 22 1h10q6 0 11 -7q34 -49 114 -156q7 -9 -4 -9q-3 0 -12 1h-15.5h-17.5q-11 -1 -15 -1q-6 0 -12 7q-20 21 -63 67q-21 23 -24 23z"></glyph>
    <glyph glyph-name="atilde" unicode="ã" d="M327 240q0 9 -4 8q-5 -2 -120 -32q-74 -19 -74 -76q0 -35 24 -57q21 -19 48 -19q60 0 107 46q19 19 19 32v98zM415 306v-172q0 -64 32 -64q-4 0 14 4q6 1 6 -6q3 -23 13 -61q5 -20 -54 -20q-61 0 -83 57q-5 12 -7 12q-1 0 -18 -17q-55 -54 -131 -54q-70 0 -112 45&#xA;q-40 41 -40 102q0 58 38 95t110 53q42 9 115 26q26 7 26 19q0 42 -26 66t-70 24q-64 0 -115 -53q-7 -7 -11 -2q-13 18 -43 48q-4 4 1 10q29 33 77.5 52.5t97.5 19.5q76 0 122 -37q58 -47 58 -147zM237 595q-35 21 -61 21q-34 0 -61 -25q-3 -3 -5 3q-24 36 -28 41q-2 2 -2 4&#xA;t2 3q46 41 102 41q41 0 78 -22q32 -19 55 -19q26 0 55 24q3 6 5 0.5t14 -25t13 -22.5q3 -2 -1 -6q-46 -38 -92 -38q-32 0 -74 20z"></glyph>
    <glyph glyph-name="adieresis" unicode="ä" d="M327 240q0 9 -4 8q-5 -2 -120 -32q-74 -19 -74 -76q0 -35 24 -57q21 -19 48 -19q60 0 107 46q19 19 19 32v98zM415 306v-172q0 -64 32 -64q-4 0 14 4q6 1 6 -6q3 -23 13 -61q5 -20 -54 -20q-61 0 -83 57q-5 12 -7 12q-1 0 -18 -17q-55 -54 -131 -54q-70 0 -112 45&#xA;q-40 41 -40 102q0 58 38 95t110 53q42 9 115 26q26 7 26 19q0 42 -26 66t-70 24q-64 0 -115 -53q-7 -7 -11 -2q-13 18 -43 48q-4 4 1 10q29 33 77.5 52.5t97.5 19.5q76 0 122 -37q58 -47 58 -147zM193 665q6 0 6 -6v-16q-1 -16 -1 -26t1 -28v-19q0 -5 -5 -5q-1 0 -18 1h-28&#xA;h-25l-15 -1q-5 0 -5 5l1 17v29v27l-1 17q0 5 4 5q-1 0 15 0q16 -1 29 -1q12 0 28 1q15 0 14 0zM378 665q6 0 6 -6v-16q-1 -16 -1 -26t1 -28v-19q0 -5 -5 -5q-1 0 -18 1h-28h-25l-15 -1q-5 0 -5 5l1 17v29v27l-1 17q0 5 4 5q-1 0 15 0q16 -1 29 -1q12 0 28 1q15 0 14 0z"></glyph>
    <glyph glyph-name="aring" unicode="å" d="M327 240q0 9 -4 8q-5 -2 -120 -32q-74 -19 -74 -76q0 -35 24 -57q21 -19 48 -19q60 0 107 46q19 19 19 32v98zM415 306v-172q0 -64 32 -64q-4 0 14 4q6 1 6 -6q3 -23 13 -61q5 -20 -54 -20q-61 0 -83 57q-5 12 -7 12q-1 0 -18 -17q-55 -54 -131 -54q-70 0 -112 45&#xA;q-40 41 -40 102q0 58 38 95t110 53q42 9 115 26q26 7 26 19q0 42 -26 66t-70 24q-64 0 -115 -53q-7 -7 -11 -2q-13 18 -43 48q-4 4 1 10q29 33 77.5 52.5t97.5 19.5q76 0 122 -37q58 -47 58 -147zM242 734q43 0 73 -30t30 -73t-31 -74t-74 -31t-74 31t-31 74q0 42 32 72.5&#xA;t75 30.5zM240 686q-22 0 -38 -16t-16 -39t16 -39.5t38 -16.5t38 16.5t16 39.5t-16 39t-38 16z"></glyph>
    <glyph glyph-name="ae" unicode="æ" horiz-adv-x="764" d="M634 297q0 30 -17 64q-29 56 -89 56q-53 0 -89 -55q-26 -41 -26 -65q0 -6 6 -6h208q7 0 7 6zM331 147q-8 37 -8 91q0 9 -4 8q-38 -10 -116 -30q-74 -19 -74 -76q0 -35 24 -57q21 -19 48 -19q62 0 109 46q24 23 21 37zM708 224q-7 0 -91 1h-197q-9 0 -9 -6q0 -66 32 -108&#xA;q36 -48 102 -48t124 55q8 7 12 0q18 -32 36 -50q8 -8 0 -15q-71 -66 -189 -68q-99 -1 -155 71l-12 15q-1 0 -18 -17q-70 -69 -156 -69q-70 0 -112 45q-40 41 -40 102q0 60 38 95.5t110 51.5q45 9 120 27q26 7 26 19q0 48 -35 72q-27 18 -66 18q-60 0 -111 -53q-7 -7 -11 -2&#xA;q-15 17 -45 49q-4 4 1 10q64 71 175 71q82 0 123 -41q10 -14 25 -30q1 0 9.5 9.5t16.5 16.5q53 45 123 45q95 0 145 -66t50 -186q0 -14 -21 -14z"></glyph>
    <glyph glyph-name="ccedilla" unicode="ç" horiz-adv-x="440" d="M230 -13q-83 11 -134 76.5t-51 175.5q0 121 75 189q67 62 169 62q77 0 132 -35q8 -5 3 -12q-16 -23 -37 -69q-3 -7 -12 2q-45 36 -98 36q-65 0 -100 -44t-35 -115q0 -85 38.5 -136t94.5 -51q51 0 100 36q6 6 10 -1q17 -37 36 -62q4 -6 -2 -10q-59 -39 -132 -43l-4 -29&#xA;q-1 -5 4 -5q31 -4 51 -24q24 -22 24 -57q0 -43 -30 -72q-33 -31 -88 -31q-26 0 -52 10q-4 2 -2 7q6 14 12 40q2 5 5 2q19 -8 38 -8q57 0 57 48q0 44 -54 44q-15 0 -24 -1q-3 0 -3 3z"></glyph>
    <glyph glyph-name="egrave" unicode="è" horiz-adv-x="505" d="M461 225h-219h-61q-28 -1 -32 -1q-9 0 -9 -6q0 -62 38 -108.5t93 -46.5q65 0 133 64q9 8 12 0q10 -23 41 -54q8 -8 0 -15q-78 -73 -194 -73q-100 0 -159 66.5t-59 188.5q0 127 85 200q59 50 138 50q96 0 149 -66.5t53 -185.5q0 -14 -9 -13zM368 293q7 0 7 6q0 27 -21 63&#xA;q-32 56 -92 56q-57 0 -92 -55q-26 -40 -26 -65q0 -6 6 -6zM258 552q-34 54 -105 157q-5 8 5 8h21q16 -1 25 -1q10 0 24 1h17q8 0 11 -7q47 -101 76 -156q5 -9 -4 -9q-3 0 -12 1h-15.5h-16.5q-10 -1 -14 -1q-8 0 -12 7z"></glyph>
    <glyph glyph-name="eacute" unicode="é" horiz-adv-x="505" d="M461 225h-219h-61q-28 -1 -32 -1q-9 0 -9 -6q0 -62 38 -108.5t93 -46.5q65 0 133 64q9 8 12 0q10 -23 41 -54q8 -8 0 -15q-78 -73 -194 -73q-100 0 -159 66.5t-59 188.5q0 127 85 200q59 50 138 50q96 0 149 -66.5t53 -185.5q0 -14 -9 -13zM368 293q7 0 7 6q0 27 -21 63&#xA;q-32 56 -92 56q-57 0 -92 -55q-26 -40 -26 -65q0 -6 6 -6zM270 552q-4 -7 -12 -7q-4 0 -14 1h-16.5h-15.5q-9 -1 -12 -1q-9 0 -4 9q29 55 76 156q3 7 11 7h17q14 -1 24 -1q9 0 25 1h21q11 0 5 -8q-56 -80 -105 -157z"></glyph>
    <glyph glyph-name="ecircumflex" unicode="ê" horiz-adv-x="505" d="M461 225h-219h-61q-28 -1 -32 -1q-9 0 -9 -6q0 -62 38 -108.5t93 -46.5q65 0 133 64q9 8 12 0q10 -23 41 -54q8 -8 0 -15q-78 -73 -194 -73q-100 0 -159 66.5t-59 188.5q0 127 85 200q59 50 138 50q96 0 149 -66.5t53 -185.5q0 -14 -9 -13zM368 293q7 0 7 6q0 27 -21 63&#xA;q-32 56 -92 56q-57 0 -92 -55q-26 -40 -26 -65q0 -6 6 -6zM262 642q-2 0 -18 -18l-64 -72q-6 -7 -12 -7q-4 0 -13 1h-15.5h-14.5q-9 -1 -12 -1q-11 0 -4 9q50 64 113 156q5 7 11 7h9q9 -1 26 -1q13 0 22 1h10q6 0 11 -7q34 -49 114 -156q7 -9 -4 -9q-3 0 -12 1h-15.5h-17.5&#xA;q-11 -1 -15 -1q-6 0 -12 7q-20 21 -63 67q-21 23 -24 23z"></glyph>
    <glyph glyph-name="edieresis" unicode="ë" horiz-adv-x="505" d="M461 225h-219h-61q-28 -1 -32 -1q-9 0 -9 -6q0 -62 38 -108.5t93 -46.5q65 0 133 64q9 8 12 0q10 -23 41 -54q8 -8 0 -15q-78 -73 -194 -73q-100 0 -159 66.5t-59 188.5q0 127 85 200q59 50 138 50q96 0 149 -66.5t53 -185.5q0 -14 -9 -13zM368 293q7 0 7 6q0 27 -21 63&#xA;q-32 56 -92 56q-57 0 -92 -55q-26 -40 -26 -65q0 -6 6 -6zM205 665q6 0 6 -6v-16q-1 -16 -1 -26t1 -28v-19q0 -5 -5 -5q-1 0 -18 1h-28h-25l-15 -1q-5 0 -5 5l1 17v29v27l-1 17q0 5 4 5q-1 0 15 0q16 -1 29 -1q12 0 28 1q15 0 14 0zM390 665q6 0 6 -6v-16q-1 -16 -1 -26&#xA;t1 -28v-19q0 -5 -5 -5q-1 0 -18 1h-28h-25l-15 -1q-5 0 -5 5l1 17v29v27l-1 17q0 5 4 5q-1 0 15 0q16 -1 29 -1q12 0 28 1q15 0 14 0z"></glyph>
    <glyph glyph-name="igrave" unicode="ì" horiz-adv-x="253" d="M176 471q0 8 -2 -64t-2 -134v-75q0 -57 2.5 -130.5t2.5 -63.5q0 -5 -5 -5t-22 1t-24 1t-23.5 -1t-22.5 -1q-5 0 -5 6q0 -10 2 62.5t2 132.5v72q0 66 -2 137t-2 61q0 6 6 6q2 0 19.5 -1t24.5 -1q8 0 26 1t19 1q6 0 6 -5zM105 552q-34 54 -105 157q-5 8 5 8h21q16 -1 25 -1&#xA;q10 0 24 1h17q8 0 11 -7q47 -101 76 -156q5 -9 -4 -9q-3 0 -12 1h-15.5h-16.5q-10 -1 -14 -1q-8 0 -12 7z"></glyph>
    <glyph glyph-name="iacute" unicode="í" horiz-adv-x="253" d="M176 471q0 8 -2 -64t-2 -134v-75q0 -57 2.5 -130.5t2.5 -63.5q0 -5 -5 -5t-22 1t-24 1t-23.5 -1t-22.5 -1q-5 0 -5 6q0 -10 2 62.5t2 132.5v72q0 66 -2 137t-2 61q0 6 6 6q2 0 19.5 -1t24.5 -1q8 0 26 1t19 1q6 0 6 -5zM132 552q-4 -7 -12 -7q-4 0 -14 1h-16.5h-15.5&#xA;q-9 -1 -12 -1q-9 0 -4 9q29 55 76 156q3 7 11 7h17q14 -1 24 -1q9 0 25 1h21q11 0 5 -8q-56 -80 -105 -157z"></glyph>
    <glyph glyph-name="icircumflex" unicode="î" horiz-adv-x="253" d="M122 642q-1 0 -13 -18q-29 -43 -48 -72q-5 -7 -9 -7q-3 0 -13 1h-14h-13q-9 -1 -12 -1q-8 0 -3 9q47 82 85 156q4 7 8 7h12q12 -1 25 -1q9 0 21 1h13q4 0 8 -7q47 -89 86 -156q5 -9 -3 -9q-3 0 -12 1h-14h-15q-11 -1 -14 -1q-4 0 -9 7l-48 67q-16 23 -18 23zM176 471&#xA;q0 8 -2 -64t-2 -134v-75q0 -57 2.5 -130.5t2.5 -63.5q0 -5 -5 -5t-22 1t-24 1t-23.5 -1t-22.5 -1q-5 0 -5 6q0 -10 2 62.5t2 132.5v72q0 66 -2 137t-2 61q0 6 6 6q2 0 19.5 -1t24.5 -1q8 0 26 1t19 1q6 0 6 -5z"></glyph>
    <glyph glyph-name="idieresis" unicode="ï" horiz-adv-x="253" d="M94 665q6 0 6 -6v-16q-1 -16 -1 -26t1 -28v-19q0 -5 -5 -5q-1 0 -16 1h-25h-23l-12 -1q-5 0 -5 5l1 17v29v27l-1 17q0 5 4 5q-1 0 12 0q14 -1 27 -1t27 1q14 0 10 0zM237 665q6 0 6 -6v-16q-1 -16 -1 -26t1 -28v-19q0 -5 -5 -5q-1 0 -16 1h-25q-20 0 -35 -1q-5 0 -5 5&#xA;l1 17v29v27l-1 17q0 5 4 5q-4 0 11 0q15 -1 28 -1q12 0 25 1q13 0 12 0zM176 471q0 8 -2 -64t-2 -134v-75q0 -57 2.5 -130.5t2.5 -63.5q0 -5 -5 -5t-22 1t-24 1t-23.5 -1t-22.5 -1q-5 0 -5 6q0 -10 2 62.5t2 132.5v72q0 66 -2 137t-2 61q0 6 6 6q2 0 19.5 -1t24.5 -1&#xA;q8 0 26 1t19 1q6 0 6 -5z"></glyph>
    <glyph glyph-name="eth" unicode="ð" horiz-adv-x="551" d="M401 367q-1 7 -9 13q-44 34 -105 34q-70 0 -109 -51q-36 -47 -36 -121q0 -82 40 -130.5t97 -48.5q59 0 98 52t39 145q0 35 -15 107zM301 694l43 44q4 4 8 0l36 -38q3 -5 0 -8l-44 -42q171 -179 171 -382q0 -127 -60 -203q-64 -80 -178 -80q-99 0 -164 66q-68 69 -68 183&#xA;q0 118 67 187t181 69q34 0 49 -5q12 -4 12 -1q0 2 -9 17q-26 43 -66 89l-46 -45q-4 -4 -7 0l-37 39q-2 3 2 7l47 43q-36 36 -66 61q-4 4 -1 8q27 30 44 56q3 5 8 0q39 -29 78 -65z"></glyph>
    <glyph glyph-name="ntilde" unicode="ñ" horiz-adv-x="559" d="M185 418q74 72 160 72q57 0 92 -32q43 -40 43 -119v-114q0 -71 1 -128q1 -40 2 -70q1 -26 1 -23q0 -5 -5 -5l-17.5 1t-25.5 1t-28 -1l-20 -1q-5 0 -5 5q0 -2 1 24.5t2 65.5q1 56 1 128v101q0 88 -67 88q-58 0 -127 -72q-13 -14 -13 -30v-106q0 -54 1 -105q1 -36 2 -69&#xA;q1 -28 1 -26q0 -4 -4 -4l-18 1t-26 1q-9 0 -29 -1l-20 -1q-4 0 -4 4q0 -11 2 59.5t2 137.5v42q0 99 -8.5 167t-8.5 58q0 4 7 4q36 2 83 7q5 0 7 -9q4 -18 8 -51q0 -5 3 -5q2 0 7 5zM289 595q-35 21 -61 21q-34 0 -61 -25q-3 -3 -5 3q-24 36 -28 41q-2 2 -2 4t2 3&#xA;q46 41 102 41q41 0 78 -22q32 -19 55 -19q26 0 55 24q3 6 5 0.5t14 -25t13 -22.5q3 -2 -1 -6q-46 -38 -92 -38q-32 0 -74 20z"></glyph>
    <glyph glyph-name="ograve" unicode="ò" horiz-adv-x="558" d="M288 490q93 0 156 -60q69 -68 69 -187q0 -109 -62 -181q-66 -77 -178 -77q-97 0 -161 66q-67 69 -67 183q0 116 70 187q67 69 173 69zM278 414q-64 0 -100 -49.5t-36 -122.5q0 -83 40 -132t99 -49q55 0 95 45.5t40 121.5t-33 128q-38 58 -105 58zM289 552q-4 -7 -12 -7&#xA;q-4 0 -14 1h-16.5h-15.5q-9 -1 -12 -1q-9 0 -4 9q29 55 76 156q3 7 11 7h17q14 -1 24 -1q9 0 25 1h21q11 0 5 -8q-56 -80 -105 -157z"></glyph>
    <glyph glyph-name="oacute" unicode="ó" horiz-adv-x="558" d="M288 490q93 0 156 -60q69 -68 69 -187q0 -109 -62 -181q-66 -77 -178 -77q-97 0 -161 66q-67 69 -67 183q0 116 70 187q67 69 173 69zM278 414q-64 0 -100 -49.5t-36 -122.5q0 -83 40 -132t99 -49q55 0 95 45.5t40 121.5t-33 128q-38 58 -105 58zM271 552&#xA;q-34 54 -105 157q-5 8 5 8h21q16 -1 25 -1q10 0 24 1h17q8 0 11 -7q47 -101 76 -156q5 -9 -4 -9q-3 0 -12 1h-15.5h-16.5q-10 -1 -14 -1q-8 0 -12 7z"></glyph>
    <glyph glyph-name="ocircumflex" unicode="ô" horiz-adv-x="558" d="M288 490q93 0 156 -60q69 -68 69 -187q0 -109 -62 -181q-66 -77 -178 -77q-97 0 -161 66q-67 69 -67 183q0 116 70 187q67 69 173 69zM278 414q-64 0 -100 -49.5t-36 -122.5q0 -83 40 -132t99 -49q55 0 95 45.5t40 121.5t-33 128q-38 58 -105 58zM279 642q-2 0 -18 -18&#xA;l-64 -72q-6 -7 -12 -7q-4 0 -13 1h-15.5h-14.5q-9 -1 -12 -1q-11 0 -4 9q50 64 113 156q5 7 11 7h9q9 -1 26 -1q13 0 22 1h10q6 0 11 -7q34 -49 114 -156q7 -9 -4 -9q-3 0 -12 1h-15.5h-17.5q-11 -1 -15 -1q-6 0 -12 7q-20 21 -63 67q-21 23 -24 23z"></glyph>
    <glyph glyph-name="otilde" unicode="õ" horiz-adv-x="558" d="M288 490q93 0 156 -60q69 -68 69 -187q0 -109 -62 -181q-66 -77 -178 -77q-97 0 -161 66q-67 69 -67 183q0 116 70 187q67 69 173 69zM278 414q-64 0 -100 -49.5t-36 -122.5q0 -83 40 -132t99 -49q55 0 95 45.5t40 121.5t-33 128q-38 58 -105 58zM278 595q-35 21 -61 21&#xA;q-34 0 -61 -25q-3 -3 -5 3q-24 36 -28 41q-2 2 -2 4t2 3q46 41 102 41q41 0 78 -22q32 -19 55 -19q26 0 55 24q3 6 5 0.5t14 -25t13 -22.5q3 -2 -1 -6q-46 -38 -92 -38q-32 0 -74 20z"></glyph>
    <glyph glyph-name="odieresis" unicode="ö" horiz-adv-x="558" d="M288 490q93 0 156 -60q69 -68 69 -187q0 -109 -62 -181q-66 -77 -178 -77q-97 0 -161 66q-67 69 -67 183q0 116 70 187q67 69 173 69zM278 414q-64 0 -100 -49.5t-36 -122.5q0 -83 40 -132t99 -49q55 0 95 45.5t40 121.5t-33 128q-38 58 -105 58zM232 665q6 0 6 -6v-16&#xA;q-1 -16 -1 -26t1 -28v-19q0 -5 -5 -5q-1 0 -18 1h-28h-25l-15 -1q-5 0 -5 5l1 17v29v27l-1 17q0 5 4 5q-1 0 15 0q16 -1 29 -1q12 0 28 1q15 0 14 0zM417 665q6 0 6 -6v-16q-1 -16 -1 -26t1 -28v-19q0 -5 -5 -5q-1 0 -18 1h-28h-25l-15 -1q-5 0 -5 5l1 17v29v27l-1 17&#xA;q0 5 4 5q-1 0 15 0q16 -1 29 -1q12 0 28 1q15 0 14 0z"></glyph>
    <glyph glyph-name="divide" unicode="÷" d="M50 291q0 9 6 9q-2 0 83.5 -1t116.5 -1q37 0 112.5 1t71.5 1q9 0 9 -7v-13q-1 -11 -1 -19q0 -7 1 -19v-13q0 -5 -7 -5q4 0 -72.5 1t-113.5 1q-32 0 -116.5 -1t-81.5 -1q-8 0 -8 6q0 1 1 11v18v19q-1 12 -1 13zM298 147v-18q-1 -15 -1 -24t1 -26v-21q0 -3 -4 -3&#xA;q-2 0 -19 1h-25h-23q-14 -1 -15 -1q-6 0 -6 3q0 2 1 18v25v27q-1 17 -1 21q0 3 7 3h14q13 -1 23 -1q8 0 23 1h21q4 0 4 -5zM298 466v-18q-1 -15 -1 -24t1 -26v-21q0 -3 -4 -3q-2 0 -19 1h-25h-23q-14 -1 -15 -1q-6 0 -6 3q0 2 1 18v25v27q-1 17 -1 21q0 3 7 3h14&#xA;q13 -1 23 -1q8 0 23 1h21q4 0 4 -5z"></glyph>
    <glyph glyph-name="oslash" unicode="ø" horiz-adv-x="538" d="M401 451q97 -68 97 -208q0 -109 -60 -181q-65 -77 -175 -77q-36 0 -75 13l-25 -60q-1 -2 -5 -2l-52 25q-7 2 -4 6l32 59q-94 67 -94 208q0 116 66.5 186t169.5 70q37 0 70 -11l24 56q1 3 4 2l55 -26q3 -1 2 -4zM222 69q20 -10 50 -10q55 0 93 44q42 48 42 126&#xA;q0 88 -43 142zM313 409q-19 8 -49 8q-59 0 -95 -50t-36 -124q0 -81 39 -134z"></glyph>
    <glyph glyph-name="ugrave" unicode="ù" horiz-adv-x="559" d="M374 60q-71 -75 -158 -75q-57 0 -94 35q-43 41 -43 116v168q0 55 -2 112t-2 52q0 7 5 7t20.5 -1t22.5 -1t24.5 1t23.5 1q5 0 5 -6q0 2 -2 -57.5t-2 -103.5v-147q0 -93 69 -93q63 0 120 65q18 20 18 42v136q0 69 -2 116.5t-2 40.5q0 7 4 7q5 0 21 -1t23 -1q8 0 26 1t24 1&#xA;q4 0 4 -6q0 11 -2.5 -45t-2.5 -137v-98q0 -78 8.5 -135.5t8.5 -45.5q0 -6 -7 -6q-38 0 -81 -5q-6 0 -8 9t-9 54q0 5 -3 5q-4 0 -7 -5zM264 552q-34 54 -105 157q-5 8 5 8h21q16 -1 25 -1q10 0 24 1h17q8 0 11 -7q47 -101 76 -156q5 -9 -4 -9q-3 0 -12 1h-15.5h-16.5&#xA;q-10 -1 -14 -1q-8 0 -12 7z"></glyph>
    <glyph glyph-name="uacute" unicode="ú" horiz-adv-x="559" d="M374 60q-71 -75 -158 -75q-57 0 -94 35q-43 41 -43 116v168q0 55 -2 112t-2 52q0 7 5 7t20.5 -1t22.5 -1t24.5 1t23.5 1q5 0 5 -6q0 2 -2 -57.5t-2 -103.5v-147q0 -93 69 -93q63 0 120 65q18 20 18 42v136q0 69 -2 116.5t-2 40.5q0 7 4 7q5 0 21 -1t23 -1q8 0 26 1t24 1&#xA;q4 0 4 -6q0 11 -2.5 -45t-2.5 -137v-98q0 -78 8.5 -135.5t8.5 -45.5q0 -6 -7 -6q-38 0 -81 -5q-6 0 -8 9t-9 54q0 5 -3 5q-4 0 -7 -5zM289 552q-4 -7 -12 -7q-4 0 -14 1h-16.5h-15.5q-9 -1 -12 -1q-9 0 -4 9q29 55 76 156q3 7 11 7h17q14 -1 24 -1q9 0 25 1h21q11 0 5 -8&#xA;q-56 -80 -105 -157z"></glyph>
    <glyph glyph-name="ucircumflex" unicode="û" horiz-adv-x="559" d="M374 60q-71 -75 -158 -75q-57 0 -94 35q-43 41 -43 116v168q0 55 -2 112t-2 52q0 7 5 7t20.5 -1t22.5 -1t24.5 1t23.5 1q5 0 5 -6q0 2 -2 -57.5t-2 -103.5v-147q0 -93 69 -93q63 0 120 65q18 20 18 42v136q0 69 -2 116.5t-2 40.5q0 7 4 7q5 0 21 -1t23 -1q8 0 26 1t24 1&#xA;q4 0 4 -6q0 11 -2.5 -45t-2.5 -137v-98q0 -78 8.5 -135.5t8.5 -45.5q0 -6 -7 -6q-38 0 -81 -5q-6 0 -8 9t-9 54q0 5 -3 5q-4 0 -7 -5zM269 642q-2 0 -18 -18l-64 -72q-6 -7 -12 -7q-4 0 -13 1h-15.5h-14.5q-9 -1 -12 -1q-11 0 -4 9q50 64 113 156q5 7 11 7h9q9 -1 26 -1&#xA;q13 0 22 1h10q6 0 11 -7q34 -49 114 -156q7 -9 -4 -9q-3 0 -12 1h-15.5h-17.5q-11 -1 -15 -1q-6 0 -12 7q-20 21 -63 67q-21 23 -24 23z"></glyph>
    <glyph glyph-name="udieresis" unicode="ü" horiz-adv-x="559" d="M374 60q-71 -75 -158 -75q-57 0 -94 35q-43 41 -43 116v168q0 55 -2 112t-2 52q0 7 5 7t20.5 -1t22.5 -1t24.5 1t23.5 1q5 0 5 -6q0 2 -2 -57.5t-2 -103.5v-147q0 -93 69 -93q63 0 120 65q18 20 18 42v136q0 69 -2 116.5t-2 40.5q0 7 4 7q5 0 21 -1t23 -1q8 0 26 1t24 1&#xA;q4 0 4 -6q0 11 -2.5 -45t-2.5 -137v-98q0 -78 8.5 -135.5t8.5 -45.5q0 -6 -7 -6q-38 0 -81 -5q-6 0 -8 9t-9 54q0 5 -3 5q-4 0 -7 -5zM227 665q6 0 6 -6v-16q-1 -16 -1 -26t1 -28v-19q0 -5 -5 -5q-1 0 -18 1h-28h-25l-15 -1q-5 0 -5 5l1 17v29v27l-1 17q0 5 4 5q-1 0 15 0&#xA;q16 -1 29 -1q12 0 28 1q15 0 14 0zM412 665q6 0 6 -6v-16q-1 -16 -1 -26t1 -28v-19q0 -5 -5 -5q-1 0 -18 1h-28h-25l-15 -1q-5 0 -5 5l1 17v29v27l-1 17q0 5 4 5q-1 0 15 0q16 -1 29 -1q12 0 28 1q15 0 14 0z"></glyph>
    <glyph glyph-name="yacute" unicode="ý" horiz-adv-x="458" d="M24 -236q4 11 18 73q1 5 6 2q29 -11 37 -11q48 0 78 87l33 95q1 5 0 6q-24 58 -85 205q-43 97 -110 249q-3 6 5 6q4 0 26.5 -1.5t33.5 -1.5q10 0 26.5 1.5t18.5 1.5q5 0 7 -5q30 -94 54 -158q32 -84 68 -173q3 -8 6 0q81 225 110 331q1 5 8 5q1 0 19 -1.5t27 -1.5&#xA;q10 0 27.5 1.5t16.5 1.5q6 0 4 -5q-48 -121 -134 -351q-29 -78 -81 -225q-28 -79 -62 -111q-37 -35 -89 -35q-35 0 -65 10q-4 2 -3 5zM243 552q-4 -7 -12 -7q-4 0 -14 1h-16.5h-15.5q-9 -1 -12 -1q-9 0 -4 9q29 55 76 156q3 7 11 7h17q14 -1 24 -1q9 0 25 1h21q11 0 5 -8&#xA;q-56 -80 -105 -157z"></glyph>
    <glyph glyph-name="thorn" unicode="þ" horiz-adv-x="564" d="M183 435q0 -5 3 -5l7 5q64 56 140 56q74 0 122 -52q63 -68 64 -168q2 -134 -54 -206q-61 -79 -165 -79q-62 0 -108 30q-10 7 -10 -11q0 -73 1 -136q1 -44 2 -83q1 -32 1 -31q0 -6 -5 -6q-1 0 -17.5 1.5t-27.5 1.5t-30 -1.5t-18 -1.5q-5 0 -5 6q0 -9 1 36q2 51 3 132&#xA;q1 114 1 273v97q0 115 -3 293t-3 160q0 5 5 5q1 0 20.5 -1t27.5 -1t28 1t21 1q5 0 5 -6q0 5 -2 -31q-2 -41 -3 -97q-1 -79 -1 -182zM182 138q0 -17 6 -24q43 -53 115 -53q62 0 93 53q28 48 28 139q0 67 -30.5 113.5t-80.5 46.5q-51 0 -112 -57q-19 -18 -19 -34v-184z"></glyph>
    <glyph glyph-name="ydieresis" unicode="ÿ" horiz-adv-x="458" d="M24 -236q4 11 18 73q1 5 6 2q29 -11 37 -11q48 0 78 87l33 95q1 5 0 6q-24 58 -85 205q-43 97 -110 249q-3 6 5 6q4 0 26.5 -1.5t33.5 -1.5q10 0 26.5 1.5t18.5 1.5q5 0 7 -5q30 -94 54 -158q32 -84 68 -173q3 -8 6 0q81 225 110 331q1 5 8 5q1 0 19 -1.5t27 -1.5&#xA;q10 0 27.5 1.5t16.5 1.5q6 0 4 -5q-48 -121 -134 -351q-29 -78 -81 -225q-28 -79 -62 -111q-37 -35 -89 -35q-35 0 -65 10q-4 2 -3 5zM185 665q6 0 6 -6v-16q-1 -16 -1 -26t1 -28v-19q0 -5 -5 -5q-1 0 -18 1h-28h-25l-15 -1q-5 0 -5 5l1 17v29v27l-1 17q0 5 4 5q-1 0 15 0&#xA;q16 -1 29 -1q12 0 28 1q15 0 14 0zM370 665q6 0 6 -6v-16q-1 -16 -1 -26t1 -28v-19q0 -5 -5 -5q-1 0 -18 1h-28h-25l-15 -1q-5 0 -5 5l1 17v29v27l-1 17q0 5 4 5q-1 0 15 0q16 -1 29 -1q12 0 28 1q15 0 14 0z"></glyph>
    <glyph glyph-name=".null" horiz-adv-x="0"></glyph>
    <glyph glyph-name="Lslash" horiz-adv-x="515" d="M91 314v38q0 96 -2 177q-1 55 -2 105q-2 41 -2 42q0 8 7 8h18q16 -1 25 -1q10 0 30 1h23q6 0 6 -6q0 2 -1 -33q-2 -41 -3 -91q-2 -73 -2 -159l128 109q4 4 7 0l33 -44q3 -5 0 -7l-168 -139q1 -70 2 -149q2 -73 2 -71q0 -7 5 -7q16 -1 95 -1q46 0 114 2t65 2q4 0 4 -5&#xA;q0 1 0 -14q-1 -14 -1 -26q0 -10 1 -26v-17q0 -4 -4 -4q4 0 -79.5 1.5t-112.5 1.5q-61 0 -128 -1t-59 -1q-6 0 -6 6q0 -4 2 66q1 76 2 160l-46 -40q-4 -3 -6 0l-37 45q-3 3 2 7z"></glyph>
    <glyph glyph-name="lslash" horiz-adv-x="257" d="M81 285l-50 -43q-3 -3 -6 0l-37 44q-2 3 2 7l91 73v1q0 82 -2 178q-1 67 -2 140q-2 63 -2 61q0 5 5 5q1 0 20.5 -1t27.5 -1t28 1t21 1q5 0 5 -6q0 12 -3 -83q-3 -103 -4 -216l51 44q5 4 7 0l35 -41q4 -5 0 -8l-93 -77v-51q0 -95 1 -173q1 -56 3 -101q1 -38 1 -35&#xA;q0 -5 -5 -5l-18 1t-28 1q-11 0 -30.5 -1t-18.5 -1q-4 0 -4 5q0 -3 1 32q1 41 2 92q2 72 2 157z"></glyph>
    <glyph glyph-name="minus" horiz-adv-x="499" d="M50 297q0 9 6 9q-2 0 83.5 -1t116.5 -1q37 0 112.5 1t71.5 1q9 0 9 -7v-14q-1 -13 -1 -21q0 -7 1 -19v-16q0 -5 -7 -5q4 0 -72.5 1t-113.5 1q-32 0 -116.5 -1t-81.5 -1q-8 0 -8 6q0 1 1 13v19v21q-1 13 -1 14z"></glyph>
    <glyph glyph-name="notequal" d="M218 136l-57 -98q-3 -6 -5 -2l-45 25q-6 3 -4 6l40 69q-46 -1 -89 -1q-8 0 -8 6q0 1 1 11v18v19q-1 12 -1 13q0 9 6 9q73 0 132 -1l57 95h-114q-77 -1 -73 -1q-8 0 -8 6q0 1 1 11v18v19q-1 12 -1 13q0 9 6 9q-2 0 84 0q85 -1 116 -1h31l52 91q2 3 4 1l49 -28q2 -1 1 -4&#xA;l-35 -60q43 1 82 1q9 0 9 -7v-13q-1 -11 -1 -19q0 -7 1 -19v-13q0 -5 -7 -5q5 0 -43 1h-84l-59 -95h5q38 0 111 1q72 0 68 0q9 0 9 -7v-13q-1 -11 -1 -19q0 -7 1 -19v-13q0 -5 -7 -5q4 0 -73 1h-113h-38z"></glyph>
    <glyph glyph-name="infinity" horiz-adv-x="843" d="M372 259q0 2 -3 5q-73 93 -147 93q-39 0 -65 -25.5t-26 -67.5q0 -38 28 -65.5t65 -27.5q80 0 145 84q2 3 3 4zM419 330q4 -4 5 -4q2 1 5 5q77 102 198 102q70 0 120.5 -48t50.5 -120q0 -71 -53 -122t-131 -51q-107 0 -191 105q-2 3 -5 5q-1 0 -5 -6q-81 -103 -192 -103&#xA;q-75 0 -125.5 49t-50.5 122q0 70 53 120t131 50q107 0 190 -104zM470 270q0 -2 3 -5q74 -94 148 -94q38 0 64.5 26.5t26.5 69.5q0 39 -29 64.5t-71 25.5q-76 0 -139 -83z"></glyph>
    <glyph glyph-name="lessequal" d="M156 318q40 -10 100 -26q89 -21 184 -46q9 -1 9 -6v-12q-1 -11 -1 -16q0 -6 1 -22v-18t-7 0q-63 18 -186 51q-162 42 -198 56q-8 1 -8 6l1 13t1 18q0 6 -1 17t-1 13q0 10 6 11q75 22 200 58q125 32 184 52q9 1 9 -3v-13q-1 -11 -1 -17q0 -5 1 -19v-17q0 -4 -7 -5&#xA;q-63 -15 -186 -45q-32 -9 -99 -26q-11 -3 -1 -4zM50 124q0 9 6 9q-2 0 84 0q85 -1 116 -1q37 0 113 1q75 0 71 0q9 0 9 -7v-13q-1 -11 -1 -19q0 -7 1 -19v-13q0 -5 -7 -5q4 0 -73 1h-113h-117q-84 -1 -81 -1q-8 0 -8 6q0 1 1 11v18v19q-1 12 -1 13z"></glyph>
    <glyph glyph-name="greaterequal" d="M342 321q-40 10 -100 26q-89 22 -184 46q-9 1 -9 6q0 1 1 11v14.5v21.5q-1 16 -1 18t7 0q63 -18 186 -51q162 -42 198 -56q8 -1 8 -6l-1 -13t-1 -18t1 -16t1 -14q0 -10 -6 -11q-75 -22 -200 -58q-125 -32 -184 -52q-9 -1 -9 3q0 1 1 13v16.5v20.5q-1 15 -1 19t7 5&#xA;q63 15 186 45q32 9 99 26q11 3 1 4zM50 124q0 9 6 9q-2 0 84 0q85 -1 116 -1q37 0 113 1q75 0 71 0q9 0 9 -7v-13q-1 -11 -1 -19q0 -7 1 -19v-13q0 -5 -7 -5q4 0 -73 1h-113h-117q-84 -1 -81 -1q-8 0 -8 6q0 1 1 11v18v19q-1 12 -1 13z"></glyph>
    <glyph glyph-name="partialdiff" horiz-adv-x="551" d="M404 283q0 17 -6 22q-59 53 -132 53q-57 0 -91 -42t-34 -101q0 -69 38 -111q34 -39 80 -39q74 0 113 67q33 59 32 151zM401 411q-11 93 -54 150q-46 63 -116 63q-47 0 -82 -19q-7 -4 -9 2q-9 20 -28 57q-2 3 2 7q54 30 128 30q127 0 196 -111q63 -101 63 -265&#xA;q0 -153 -53 -240q-62 -101 -191 -101q-93 0 -152.5 63.5t-59.5 163.5q0 101 63.5 163t166.5 62q62 0 120 -32q4 -2 6 -1q1 2 0 8z"></glyph>
    <glyph glyph-name="summation" horiz-adv-x="661" d="M32 688q-2 3 -1 8l6 51q0 4 4 4h533q5 0 5 -5v-134q0 -6 -4 -6h-65q-4 0 -4 5v64q0 5 -5 5h-358q-6 0 -2 -6l237 -392q3 -4 0 -10l-240 -446h377v63q0 6 4 6h65q4 0 4 -6v-132q0 -7 -7 -7h-538q-5 0 -7 6l-5 40q-1 7 2 11l250 459q3 4 0 8z"></glyph>
    <glyph glyph-name="product" horiz-adv-x="735" d="M205 680q-6 0 -6 -7v-915q0 -11 -6 -11h-74q-5 0 -5 12v916q0 5 -4 5h-67q-8 0 -8 6v60q0 5 8 5h590q6 0 6 -5v-60q0 -6 -6 -6h-69q-6 0 -6 -6v-921q0 -7 -5 -7h-74q-6 0 -6 7v921q0 6 -6 6h-262z"></glyph>
    <glyph glyph-name="pi" horiz-adv-x="598" d="M360 398l-78 2q1 0 -73 -2q-6 0 -6 -5v-190q0 -54 1 -105q1 -36 2 -69q1 -28 1 -26q0 -4 -4 -4q-5 0 -20.5 1t-22.5 1q-8 0 -24 -1t-22 -1q-4 0 -4 4q0 -11 2 59.5t2 137.5v193q0 6 -6 6l-73 -1q-5 0 -5 5q0 1 1 11v20v23q-1 14 -1 15q0 4 6 4q13 0 115.5 -1.5&#xA;t141.5 -1.5q40 0 137.5 1.5t107.5 1.5q7 0 7 -5v-14q-1 -13 -1 -23t1 -21v-11q0 -5 -5 -5l-80 1q-2 0 -2 -5v-236q0 -79 41 -79q8 0 32 8q5 1 6 -6q8 -43 16 -68q2 -6 -9 -9q-33 -10 -61 -10q-64 0 -92 45q-25 40 -25 118v236q0 6 -6 6z"></glyph>
    <glyph glyph-name="integral" horiz-adv-x="476" d="M280 598v-665q0 -61 -5 -88q-9 -51 -41 -77t-83 -26q-40 0 -70 12q-8 3 -3 19q9 26 14 50q3 12 10 9q27 -13 45 -13q24 0 36.5 19t12.5 83v690q0 84 49 123q32 26 82 26q37 0 68 -12q8 -3 3 -19q-8 -25 -13 -46q-3 -12 -10 -9q-28 11 -48 11q-27 0 -37 -17.5t-10 -69.5z&#xA;"></glyph>
    <glyph glyph-name="Omega" horiz-adv-x="773" d="M311 81q13 -10 13 -16v-16q-1 -10 -1 -16t1 -16v-11q0 -7 -7 -7q5 0 -33.5 1t-70.5 1q-31 0 -84.5 -1.5t-49.5 -1.5q-7 0 -7 6q0 -1 1 11.5t1 22.5t-1 23.5t-1 12.5q0 4 4 4q-2 0 25 -2t45 -2h3q4 1 37 1q6 0 6 3t-7 10q-125 115 -125 276q0 149 97 244q94 93 237 93&#xA;q141 0 230 -92t89 -242q0 -95 -51 -180q-35 -58 -85 -99q-8 -7 -8 -10t6 -3l72 -1q18 0 37.5 1.5t17.5 1.5q4 0 4 -4q0 1 -1 -12.5t-1 -23.5t1 -22t1 -11q0 -6 -7 -6q4 0 -42 1.5t-77 1.5q-32 0 -72 -1t-35 -1q-7 0 -7 7q0 1 1 11v16v16q-1 11 -1 16t13 16q131 108 131 279&#xA;q0 115 -66 188q-64 70 -160 70q-95 0 -157 -68q-64 -71 -64 -183q0 -95 51 -179q39 -64 97 -107z"></glyph>
    <glyph glyph-name="radical" horiz-adv-x="683" d="M76 264q-2 7 -8 7h-54q-4 0 -4 3v62q0 4 3 4h113q6 0 8 -5l103 -234q1 -2 2 -2t2 2l289 646q1 4 4 4h136q3 0 3 -4v-64q0 -3 -4 -3h-78q-5 0 -7 -5l-301 -668q-3 -7 -8 -7h-77q-3 0 -5 6z"></glyph>
    <glyph glyph-name="approxequal" d="M238 309q-42 21 -81 21q-42 0 -82 -32q-4 -4 -7 2q-16 30 -28 47q-3 4 1 7q64 46 126 46q52 0 102 -26q40 -21 76 -21q40 0 80 32q4 4 7 -2q16 -30 28 -47q3 -4 -1 -7q-64 -46 -122 -46q-47 0 -99 26zM238 141q-42 21 -81 21q-42 0 -82 -32q-4 -4 -7 2q-16 30 -28 47&#xA;q-3 4 1 7q64 46 126 46q52 0 102 -26q40 -21 76 -21q40 0 80 32q4 4 7 -2q16 -30 28 -47q3 -4 -1 -7q-64 -46 -122 -46q-47 0 -99 26z"></glyph>
    <glyph glyph-name="Delta" horiz-adv-x="772" d="M558 392q95 -188 166 -332q3 -6 3 -9l-4 -45q0 -7 -7 -7q7 0 -112 1t-230 1q-109 0 -217.5 -1t-101.5 -1q-7 0 -7 7l-3 45q0 3 3 9q48 99 149 303q111 220 149 316q2 6 6 6h10q9 -1 20 -1t21 1h11q5 0 6 -4q49 -106 138 -289zM260 303q-68 -141 -98 -209q-5 -12 3 -12&#xA;q96 -1 207 -1q123 0 219 1q8 0 3 12q-31 71 -95 209q-95 195 -112 231q-3 7 -5 16t-3 9q3 0 -8 -24q-39 -81 -111 -232z"></glyph>
    <glyph glyph-name="lozenge" horiz-adv-x="616" d="M50 335q-4 6 1 13l218 329q2 3 5 3h65q5 0 6 -3l221 -331q3 -4 0 -10l-221 -329q-5 -7 -11 -7h-55q-5 0 -9 6zM150 333l154 -233q3 -5 6 0l158 236q3 6 0 10l-158 238q-2 4 -6 0l-154 -235q-5 -8 0 -16z"></glyph>
    <glyph glyph-name="fraction" horiz-adv-x="354" d="M39 -238q-1 -7 -8 -5l-58 26q-5 2 -3 6l344 940q2 5 6 3l61 -22q3 -2 2 -7z"></glyph>
    <glyph glyph-name="fi" horiz-adv-x="561" d="M479 479q4 0 7 -8q-4 -128 -4 -201v-39q0 -74 1 -132q1 -41 2 -69.5t1 -25.5q0 -5 -4 -5l-16 1t-29 1q-12 0 -30.5 -1t-17.5 -1q-4 0 -4 3q0 -2 1 22q1 29 2 62q1 46 1 96v61q0 110 -1 154q0 6 -6 6l-113 2l-74 -1q-7 0 -7 -10v-81q0 -117 1 -197q1 -56 2.5 -87.5&#xA;t1.5 -26.5q-1 -3 -3 -3q1 0 -16.5 1t-32.5 1q-16 0 -32 -1t-15 -1q-4 0 -4 4q0 -6 1 26q2 37 3 97q1 85 1 206v63q0 6 -6 6l-69 -3q-5 0 -5 5q0 2 1 14v23v19l-1 14q0 5 5 5l68 -3q6 0 6 6v59q0 112 70 171q59 51 147 51q46 0 95 -16q42 -14 64 -30q3 -3 1 -7&#xA;q-14 -20 -38 -70q-2 -4 -5 -1q-57 47 -124 46q-47 -1 -77 -30q-39 -36 -39 -113v-62q0 -5 6 -5q117 -4 285 5z"></glyph>
    <glyph glyph-name="fl" horiz-adv-x="566" d="M413 736q7 0 37 7q39 9 37 9q4 0 4 -4q0 2 -2 -48q-1 -59 -2 -119q-2 -86 -2 -172v-73q0 -105 1 -190q1 -60 3 -107q1 -40 1 -35q0 -5 -4 -5l-19.5 1t-29.5 1t-28.5 -1t-19.5 -1q-3 0 -3 4q0 -5 2 29q1 40 2 97q2 81 2 190v135v160q-1 36 -13 45q-33 27 -87 27&#xA;q-43 0 -71 -30q-33 -35 -33 -100v-77q0 -4 5 -4l87 2q5 0 5 -4v-12q-1 -13 -1 -21q0 -9 1 -23v-14q0 -4 -5 -4l-85 2q-7 0 -7 -7v-23q0 -135 1 -229q1 -67 3 -108q1 -37 1 -30q0 -5 -3 -5l-21 1t-29 1q-10 0 -29 -1t-18 -1q-3 0 -3 3q0 -8 1 29q2 41 3 110q1 98 1 237v17&#xA;q0 6 -6 6l-69 -2q-5 0 -5 4l1 15v21.5v18.5q-1 10 -1 12q0 7 5 7l70 -2q4 0 4 5v59q0 108 57.5 164.5t146.5 56.5q58 0 108 -22q4 -2 7 -2z"></glyph>
    <glyph glyph-name="Apple" horiz-adv-x="368" d="M329 -2q3 0 -54 1.5t-100 1.5q-39 0 -89.5 -1.5t-49.5 -1.5q-6 0 -6 4q0 1 1 19v23.5v16.5l-1 13q0 4 6 3l91 -2q5 0 5 5q5 120 5 272q0 68 -4 248q0 8 -6 8l-92 -2q-3 0 -3 4q0 1 1 16v20.5v18.5l-1 15q0 4 3 4q-1 0 50.5 -1t91.5 -1q44 0 100 1t50 1q4 0 4 -4v-16&#xA;q-1 -15 -1 -20q0 -4 1 -19v-15q0 -4 -4 -4l-92 2q-4 0 -4 -7q-3 -138 -3 -252q0 -174 4 -268q0 -6 5 -6l92 2q6 0 6 -4v-21q-1 -20 -1 -25q0 -4 1 -15v-11q0 -4 -6 -3z"></glyph>
    <glyph glyph-name="dotlessi" horiz-adv-x="252" d="M176 471q0 8 -2 -64t-2 -134v-75q0 -57 2.5 -130.5t2.5 -63.5q0 -5 -5 -5t-22 1t-24 1t-23.5 -1t-22.5 -1q-5 0 -5 6q0 -10 2 62.5t2 132.5v72q0 66 -2 137t-2 61q0 6 6 6q2 0 19.5 -1t24.5 -1q8 0 26 1t19 1q6 0 6 -5z"></glyph>
    <glyph glyph-name="breve" horiz-adv-x="495" d="M158 716q4 0 4 -3q2 -37 29 -63.5t65 -26.5q39 0 65.5 25.5t28.5 63.5q0 4 6 4h50q6 0 6 -3q0 -62 -46 -107.5t-110 -45.5t-110 45t-46 107q0 4 5 4h53z"></glyph>
    <glyph glyph-name="dotaccent" horiz-adv-x="256" d="M181 684v-17q-1 -16 -1 -26t1 -30v-21q0 -6 -6 -6q-3 0 -20 1h-27h-24q-16 -1 -19 -1q-7 0 -7 7q0 4 1 20v27v27q-1 17 -1 18q0 6 6 6h19q16 -1 25 -1t26 1h20q7 0 7 -5z"></glyph>
    <glyph glyph-name="ring" horiz-adv-x="495" d="M242 734q43 0 73 -30t30 -73t-31 -74t-74 -31t-74 31t-31 74q0 42 32 72.5t75 30.5zM240 686q-22 0 -38 -16t-16 -39t16 -39.5t38 -16.5t38 16.5t16 39.5t-16 39t-38 16z"></glyph>
    <glyph glyph-name="hungarumlaut" d="M169 550q-3 -7 -10 -7q-3 0 -11 1h-13h-12q-7 -1 -10 -1q-7 0 -3 8q23 52 61 137q2 7 8 7h14q12 -1 19 -1q8 0 20 1h17q7 0 4 -8q-36 -56 -84 -137zM354 550q-3 -7 -10 -7q-3 0 -11 1h-13h-12q-7 -1 -10 -1q-7 0 -3 8q23 52 61 137q2 7 8 7h14q12 -1 19 -1q8 0 20 1h17&#xA;q7 0 4 -8q-36 -56 -84 -137z"></glyph>
    <glyph glyph-name="ogonek" horiz-adv-x="440" d="M340 -188q-41 -43 -93 -43q-47 0 -71 28q-21 23 -21 59q0 32 14 65q23 54 50 84h59q-60 -92 -60 -136q0 -43 37 -43q25 0 52 27q2 3 6 -3q8 -14 25 -31q4 -4 2 -7z"></glyph>
    <glyph glyph-name="caron" horiz-adv-x="495" d="M257 620q2 0 18 18l64 72q6 7 12 7h13q10 -1 16 -1q5 0 14 1h12q11 0 4 -9q-50 -64 -113 -156q-5 -7 -11 -7l-9 1h-26h-22q-9 -1 -10 -1q-6 0 -11 7q-34 49 -114 156q-7 9 4 9h12q10 -1 15 -1q6 0 18 1h15q6 0 12 -7q20 -21 63 -67q21 -23 24 -23z"></glyph>
    <glyph glyph-name="ffi" horiz-adv-x="858" d="M406 633q2 6 -2 10q-44 41 -114 41q-104 0 -104 -150v-55q0 -5 6 -5l91 -1l103 1q5 1 5 7v59q0 51 15 93zM457 708q55 54 151 54q30 0 94 -17q75 -19 66 -37q-14 -20 -38 -68q-2 -4 -5 -1q-56 46 -124 45q-47 -1 -78 -30q-40 -37 -40 -113v-62q0 -5 5 -5t44 -1h61&#xA;q15 0 181 4q4 0 7 -8q-4 -128 -4 -199v-39q0 -74 2 -132q1 -41 2.5 -69.5t1.5 -25.5q0 -5 -4 -5l-16.5 1.5t-29.5 1.5q-12 0 -30.5 -1.5t-17.5 -1.5q-4 0 -4 3q0 -2 1 22q2 29 3 62q1 46 1 96v61q0 110 -1 154q0 6 -6 6l-90 2l-99 -1q-7 0 -7 -10v-81q0 -117 2 -197&#xA;q1 -56 2.5 -87.5t1.5 -26.5q-1 -3 -3 -3q1 0 -16.5 1.5t-32.5 1.5q-16 0 -32 -1.5t-15 -1.5q-4 0 -4 4q0 -6 2 26q1 37 2 97q2 85 2 206v63q0 5 -5 7l-108 2l-88 -2q-4 0 -4 -5v-42q0 -113 1 -203q1 -64 3 -112q1 -41 1 -35q0 -6 -3 -6q1 0 -18 1.5t-31 1.5t-30 -1.5&#xA;l-18 -1.5q-4 0 -4 4q0 -6 2 37q2 48 3 113q2 91 2 204v41q0 3 -4 3l-69 -3q-7 0 -7 4q0 -1 1 13v25v20l-1 14q0 4 4 4l69 -3q6 0 6 6v57q0 108 55.5 165t148.5 57q82 0 152 -51q4 -4 7 -1z"></glyph>
    <glyph glyph-name="ffl" horiz-adv-x="863" d="M406 635q2 7 -4 10q-51 39 -112 39q-104 0 -104 -133v-72q0 -5 6 -5l96 -1l98 1q6 1 6 6v68q0 41 14 87zM457 711q52 51 139 51q54 0 108 -24q4 -2 7 -2q11 0 37.5 8t35.5 8q4 0 4 -4q0 2 -2 -48q-2 -59 -3 -119q-2 -86 -2 -172v-73q0 -105 2 -190q1 -60 2 -107&#xA;q2 -40 2 -35q0 -5 -4 -5l-19.5 1.5t-29.5 1.5t-28 -1.5t-19 -1.5q-3 0 -3 4q0 -5 2 29q1 40 2 97q2 81 2 190v135q0 142 -1 168t-8 31q-38 31 -91 31q-40 0 -69 -29q-37 -37 -37 -111v-65q0 -4 5 -4l87 3q5 0 5 -4l-1 -13t-1 -21q0 -9 1 -23t1 -15q0 -4 -5 -4l-85 3&#xA;q-7 0 -7 -7v-23q0 -135 2 -229q1 -67 2 -108q2 -37 2 -30q0 -5 -3 -5l-18.5 1.5t-26.5 1.5q-10 0 -31.5 -1.5t-20.5 -1.5q-3 0 -3 3q0 -8 2 29q1 41 2 110q2 97 2 237v17q0 6 -6 7l-100 2l-96 -2q-4 0 -4 -5v-42q0 -113 2 -203q1 -64 2 -112q2 -41 2 -35q0 -6 -3 -6&#xA;q1 0 -18.5 1.5t-31.5 1.5t-29.5 -1.5l-17.5 -1.5q-4 0 -4 4q0 -6 2 37q1 48 2 113q2 91 2 204v41q0 3 -4 3l-69 -3q-7 0 -7 4q0 -1 1 13v25v20l-1 14q0 4 4 4l69 -3q6 0 6 6v57q0 108 55.5 165t148.5 57q83 0 151 -50q4 -3 8 1z"></glyph>
    <glyph glyph-name="ft" horiz-adv-x="617" d="M483 474l106 1q7 0 7 -5v-13q-1 -13 -1 -23t1 -20.5l1 -10.5q0 -5 -5 -5l-111 2q-6 0 -6 -5l-1 -233q0 -59 15.5 -76t38.5 -17q21 0 50 11q5 1 6 -6q4 -22 16 -68q2 -6 -9 -9q-42 -13 -80 -13q-58 0 -92 35q-39 40 -38 137l2 238q0 9 -8 9l-180 1q-7 0 -7 -7v-84&#xA;q0 -103 1 -182q1 -57 3 -97q1 -36 1 -30q0 -5 -4 -5q-1 0 -21 1t-28 1t-26.5 -1l-18.5 -1q-5 0 -5 5q0 -4 1 35q2 45 3 101q1 80 1 173v82q0 6 -6 6l-69 -3q-5 0 -5 4q0 1 1 14v22.5v22.5l-1 12q0 5 5 5l68 -3q6 0 6 6v46q0 105 51 167q56 68 158 68q57 0 114 -24&#xA;q46 -20 61 -39q2 -2 2 -8q0 -3 -3 -100q-2 -87 -1 -110q0 -7 7 -7zM188 480q0 -5 6 -5h181q8 0 8 5q0 107 -3 182q-30 28 -86 28q-42 0 -70 -30q-36 -39 -36 -119v-61z"></glyph>
    <glyph glyph-name="fft" horiz-adv-x="914" d="M485 480q0 -5 6 -5l93 -1l88 1q8 0 8 5q0 82 -4 182q-30 28 -85 28q-42 0 -70 -30q-36 -39 -36 -119v-61zM411 642q2 3 -1 6q-15 15 -50 26.5t-65 11.5q-107 0 -107 -135v-71q0 -5 6 -5l89 -1l102 1q6 0 6 6v46q0 64 20 115zM780 474l106 3q7 0 7 -5v-14q-1 -13 -1 -23&#xA;t1 -21v-11q0 -5 -5 -5l-110 2q-6 0 -6 -5l-1 -233q0 -59 15.5 -76t38.5 -17q9 0 50 11q4 1 6 -6q4 -29 16 -68q2 -6 -9 -9q-42 -13 -80 -13q-58 0 -92 35q-39 40 -38 137l2 238q0 9 -8 9l-92 1h-88q-7 0 -7 -7v-84q0 -103 1 -182q1 -57 3 -97q1 -36 1 -30q0 -5 -4 -5&#xA;q-1 0 -21 1t-28 1t-27 -1l-19 -1q-5 0 -5 5q0 -4 2 35q1 45 2 101q2 80 2 173v84q0 6 -6 6l-109 1l-84 -1q-4 0 -4 -5v-41q0 -113 1 -204q1 -64 3 -112q1 -42 1 -36q0 -6 -3 -6q1 0 -19.5 1t-32.5 1t-29 -1l-17 -1q-4 0 -4 4q0 -6 2 37q1 48 2 113q2 91 2 204v41q0 3 -4 3&#xA;l-69 -3q-7 0 -7 4q0 -1 1 13v25v20l-1 14q0 4 4 4l69 -3q6 0 6 6v57q0 106 58 166q55 56 151 56q75 0 151 -47q4 -2 6 0q55 49 140 49q57 0 113 -24q45 -20 61 -40q1 -1 1 -7q0 -11 -1 -100t-1 -110q0 -7 7 -7z"></glyph>
    <glyph glyph-name="ff" horiz-adv-x="751" d="M430 640q1 3 -3 7q-37 37 -107 37q-102 0 -102 -133v-72q0 -5 6 -5l93 -1l99 1q5 0 5 5v80q0 50 9 81zM472 720q49 41 115 41q54 0 113 -31q8 -4 5 -10q-10 -15 -33 -66q-3 -6 -9 -2q-43 31 -77 31q-39 0 -55 -30t-16 -100v-73q0 -5 4 -5l95 3q3 0 3 -3q0 1 0 -12&#xA;q-1 -13 -1 -23q0 -12 1 -25q0 -14 0 -13q0 -4 -7 -4l-91 3q-4 0 -4 -4v-36q0 -116 1 -208q1 -65 3 -113q1 -42 1 -37q0 -4 -3 -4q2 0 -17 1t-33 1q-13 0 -30.5 -1t-16.5 -1q-3 0 -3 3q0 -6 1 36q2 49 3 114q1 91 1 203v43q0 4 -5 4l-108 1l-86 -1q-4 0 -4 -5v-42&#xA;q0 -113 1 -203q1 -64 2 -112q1 -41 1 -35q0 -6 -3 -6q1 0 -19 1t-32 1t-28.5 -1l-16.5 -1q-4 0 -4 4q0 -6 1 37q2 48 3 113q1 91 1 204v41q0 3 -4 3l-69 -3q-7 0 -7 4q0 -1 1 13.5t1 24.5q0 7 -1 20.5l-1 13.5q0 4 4 4l69 -3q6 0 6 6v57q0 108 55.5 165t148.5 57&#xA;q38 0 79 -14q37 -12 57 -28q5 -2 8 2z"></glyph>
    <glyph glyph-name="BEL" horiz-adv-x="339" d="M-30 298q0 9 6 9q-2 0 83.5 -1t116.5 -1q37 0 112.5 1t71.5 1q9 0 9 -7v-15q-1 -13 -1 -21q0 -7 1 -19v-17t-7 -5q4 0 -72.5 1t-113.5 1q-32 0 -117 -1t-81 -1q-8 0 -8 4v14q1 13 1 21t-1 21v15z"></glyph>
    </font>
</defs>
</svg>
